SplineFontDB: 3.2
FontName: KiCk-Regular
FullName: KiCk Regular
FamilyName: KiCk
Weight: Regular
Copyright: 
Version: 001.001
ItalicAngle: 0
UnderlinePosition: -100
UnderlineWidth: 50
Ascent: 800
Descent: 200
InvalidEm: 0
sfntRevision: 0x00010000
LayerCount: 2
Layer: 0 0 "Back" 1
Layer: 1 0 "Fore" 0
XUID: [1021 21 921175455 12555253]
StyleMap: 0x0040
FSType: 0
OS2Version: 4
OS2_WeightWidthSlopeOnly: 0
OS2_UseTypoMetrics: 0
CreationTime: 1649958150
ModificationTime: 1651855311
PfmFamily: 17
TTFWeight: 400
TTFWidth: 5
LineGap: 90
VLineGap: 0
Panose: 2 0 5 3 0 0 0 0 0 0
OS2TypoAscent: 800
OS2TypoAOffset: 0
OS2TypoDescent: -200
OS2TypoDOffset: 0
OS2TypoLinegap: 90
OS2WinAscent: 800
OS2WinAOffset: 0
OS2WinDescent: 200
OS2WinDOffset: 0
HheadAscent: 800
HheadAOffset: 0
HheadDescent: -200
HheadDOffset: 0
OS2SubXSize: 650
OS2SubYSize: 700
OS2SubXOff: 0
OS2SubYOff: 140
OS2SupXSize: 650
OS2SupYSize: 700
OS2SupXOff: 0
OS2SupYOff: 480
OS2StrikeYSize: 49
OS2StrikeYPos: 258
OS2CapHeight: 758
OS2XHeight: 699
OS2Vendor: 'CLGR'
OS2CodePages: 00000001.00000000
OS2UnicodeRanges: 00000003.00000000.00000000.00000000
MarkAttachClasses: 1
DEI: 91125
LangName: 1033 "" "" "" "FontForge 2.0 : KiCk Regular : 6-5-2022" "" "Version 001.001" "" "" "" "" "" "" "" "" "" "" "KiCk" "Regular"
Encoding: UnicodeBmp
UnicodeInterp: none
NameList: AGL For New Fonts
DisplaySize: -48
AntiAlias: 1
FitToEm: 0
WinInfo: 0 38 14
BeginPrivate: 8
BlueValues 33 [-118 -1 385 462 472 557 692 735]
OtherBlues 11 [-182 -140]
BlueScale 10 0.00833333
BlueShift 2 17
StdHW 4 [61]
StdVW 4 [59]
StemSnapH 31 [13 50 57 61 65 72 82 86 91 98]
StemSnapV 32 [41 47 54 59 68 73 80 87 94 108]
EndPrivate
Grid
-1000 930.498352051 m 0
 2000 930.498352051 l 1024
EndSplineSet
BeginChars: 65538 108

StartChar: .notdef
Encoding: 65536 -1 0
Width: 364
Flags: W
LayerCount: 2
Fore
SplineSet
33 0 m 1
 33 666 l 1
 298 666 l 1
 298 0 l 1
 33 0 l 1
66 33 m 1
 265 33 l 1
 265 633 l 1
 66 633 l 1
 66 33 l 1
EndSplineSet
Validated: 1
EndChar

StartChar: exclam
Encoding: 33 33 4
Width: 210
GlyphClass: 2
Flags: W
LayerCount: 2
Fore
SplineSet
84.33984375 -22.47265625 m 0
 95.0556640625 -16.0439453125 105.044921875 -16.7861328125 114.314453125 -24.6982421875 c 0
 123.946289062 -32.919921875 131.110351562 -37.0302734375 135.806640625 -37.0302734375 c 0
 139.297851562 -37.0302734375 142.66796875 -38.70703125 145.916992188 -42.0615234375 c 0
 149.169921875 -45.4169921875 152.30078125 -47.2705078125 155.309570312 -47.623046875 c 0
 158.921875 -48.048828125 163.598632812 -51.52734375 169.33984375 -58.0576171875 c 0
 175.08203125 -64.5908203125 178.247070312 -70.03515625 178.8359375 -74.390625 c 0
 179.043945312 -75.9345703125 179.991210938 -78.90234375 181.678710938 -83.294921875 c 0
 183.362304688 -87.68359375 183.512695312 -92.685546875 182.129882812 -98.2998046875 c 0
 180.744140625 -103.915039062 180.051757812 -108.981445312 180.051757812 -113.498046875 c 0
 180.051757812 -127.692382812 176.138671875 -138.6953125 168.313476562 -146.5078125 c 0
 165.6640625 -149.153320312 164.092773438 -151.184570312 163.599609375 -152.6015625 c 0
 162.930664062 -154.525390625 158.327148438 -158.024414062 149.7890625 -163.098632812 c 0
 141.250976562 -168.168945312 134.724609375 -171.283203125 130.209960938 -172.442382812 c 0
 105.76953125 -178.704101562 88.3125 -179.224609375 77.837890625 -174.00390625 c 0
 72.6904296875 -171.438476562 65.865234375 -165.881835938 57.36328125 -157.333984375 c 0
 48.859375 -148.788085938 44.607421875 -143.209960938 44.607421875 -140.599609375 c 0
 44.607421875 -138.40625 43.7548828125 -135.56640625 42.0498046875 -132.080078125 c 0
 32.4384765625 -112.465820312 31.7412109375 -95.947265625 39.9580078125 -82.5234375 c 0
 41.853515625 -79.4287109375 42.8017578125 -76.4599609375 42.8017578125 -73.6181640625 c 0
 42.8017578125 -71.1015625 44.96875 -66.33984375 49.3037109375 -59.333984375 c 0
 53.63671875 -52.3291015625 56.8271484375 -48.4296875 58.875 -47.6357421875 c 0
 60.8046875 -46.884765625 64.17578125 -43.3173828125 68.98828125 -36.93359375 c 0
 73.7998046875 -30.5478515625 78.9169921875 -25.7275390625 84.33984375 -22.47265625 c 0
52.732421875 718.345703125 m 0
 58.8720703125 722.1015625 64.8935546875 722.138671875 70.79296875 718.456054688 c 0
 74.40234375 716.201171875 78.6162109375 714.188476562 83.43359375 712.418945312 c 0
 91.2607421875 709.541015625 95.173828125 706.1015625 95.173828125 702.100585938 c 0
 95.173828125 699.646484375 96.4375 696.581054688 98.9638671875 692.904296875 c 0
 101.493164062 689.225585938 102.400390625 684.224609375 101.686523438 677.900390625 c 0
 99.87109375 661.893554688 99.609375 648.149414062 100.901367188 636.666992188 c 0
 105.5078125 595.622070312 106.499023438 570.971679688 103.875976562 562.71484375 c 0
 102.768554688 559.23046875 103.1484375 555.939453125 105.014648438 552.840820312 c 0
 106.880859375 549.7421875 107.602539062 540.127929688 107.1796875 523.997070312 c 0
 106.758789062 507.860351562 106.125976562 499.051757812 105.282226562 497.572265625 c 0
 104.440429688 496.084960938 103.749023438 487.178710938 103.20703125 470.854492188 c 0
 102.663085938 454.52734375 101.850585938 445.654296875 100.76953125 444.235351562 c 0
 99.6845703125 442.817382812 98.87109375 436.623046875 98.3291015625 425.651367188 c 0
 97.7880859375 414.68359375 96.103515625 404.51953125 93.2744140625 395.16015625 c 0
 90.4453125 385.803710938 89.8427734375 378.705078125 91.466796875 373.865234375 c 0
 93.091796875 369.02734375 94.1162109375 359.831054688 94.5390625 346.27734375 c 0
 94.962890625 332.629882812 95.2333984375 324.241210938 95.349609375 321.111328125 c 0
 95.470703125 317.916015625 95.3818359375 312.076171875 95.08203125 303.592773438 c 0
 94.7783203125 295.142578125 95.6806640625 289.172851562 97.7890625 285.68359375 c 0
 99.8935546875 282.200195312 101.427734375 280.458984375 102.391601562 280.458984375 c 0
 103.354492188 280.458984375 104.2578125 278.5234375 105.1015625 274.651367188 c 0
 105.943359375 270.77734375 108.471679688 265.517578125 112.685546875 258.872070312 c 0
 116.899414062 252.22265625 119.608398438 244.317382812 120.8125 235.15625 c 0
 122.01953125 225.9765625 123.392578125 218.16796875 124.930664062 211.73046875 c 0
 129.650390625 191.985351562 129.985351562 167.463867188 125.935546875 138.166992188 c 0
 124.686523438 129.134765625 124.39453125 123.650390625 125.05859375 121.713867188 c 0
 125.717773438 119.783203125 126.349609375 114.975585938 126.954101562 107.291015625 c 0
 127.555664062 99.609375 128.733398438 94.7373046875 130.487304688 92.673828125 c 0
 132.212890625 90.640625 133.063476562 87.625 133.0390625 83.6259765625 c 0
 133.014648438 79.6279296875 132.12890625 76.8583984375 130.381835938 75.31640625 c 0
 128.576171875 73.7236328125 127.673828125 69.1201171875 127.673828125 61.505859375 c 0
 127.673828125 53.890625 127.22265625 50.0830078125 126.319335938 50.0830078125 c 0
 125.416015625 50.0830078125 121.232421875 46.279296875 113.767578125 38.671875 c 0
 101.608398438 26.2763671875 89.1474609375 20.8720703125 76.384765625 22.4580078125 c 0
 64.224609375 23.970703125 53.6982421875 31.56640625 44.806640625 45.2451171875 c 2
 38.6416015625 54.7314453125 l 1
 38.8212890625 80.6728515625 l 2
 38.9423828125 97.966796875 39.705078125 107.517578125 41.1083984375 109.326171875 c 0
 43.142578125 111.942382812 43.25390625 119.904296875 41.4423828125 133.211914062 c 0
 39.630859375 146.51953125 37.2802734375 155.012695312 34.3896484375 158.69140625 c 0
 32.01171875 161.717773438 31.109375 183.705078125 31.681640625 224.65234375 c 0
 32.2568359375 265.600585938 33.8994140625 296.334960938 36.6083984375 316.85546875 c 0
 38.6875 332.6015625 38.9833984375 342.215820312 37.49609375 345.69921875 c 0
 35.779296875 349.729492188 34.6953125 358.1171875 34.244140625 370.862304688 c 0
 33.7939453125 383.611328125 34.2763671875 392.259765625 35.69140625 396.807617188 c 0
 37.2958984375 401.969726562 36.05859375 419.328125 31.9794921875 448.883789062 c 0
 30.642578125 458.556640625 29.1015625 466.171875 27.3564453125 471.729492188 c 0
 25.609375 477.28125 24.7060546875 489.864257812 24.646484375 509.478515625 c 0
 24.5869140625 529.08984375 23.9833984375 541.802734375 22.8359375 547.616210938 c 0
 18.32421875 570.4609375 17.7880859375 597.627929688 21.228515625 629.118164062 c 0
 22.7255859375 642.797851562 22.78125 653.4453125 21.396484375 661.059570312 c 0
 19.1689453125 673.3203125 21.490234375 685.129882812 28.3603515625 696.48828125 c 0
 32.810546875 703.846679688 40.9345703125 711.1328125 52.732421875 718.345703125 c 0
EndSplineSet
Validated: 33
EndChar

StartChar: quotedbl
Encoding: 34 34 5
AltUni2: 00201c.ffffffff.0 00201d.ffffffff.0 00201e.ffffffff.0
Width: 306
GlyphClass: 2
Flags: W
LayerCount: 2
Fore
SplineSet
78 676 m 0
 82.6669921875 678.666992188 87.666015625 679.999023438 92.9990234375 679.999023438 c 0
 102.999023438 679.999023438 110.666015625 674.33203125 115.999023438 662.999023438 c 0
 121.33203125 651.666015625 123.999023438 638.333007812 123.999023438 623 c 0
 123.999023438 598.333007812 117.999023438 582.333007812 105.999023438 575 c 0
 99.33203125 571 94.6650390625 553.666992188 91.998046875 523 c 0
 88.6650390625 483.666992188 85.33203125 451.666992188 81.9990234375 427 c 0
 77.33203125 392.333007812 70.33203125 370.333007812 60.9990234375 361 c 0
 50.9990234375 351 44.33203125 346 40.9990234375 346 c 0
 31.666015625 346 23.8330078125 356 17.5 376 c 0
 11.1669921875 396 8 420.666992188 8 450 c 0
 8 452.666992188 8.1669921875 456.666992188 8.5 462 c 0
 8.8330078125 467.333007812 9 471.333007812 9 474 c 0
 11.6669921875 512 20.5 553.166992188 35.5 597.5 c 0
 50.5 641.833007812 64.6669921875 668 78 676 c 0
253.999023438 654.999023438 m 0
 261.33203125 662.33203125 268.002929688 665.997070312 274.002929688 665.997070312 c 0
 281.3359375 665.997070312 288.002929688 662.330078125 294.002929688 654.997070312 c 0
 298.669921875 649.6640625 301.502929688 639.331054688 302.502929688 623.998046875 c 0
 303.502929688 608.665039062 304.002929688 568.665039062 304.002929688 503.998046875 c 0
 303.3359375 430.665039062 301.668945312 382.998046875 299.001953125 360.998046875 c 0
 296.334960938 338.998046875 290.001953125 325.665039062 280.001953125 320.998046875 c 0
 273.334960938 317.665039062 267.66796875 315.998046875 263.000976562 315.998046875 c 0
 256.333984375 315.998046875 248.666992188 319.998046875 240 327.998046875 c 0
 230.666992188 336.665039062 226 350.33203125 226 368.999023438 c 0
 226.666992188 380.999023438 228 395.999023438 230 413.999023438 c 0
 232 431.999023438 233.666992188 448.83203125 235 464.499023438 c 0
 236.333007812 480.166015625 237 497.999023438 237 517.999023438 c 2
 237 539.999023438 l 2
 237 546.666015625 236.833007812 555.166015625 236.5 565.499023438 c 0
 236.166992188 575.83203125 236 582.999023438 236 586.999023438 c 0
 236 608.33203125 237.166992188 622.999023438 239.5 630.999023438 c 0
 241.833007812 638.999023438 246.666015625 646.999023438 253.999023438 654.999023438 c 0
342.002929688 534.997070312 m 0
 342.002929688 539.6640625 344.669921875 541.997070312 350.002929688 541.997070312 c 0
 355.3359375 541.997070312 358.002929688 539.6640625 358.002929688 534.997070312 c 0
 358.002929688 529.6640625 355.3359375 526.997070312 350.002929688 526.997070312 c 0
 344.669921875 526.997070312 342.002929688 529.6640625 342.002929688 534.997070312 c 0
EndSplineSet
Validated: 1
EndChar

StartChar: percent
Encoding: 37 37 8
Width: 853
GlyphClass: 2
Flags: W
LayerCount: 2
Fore
SplineSet
364.75390625 560.87890625 m 0
 363.788085938 564.081054688 362.010742188 567.72265625 359.416015625 571.80078125 c 0
 357.133789062 575.387695312 354.44140625 579.200195312 351.338867188 583.237304688 c 0
 345.875976562 590.344726562 339.4921875 597.397460938 332.186523438 604.39453125 c 0
 325.23046875 611.057617188 318.571289062 616.176757812 312.208984375 619.751953125 c 0
 308.350585938 621.920898438 303.661132812 624.129882812 298.139648438 626.37890625 c 0
 290.581054688 629.456054688 283.81640625 631.27734375 277.844726562 631.841796875 c 0
 276.497070312 631.969726562 274.009765625 632.129882812 270.383789062 632.322265625 c 0
 266.756835938 632.514648438 263.962890625 632.7421875 262.001953125 633.004882812 c 0
 261.21484375 633.110351562 259.833007812 633.3203125 257.856445312 633.635742188 c 0
 255.880859375 633.951171875 254.353515625 634.170898438 253.274414062 634.294921875 c 0
 250.138671875 634.654296875 247.206054688 634.63671875 244.4765625 634.2421875 c 0
 243.209960938 634.05859375 241.436523438 633.693359375 239.15625 633.147460938 c 0
 236.875976562 632.6015625 235.342773438 632.251953125 234.556640625 632.098632812 c 0
 232.36328125 631.669921875 229.638671875 631.333984375 226.383789062 631.090820312 c 0
 219.142578125 630.548828125 210.865234375 629.474609375 201.551757812 627.868164062 c 0
 197.688476562 627.201171875 191.8359375 626.401367188 183.994140625 625.46875 c 0
 176.153320312 624.536132812 170.275390625 623.729492188 166.360351562 623.048828125 c 0
 162.28515625 622.338867188 152.46484375 619.991210938 136.899414062 616.004882812 c 0
 130.91796875 614.47265625 127.423828125 613.567382812 126.41796875 613.288085938 c 0
 123.25 612.41015625 120.494140625 611.491210938 118.151367188 610.53125 c 0
 116.6640625 609.922851562 114.436523438 608.907226562 111.46875 607.484375 c 0
 108.500976562 606.061523438 106.23828125 605.036132812 104.681640625 604.408203125 c 0
 100.021484375 602.528320312 97.4677734375 601.478515625 97.021484375 601.258789062 c 0
 94.3291015625 599.9375 92.1279296875 598.30078125 90.4189453125 596.348632812 c 0
 90.09765625 595.981445312 88.291015625 593.166992188 84.9990234375 587.904296875 c 0
 83.3935546875 585.338867188 81.1337890625 582.893554688 78.2197265625 580.567382812 c 2
 75.2490234375 578.196289062 l 2
 73.1005859375 576.481445312 71.5625 574.7578125 70.6337890625 573.026367188 c 0
 69.708984375 571.30078125 69.068359375 569.268554688 68.7109375 566.928710938 c 0
 68.330078125 564.430664062 68.2587890625 561.071289062 68.49609375 556.849609375 c 0
 69.0810546875 546.491210938 69.3818359375 540.490234375 69.3984375 538.84765625 c 0
 69.4033203125 538.354492188 69.369140625 534.400390625 69.2958984375 526.984375 c 0
 69.2236328125 519.567382812 69.3193359375 515.618164062 69.583984375 515.13671875 c 0
 70.1611328125 507.563476562 72.083984375 499.935546875 75.3525390625 492.252929688 c 0
 75.841796875 491.104492188 76.6376953125 489.275390625 77.7412109375 486.765625 c 0
 78.8447265625 484.255859375 79.677734375 482.333007812 80.2392578125 480.99609375 c 2
 85.0634765625 469.522460938 l 1
 107.057617188 450.065429688 l 2
 111.74609375 445.91796875 115.658203125 442.946289062 118.793945312 441.150390625 c 0
 123.041015625 438.717773438 127.646484375 437.048828125 132.610351562 436.143554688 c 0
 136.328125 435.465820312 146.150390625 435.418945312 162.077148438 436.00390625 c 0
 171.76171875 436.359375 183.8359375 435.529296875 198.299804688 433.513671875 c 0
 206.2421875 432.407226562 212.51171875 431.426757812 217.108398438 430.572265625 c 0
 221.669921875 429.725585938 226.301757812 428.654296875 231.00390625 427.359375 c 0
 236.005859375 425.981445312 239.1640625 425.170898438 240.479492188 424.927734375 c 0
 242.646484375 424.528320312 244.557617188 424.412109375 246.212890625 424.579101562 c 0
 247.911132812 424.75 249.499023438 425.228515625 250.9765625 426.014648438 c 0
 251.458007812 426.271484375 253.110351562 427.438476562 255.93359375 429.516601562 c 0
 258.513671875 431.415039062 261.3359375 432.775390625 264.401367188 433.596679688 c 0
 265.98828125 434.0234375 267.4609375 434.24609375 268.8203125 434.265625 c 0
 270.154296875 434.284179688 271.62890625 434.081054688 273.244140625 433.65625 c 0
 274.854492188 433.233398438 275.734375 433.006835938 275.883789062 432.9765625 c 0
 276.879882812 432.774414062 277.782226562 432.720703125 278.591796875 432.815429688 c 0
 279.770507812 432.953125 280.88671875 433.395507812 281.939453125 434.142578125 c 0
 282.90234375 434.82421875 283.751953125 435.712890625 284.48828125 436.809570312 c 0
 284.950195312 437.498046875 285.68359375 438.947265625 286.688476562 441.157226562 c 0
 287.560546875 443.076171875 288.470703125 444.655273438 289.418945312 445.89453125 c 0
 290.240234375 446.966796875 291.16015625 447.923828125 292.1796875 448.766601562 c 0
 293.501953125 449.859375 294.98828125 450.752929688 296.639648438 451.447265625 c 0
 298.087890625 452.055664062 300.600585938 452.741210938 304.177734375 453.50390625 c 0
 308.09765625 454.338867188 311.395507812 455.379882812 314.072265625 456.625976562 c 0
 315.80078125 457.4296875 318.247070312 458.82421875 321.41015625 460.80859375 c 0
 323.782226562 462.297851562 325.712890625 463.35546875 327.202148438 463.981445312 c 0
 328.744140625 464.629882812 330.936523438 465.25 333.779296875 465.842773438 c 0
 335.125976562 466.123046875 336.147460938 466.37890625 336.84375 466.610351562 c 0
 337.680664062 466.888671875 338.41015625 467.224609375 339.032226562 467.618164062 c 0
 339.965820312 468.208984375 340.745117188 468.977539062 341.37109375 469.924804688 c 0
 341.904296875 470.73046875 342.360351562 471.731445312 342.739257812 472.927734375 c 0
 342.967773438 473.650390625 343.241210938 474.694335938 343.55859375 476.05859375 c 0
 343.875976562 477.422851562 344.080078125 478.27734375 344.170898438 478.622070312 c 0
 344.698242188 480.634765625 345.354492188 482.475585938 346.139648438 484.14453125 c 0
 346.400390625 484.698242188 348.455078125 488.025390625 352.3046875 494.125976562 c 0
 355.053710938 498.48046875 356.892578125 503.154296875 357.821289062 508.147460938 c 0
 358.157226562 509.954101562 358.508789062 512.555664062 358.875976562 515.952148438 c 0
 359.243164062 519.34765625 359.5390625 521.759765625 359.764648438 523.188476562 c 0
 359.864257812 523.8203125 361.422851562 530.046875 364.440429688 541.868164062 c 0
 365.3515625 545.432617188 365.857421875 548.59765625 365.958007812 551.364257812 c 0
 366.077148438 554.6484375 365.67578125 557.8203125 364.75390625 560.87890625 c 0
275.002929688 675.001953125 m 0
 284.08984375 670.069335938 294.168945312 666.12109375 305.231445312 663.165039062 c 0
 307.859375 662.462890625 312.81640625 661.317382812 320.102539062 659.728515625 c 0
 327.388671875 658.139648438 332.969726562 656.73046875 336.844726562 655.500976562 c 0
 341.025390625 654.173828125 344.784179688 652.578125 348.12109375 650.713867188 c 0
 350.709960938 649.267578125 355.209960938 646.1484375 361.62109375 641.357421875 c 0
 370.540039062 634.69140625 375.357421875 631.0625 376.073242188 630.470703125 c 0
 378.981445312 628.064453125 381.841796875 625.416015625 384.655273438 622.526367188 c 0
 387.8359375 619.259765625 390.356445312 616.325195312 392.216796875 613.72265625 c 0
 394.000976562 611.225585938 395.327148438 608.772460938 396.194335938 606.362304688 c 0
 397.0703125 603.927734375 397.658203125 601.049804688 397.95703125 597.728515625 c 0
 398.297851562 593.944335938 398.184570312 590.21875 397.6171875 586.551757812 c 0
 397.034179688 582.77734375 396.731445312 580.765625 396.708984375 580.516601562 c 0
 396.516601562 578.393554688 396.637695312 576.37109375 397.071289062 574.44921875 c 0
 397.13671875 574.159179688 397.663085938 572.424804688 398.650390625 569.24609375 c 0
 399.450195312 566.672851562 399.862304688 564.20703125 399.887695312 561.849609375 c 0
 399.919921875 558.883789062 398.918945312 553.65234375 396.884765625 546.154296875 c 0
 394.905273438 538.858398438 393.900390625 531.600585938 393.870117188 524.379882812 c 0
 393.85546875 521.026367188 393.9609375 516.271484375 394.1875 510.115234375 c 0
 394.415039062 503.958984375 394.545898438 499.708984375 394.580078125 497.366210938 c 0
 394.653320312 492.473632812 394.94140625 487.041015625 395.444335938 481.069335938 c 0
 395.798828125 476.856445312 395.711914062 473.470703125 395.18359375 470.911132812 c 0
 394.791015625 469.009765625 394.076171875 466.845703125 393.038085938 464.41796875 c 0
 391.787109375 461.491210938 390.426757812 458.939453125 388.95703125 456.762695312 c 0
 388.297851562 455.787109375 386.786132812 453.791992188 384.420898438 450.77734375 c 0
 382.79296875 448.701171875 381.556640625 447.223632812 380.711914062 446.34375 c 0
 379.52734375 445.111328125 378.072265625 443.857421875 376.346679688 442.583007812 c 0
 375.634765625 442.057617188 374.40625 441.192382812 372.661132812 439.98828125 c 0
 369.272460938 437.647460938 366.19140625 435.375976562 363.418945312 433.173828125 c 0
 361.607421875 431.734375 358.392578125 429.126953125 353.774414062 425.3515625 c 0
 349.15625 421.576171875 345.565429688 418.694335938 343.001953125 416.70703125 c 0
 340.084960938 414.4453125 333.2109375 408.895507812 322.37890625 400.05859375 c 0
 318.69140625 397.048828125 315.399414062 394.872070312 312.50390625 393.528320312 c 0
 308.942382812 391.875 304.109375 390.676757812 298.004882812 389.93359375 c 0
 293.84375 389.426757812 288.342773438 388.850585938 281.501953125 388.205078125 c 0
 278.372070312 387.91015625 270.32421875 387.344726562 257.357421875 386.5078125 c 0
 248.137695312 385.9140625 238.991210938 385.021484375 229.918945312 383.829101562 c 0
 199.206054688 379.79296875 180.513671875 377.7421875 173.840820312 377.676757812 c 0
 154.595703125 377.490234375 136.317382812 381.264648438 119.004882812 389 c 0
 116.98828125 389.901367188 101.64453125 398.149414062 72.9736328125 413.744140625 c 0
 58.587890625 421.569335938 48.8896484375 427.647460938 43.8779296875 431.978515625 c 0
 40.3359375 435.040039062 37.3505859375 438.314453125 34.921875 441.802734375 c 0
 31.8466796875 446.221679688 28.8056640625 452.698242188 25.798828125 461.232421875 c 0
 22.0771484375 471.80078125 19.2705078125 479.922851562 17.3798828125 485.599609375 c 0
 14.67578125 493.71484375 12.7861328125 500.903320312 11.7109375 507.165039062 c 0
 10.7802734375 512.5859375 10.1591796875 518.866210938 9.84765625 526.006835938 c 0
 9.4765625 534.536132812 9.4169921875 544.154296875 9.66796875 554.861328125 c 0
 9.8291015625 561.713867188 10.0751953125 566.993164062 10.4072265625 570.69921875 c 0
 10.736328125 574.375976562 11.25 577.454101562 11.9482421875 579.93359375 c 0
 12.623046875 582.328125 13.537109375 584.45703125 14.6904296875 586.3203125 c 0
 15.58984375 587.7734375 16.9609375 589.44921875 18.8037109375 591.346679688 c 2
 22.7001953125 595.357421875 l 2
 27.072265625 599.858398438 32.1455078125 603.993164062 37.919921875 607.762695312 c 0
 39.806640625 608.994140625 43.861328125 611.71875 50.0849609375 615.935546875 c 0
 56.30859375 620.153320312 61.162109375 623.336914062 64.6455078125 625.486328125 c 0
 68.5185546875 627.875 73.2861328125 630.536132812 78.94921875 633.470703125 c 0
 88.5341796875 638.434570312 97.265625 642.741210938 105.143554688 646.390625 c 0
 125.162109375 655.665039062 140.626953125 662.651367188 151.538085938 667.349609375 c 0
 159.525390625 670.788085938 166.680664062 672.671875 173.00390625 673.001953125 c 0
 175.801757812 673.147460938 179.861328125 672.985351562 185.182617188 672.514648438 c 0
 190.50390625 672.04296875 193.52734375 671.7890625 194.252929688 671.751953125 c 0
 199.565429688 671.479492188 204.90625 671.78125 210.276367188 672.65625 c 0
 211.751953125 672.896484375 216.994140625 674.01171875 226.002929688 676.001953125 c 0
 236.670898438 678.358398438 246.25390625 679.275390625 254.752929688 678.751953125 c 0
 261.662109375 678.327148438 268.412109375 677.077148438 275.002929688 675.001953125 c 0
571.83984375 -90.02734375 m 0
 575.237304688 -91.89453125 579.263671875 -93.4912109375 583.907226562 -94.8212890625 c 0
 588.112304688 -96.025390625 592.981445312 -97.103515625 598.514648438 -98.0556640625 c 0
 608.770507812 -99.8203125 618.89453125 -100.805664062 628.885742188 -101.010742188 c 0
 638.8203125 -101.21484375 647.779296875 -100.47265625 655.762695312 -98.7841796875 c 0
 661.137695312 -97.646484375 666.448242188 -96.0185546875 671.693359375 -93.900390625 c 0
 677.776367188 -91.4453125 684.458984375 -88.0185546875 691.741210938 -83.62109375 c 0
 699.107421875 -79.1728515625 705.110351562 -75.16015625 709.750976562 -71.5830078125 c 0
 713.854492188 -68.4189453125 717.268554688 -65.0615234375 719.993164062 -61.509765625 c 0
 720.728515625 -60.5498046875 721.787109375 -59.078125 723.168945312 -57.09375 c 0
 724.55078125 -55.109375 725.609375 -53.6376953125 726.344726562 -52.677734375 c 0
 727.841796875 -50.7265625 729.767578125 -48.5009765625 732.123046875 -46.0009765625 c 0
 739.766601562 -37.8876953125 745.580078125 -31.08203125 749.5625 -25.5849609375 c 0
 755.581054688 -17.2734375 761.346679688 -7.791015625 766.859375 2.86328125 c 0
 771.22265625 11.2958984375 774.771484375 17.6025390625 777.504882812 21.783203125 c 0
 777.884765625 22.3642578125 778.846679688 23.806640625 780.389648438 26.1103515625 c 0
 781.932617188 28.4140625 783.1015625 30.201171875 783.895507812 31.4716796875 c 0
 785.537109375 34.099609375 787.0703125 36.8095703125 788.49609375 39.6005859375 c 0
 790.780273438 44.0712890625 792.889648438 48.916015625 794.825195312 54.1357421875 c 0
 796.612304688 58.955078125 798.470703125 64.5 800.399414062 70.7705078125 c 0
 801.756835938 75.181640625 802.821289062 79.7158203125 803.59375 84.3740234375 c 2
 804.258789062 88.38671875 l 2
 804.739257812 91.2861328125 804.729492188 93.755859375 804.229492188 95.7958984375 c 0
 803.728515625 97.837890625 802.783203125 99.9072265625 801.39453125 102.002929688 c 0
 800.004882812 104.099609375 797.657226562 106.80859375 794.3515625 110.12890625 c 0
 787.0859375 117.42578125 782.551757812 121.956054688 780.75 123.71875 c 0
 775.969726562 128.395507812 769.2734375 134.65234375 760.661132812 142.490234375 c 0
 757.91796875 144.987304688 755.509765625 146.938476562 753.436523438 148.34375 c 0
 751.40625 149.720703125 748.685546875 151.203125 745.274414062 152.790039062 c 2
 733.227539062 158.39453125 l 1
 704.2265625 144.134765625 l 2
 696.461914062 140.31640625 689.649414062 136.115234375 683.7890625 131.532226562 c 0
 673.857421875 123.765625 667.388671875 119.0390625 664.381835938 117.352539062 c 0
 659.805664062 114.784179688 652.814453125 112.016601562 643.407226562 109.049804688 c 0
 634.658203125 106.291015625 627.705078125 103.43359375 622.547851562 100.477539062 c 0
 620.276367188 99.17578125 617.151367188 97.166015625 613.171875 94.447265625 c 0
 609.192382812 91.7294921875 606.629882812 90.00390625 605.485351562 89.271484375 c 0
 601.780273438 86.9013671875 597.330078125 84.416015625 592.135742188 81.8154296875 c 0
 587.360351562 79.4248046875 584.268554688 77.79296875 582.861328125 76.9208984375 c 0
 580.848632812 75.673828125 579.245117188 74.390625 578.05078125 73.0712890625 c 0
 576.821289062 71.71484375 575.901367188 70.1943359375 575.290039062 68.509765625 c 0
 575.091796875 67.9658203125 574.61328125 65.853515625 573.853515625 62.1728515625 c 0
 573.159179688 58.8125 571.887695312 55.7060546875 570.040039062 52.8525390625 c 0
 569.080078125 51.369140625 568.068359375 50.1328125 567.004882812 49.1435546875 c 0
 565.958007812 48.169921875 564.640625 47.26953125 563.051757812 46.4423828125 c 0
 561.499023438 45.634765625 560.637695312 45.1806640625 560.467773438 45.080078125 c 0
 559.532226562 44.525390625 558.776367188 43.9189453125 558.19921875 43.259765625 c 0
 557.360351562 42.3037109375 556.7890625 41.1513671875 556.485351562 39.802734375 c 0
 556.20703125 38.5693359375 556.16796875 37.2548828125 556.368164062 35.859375 c 0
 556.494140625 34.9755859375 556.948242188 33.3017578125 557.73046875 30.837890625 c 0
 558.411132812 28.6884765625 558.817382812 26.7841796875 558.94921875 25.125 c 0
 559.063476562 23.6884765625 559.017578125 22.26953125 558.810546875 20.8671875 c 0
 558.541015625 19.0517578125 557.998046875 17.275390625 557.181640625 15.5380859375 c 0
 556.465820312 14.017578125 554.958007812 11.66796875 552.658203125 8.48828125 c 0
 550.142578125 5.0126953125 548.264648438 1.81640625 547.024414062 -1.1005859375 c 0
 546.216796875 -3 545.26953125 -5.8623046875 544.182617188 -9.6884765625 c 0
 543.36328125 -12.5751953125 542.584960938 -14.80078125 541.84765625 -16.365234375 c 0
 541.092773438 -17.966796875 539.793945312 -20.03515625 537.951171875 -22.5693359375 c 0
 537.075195312 -23.7744140625 536.446289062 -24.7119140625 536.063476562 -25.3818359375 c 0
 535.588867188 -26.2109375 535.249023438 -27.001953125 535.04296875 -27.75390625 c 0
 534.73828125 -28.8662109375 534.684570312 -30.03125 534.8828125 -31.2490234375 c 0
 535.028320312 -32.146484375 535.365234375 -33.2705078125 535.893554688 -34.62109375 c 0
 537.081054688 -37.65234375 537.825195312 -39.755859375 538.125976562 -40.9306640625 c 0
 538.482421875 -42.3232421875 538.865234375 -44.521484375 539.274414062 -47.525390625 c 0
 540.0703125 -53.3662109375 541.470703125 -58.1337890625 543.475585938 -61.828125 c 0
 545.3046875 -65.1962890625 548.34375 -69.150390625 552.592773438 -73.6904296875 c 0
 559.990234375 -81.59765625 566.40625 -87.04296875 571.83984375 -90.02734375 c 0
586.525390625 -161.717773438 m 0
 576.50390625 -161.241210938 570.44140625 -160.9296875 568.348632812 -160.776367188 c 0
 564.060546875 -160.462890625 560.231445312 -159.997070312 556.860351562 -159.37890625 c 0
 552.743164062 -158.624023438 549.04296875 -157.668945312 545.759765625 -156.513671875 c 0
 542.737304688 -155.450195312 540.206054688 -154.169921875 538.166015625 -152.672851562 c 0
 536.211914062 -151.239257812 534.146484375 -149.171875 531.969726562 -146.470703125 c 0
 529.534179688 -143.448242188 527.4453125 -140.360351562 525.703125 -137.208007812 c 0
 525.618164062 -137.053710938 525.216796875 -136.30859375 524.5 -134.97265625 c 0
 523.782226562 -133.635742188 523.219726562 -132.62890625 522.8125 -131.951171875 c 0
 521.708007812 -130.116210938 520.49609375 -128.53125 519.17578125 -127.197265625 c 0
 518.434570312 -126.448242188 517.0390625 -125.2421875 514.989257812 -123.579101562 c 0
 512.62890625 -121.6640625 510.822265625 -119.903320312 509.569335938 -118.295898438 c 0
 508.045898438 -116.338867188 506.764648438 -113.994140625 505.724609375 -111.262695312 c 0
 505.459960938 -110.568359375 504.643554688 -108.014648438 503.275390625 -103.6015625 c 0
 501.258789062 -97.0927734375 497.887695312 -90.54296875 493.161132812 -83.9521484375 c 0
 491.110351562 -81.0927734375 488.131835938 -76.984375 484.225585938 -71.6279296875 c 0
 480.3203125 -66.271484375 478.03125 -63.1298828125 477.358398438 -62.203125 c 0
 475.630859375 -59.822265625 472.274414062 -55.5068359375 467.2890625 -49.255859375 c 0
 464.71484375 -46.0263671875 462.879882812 -43.2119140625 461.783203125 -40.8115234375 c 0
 460.862304688 -38.796875 460.154296875 -36.564453125 459.658203125 -34.1142578125 c 0
 459.120117188 -31.4501953125 458.845703125 -28.6240234375 458.834960938 -25.63671875 c 0
 458.829101562 -23.927734375 458.927734375 -21.3837890625 459.129882812 -18.0048828125 c 0
 459.2734375 -15.6123046875 459.453125 -13.736328125 459.668945312 -12.3759765625 c 0
 459.95703125 -10.5546875 460.4296875 -8.6748046875 461.086914062 -6.736328125 c 0
 461.436523438 -5.705078125 461.9609375 -4.314453125 462.661132812 -2.564453125 c 0
 464.416015625 1.826171875 465.732421875 5.4228515625 466.610351562 8.224609375 c 0
 467.438476562 10.87109375 468.604492188 15.0185546875 470.107421875 20.666015625 c 0
 471.610351562 26.3134765625 472.827148438 30.5810546875 473.7578125 33.4697265625 c 0
 477.276367188 44.3896484375 479.805664062 52.8466796875 481.345703125 58.8408203125 c 0
 482.569335938 63.6015625 483.989257812 67.287109375 485.604492188 69.8974609375 c 0
 487.216796875 72.50390625 489.987304688 75.5244140625 493.916015625 78.958984375 c 0
 498.235351562 82.734375 502.943359375 87.0625 508.041015625 91.943359375 c 0
 513.571289062 97.2373046875 519.73046875 102.500976562 526.518554688 107.733398438 c 0
 536.240234375 115.228515625 543.404296875 120.983398438 548.010742188 124.997070312 c 0
 556.5 132.39453125 562.833007812 137.427734375 567.009765625 140.096679688 c 0
 569.084960938 141.422851562 572.100585938 143.172851562 576.056640625 145.345703125 c 0
 580.012695312 147.518554688 582.661132812 149.000976562 584.001953125 149.79296875 c 0
 590.202148438 153.454101562 597.127929688 158.723632812 604.779296875 165.6015625 c 0
 614.416992188 174.263671875 623.192382812 180.87109375 631.10546875 185.423828125 c 0
 640.046875 190.569335938 646.067382812 194.635742188 649.166015625 197.623046875 c 0
 651.282226562 199.6640625 653.405273438 202.149414062 655.53515625 205.078125 c 0
 661.020507812 212.620117188 664.630859375 217.135742188 666.366210938 218.625 c 0
 670.95703125 222.565429688 676.365234375 224.579101562 682.590820312 224.666015625 c 0
 686.47265625 224.719726562 692.244140625 223.640625 699.905273438 221.427734375 c 0
 707.740234375 219.1640625 714.094726562 217.974609375 718.967773438 217.859375 c 0
 724.208984375 217.735351562 730.591796875 218.715820312 738.116210938 220.80078125 c 0
 744.67578125 222.618164062 749.484375 223.611328125 752.541992188 223.780273438 c 0
 755.659179688 223.953125 758.698242188 223.678710938 761.659179688 222.95703125 c 0
 765.4453125 222.034179688 769.392578125 220.270507812 773.501953125 217.666992188 c 0
 775.440429688 216.438476562 778.962890625 213.899414062 784.069335938 210.05078125 c 0
 786.52734375 208.198242188 790.1171875 205.618164062 794.837890625 202.311523438 c 0
 799.55859375 199.005859375 802.939453125 196.6015625 804.979492188 195.098632812 c 0
 811.140625 190.557617188 816.756835938 185.639648438 821.828125 180.34375 c 0
 826.036132812 175.950195312 830.805664062 170.390625 836.13671875 163.665039062 c 0
 841.760742188 156.572265625 846.614257812 149.45703125 850.697265625 142.3203125 c 0
 853.376953125 137.635742188 856.130859375 133.090820312 858.959960938 128.685546875 c 0
 861.025390625 125.469726562 862.411132812 122.71484375 863.1171875 120.420898438 c 0
 863.720703125 118.458984375 864.122070312 116.240234375 864.3203125 113.764648438 c 0
 864.487304688 111.68359375 864.376953125 109.473632812 863.989257812 107.135742188 c 2
 863.07421875 101.619140625 l 2
 861.995117188 95.1142578125 860.043945312 88.455078125 857.220703125 81.6416015625 c 0
 855.948242188 78.572265625 854.064453125 73.837890625 851.568359375 67.4384765625 c 0
 849.071289062 61.0380859375 847.143554688 56.2099609375 845.784179688 52.9541015625 c 0
 842.875976562 45.986328125 838.967773438 37.8056640625 834.05859375 28.412109375 c 0
 830.83203125 22.236328125 827.62109375 16.9970703125 824.42578125 12.6943359375 c 0
 819.209960938 5.669921875 816.310546875 1.6689453125 815.727539062 0.69140625 c 0
 814.551757812 -1.2783203125 813.461914062 -3.486328125 812.458984375 -5.9326171875 c 0
 810.948242188 -9.61328125 810.112304688 -11.625 809.950195312 -11.9677734375 c 0
 808.751953125 -14.4970703125 806.541015625 -17.8203125 803.317382812 -21.9375 c 0
 802.133789062 -23.44921875 799.188476562 -27.498046875 794.48046875 -34.0849609375 c 0
 791.91015625 -37.6806640625 788.609375 -41.7861328125 784.578125 -46.40234375 c 0
 781.048828125 -50.4443359375 778.349609375 -53.7412109375 776.48046875 -56.29296875 c 0
 775.739257812 -57.3037109375 774.684570312 -58.794921875 773.31640625 -60.767578125 c 0
 767.706054688 -68.853515625 761.817382812 -75.8701171875 755.650390625 -81.818359375 c 0
 748.901367188 -88.3271484375 741.439453125 -94.5556640625 733.264648438 -100.50390625 c 0
 733.150390625 -100.586914062 730.565429688 -102.43359375 725.509765625 -106.043945312 c 0
 720.455078125 -109.654296875 716.692382812 -112.422851562 714.221679688 -114.350585938 c 0
 713.141601562 -115.193359375 709.600585938 -118.041992188 703.599609375 -122.896484375 c 0
 696.819335938 -128.380859375 692.676757812 -131.639648438 691.172851562 -132.673828125 c 0
 689.0546875 -134.127929688 687.020507812 -135.169921875 685.069335938 -135.799804688 c 0
 684.65625 -135.93359375 682.166015625 -136.444335938 677.598632812 -137.33203125 c 0
 675.00390625 -137.8359375 672.532226562 -138.654296875 670.18359375 -139.786132812 c 0
 669.258789062 -140.231445312 667.950195312 -140.928710938 666.2578125 -141.877929688 c 0
 664.565429688 -142.827148438 663.580078125 -143.376953125 663.30078125 -143.52734375 c 0
 660.108398438 -145.245117188 655.958984375 -146.961914062 650.853515625 -148.678710938 c 0
 644.663085938 -150.760742188 639.741210938 -152.263671875 636.088867188 -153.186523438 c 0
 627.697265625 -155.30859375 623.255859375 -156.446289062 622.764648438 -156.599609375 c 0
 621.849609375 -156.88671875 620.522460938 -157.328125 618.784179688 -157.924804688 c 0
 617.045898438 -158.521484375 615.765625 -158.951171875 614.943359375 -159.213867188 c 0
 610.8203125 -160.530273438 606.796875 -161.370117188 602.874023438 -161.732421875 c 0
 599.248046875 -162.068359375 593.798828125 -162.063476562 586.525390625 -161.717773438 c 0
528.006835938 544.997070312 m 0
 551.33984375 578.330078125 584.11328125 629.166015625 626.323242188 697.501953125 c 0
 636.779296875 714.499023438 650.008789062 724.938476562 666.01171875 728.8203125 c 0
 680.674804688 732.938476562 695.62109375 730.15625 710.849609375 720.473632812 c 0
 736.288085938 704.15625 749.434570312 679.252929688 750.290039062 645.763671875 c 0
 750.767578125 631.252929688 748.702148438 620.454101562 744.09375 613.368164062 c 0
 732.702148438 597.12109375 717.56640625 582.569335938 698.686523438 569.712890625 c 0
 662.899414062 546.569335938 631.005859375 507.331054688 603.005859375 451.998046875 c 0
 567.672851562 383.331054688 538.672851562 333.331054688 516.005859375 301.998046875 c 0
 502.005859375 282.665039062 472.338867188 239.665039062 427.005859375 172.998046875 c 1
 343.625 34.458984375 l 1
 288.806640625 -44.8984375 l 1
 263.874023438 -90.4326171875 l 1
 229.272460938 -134.365234375 l 1
 175.741210938 -180.125976562 l 2
 169.91796875 -186.04296875 156.845703125 -179.123046875 136.525390625 -159.365234375 c 0
 128.845703125 -151.790039062 124.224609375 -146.891601562 122.661132812 -144.669921875 c 0
 121.557617188 -143.55859375 121.614257812 -134.3828125 122.831054688 -117.143554688 c 0
 124.947265625 -93.0498046875 130.756835938 -76.404296875 140.258789062 -67.2080078125 c 0
 159.423828125 -47.0712890625 169.31640625 -36.9208984375 169.9375 -36.7568359375 c 0
 181.983398438 9.0791015625 211.912109375 63.9873046875 259.723632812 127.967773438 c 0
 328.579101562 219.987304688 365.706054688 270.399414062 371.104492188 279.205078125 c 0
 435.706054688 400.399414062 488.006835938 488.997070312 528.006835938 544.997070312 c 0
EndSplineSet
Validated: 33
EndChar

StartChar: ampersand
Encoding: 38 38 9
Width: 728
GlyphClass: 2
Flags: W
LayerCount: 2
Fore
SplineSet
342 227 m 0
 324.666992188 244.333007812 311.333984375 253.001953125 302.000976562 253.001953125 c 0
 294.000976562 253.001953125 284.333984375 248.334960938 273.000976562 239.001953125 c 0
 259.66796875 228.334960938 251.66796875 222.66796875 249.000976562 222.000976562 c 0
 241.66796875 219.333984375 219.000976562 200.833984375 181.000976562 166.500976562 c 0
 143.000976562 132.16796875 124.000976562 113.000976562 124.000976562 109.000976562 c 0
 124.000976562 102.333984375 128.16796875 97.0009765625 136.500976562 93.0009765625 c 0
 144.833984375 89.0009765625 154.666992188 87.0009765625 166 87.0009765625 c 0
 178 87.0009765625 187.666992188 88.66796875 195 92.0009765625 c 0
 214.333007812 100.000976562 241.333007812 106.66796875 276 112.000976562 c 0
 286.666992188 113.333984375 301.333984375 118.333984375 320.000976562 127.000976562 c 0
 338.66796875 135.66796875 351.000976562 140.000976562 357.000976562 140.000976562 c 0
 364.333984375 140.000976562 371.166992188 142.000976562 377.5 146.000976562 c 0
 383.833007812 150.000976562 387 154.66796875 387 160.000976562 c 0
 387 173.333984375 372 195.666992188 342 227 c 0
261 571.001953125 m 0
 271.666992188 576.334960938 282 579.671875 292 581.004882812 c 0
 302 582.337890625 321.666992188 583.004882812 351 583.004882812 c 2
 361 583.004882812 l 2
 399.666992188 583.004882812 428.833984375 579.837890625 448.500976562 573.504882812 c 0
 468.16796875 567.171875 483.66796875 556.338867188 495.000976562 541.005859375 c 0
 505.000976562 527.005859375 510.000976562 514.338867188 510.000976562 503.005859375 c 0
 510.000976562 490.338867188 505.000976562 478.671875 495.000976562 468.004882812 c 0
 483.000976562 456.004882812 468.000976562 437.337890625 450.000976562 412.004882812 c 0
 432.000976562 386.671875 423.000976562 372.338867188 423.000976562 369.005859375 c 0
 423.000976562 364.338867188 424.66796875 361.005859375 428.000976562 359.005859375 c 0
 432.000976562 356.338867188 440.66796875 346.005859375 454.000976562 328.005859375 c 0
 468.000976562 308.672851562 479.000976562 297.33984375 487.000976562 294.006835938 c 0
 495.66796875 289.33984375 501.66796875 283.33984375 505.000976562 276.006835938 c 0
 508.333984375 268.006835938 515.333984375 264.006835938 526.000976562 264.006835938 c 0
 533.333984375 264.006835938 540.333984375 267.506835938 547.000976562 274.506835938 c 0
 553.66796875 281.506835938 570.000976562 302.33984375 596.000976562 337.006835938 c 0
 621.333984375 371.006835938 649.666992188 388.006835938 681 388.006835938 c 0
 698.333007812 388.006835938 713.5 384.173828125 726.5 376.506835938 c 0
 739.5 368.83984375 746 360.33984375 746 351.006835938 c 0
 746 348.33984375 745.666992188 346.33984375 745 345.006835938 c 0
 739.666992188 323.673828125 733.5 306.673828125 726.5 294.006835938 c 0
 719.5 281.33984375 705.666992188 261.006835938 685 233.006835938 c 0
 654.333007812 190.33984375 638 164.672851562 636 156.005859375 c 0
 636 155.338867188 635.833007812 154.338867188 635.5 153.005859375 c 0
 635.166992188 151.672851562 635 150.672851562 635 150.005859375 c 0
 635 144.005859375 640.666992188 133.338867188 652 118.005859375 c 0
 664 103.338867188 670 92.3388671875 670 85.005859375 c 0
 670 80.3388671875 673.333007812 72.671875 680 62.0048828125 c 0
 686.666992188 51.337890625 690.333984375 44.6708984375 691.000976562 42.00390625 c 0
 691.000976562 41.3369140625 691.16796875 40.169921875 691.500976562 38.5029296875 c 0
 691.833984375 36.8359375 692.000976562 35.6689453125 692.000976562 35.001953125 c 0
 692.000976562 13.6689453125 686.000976562 -2.3310546875 674.000976562 -12.998046875 c 0
 653.333984375 -30.998046875 625.000976562 -39.998046875 589.000976562 -39.998046875 c 0
 567.000976562 -39.998046875 549.833984375 -35.3310546875 537.500976562 -25.998046875 c 0
 525.16796875 -16.6650390625 508.334960938 4.001953125 487.001953125 36.001953125 c 0
 467.001953125 67.3349609375 450.001953125 83.001953125 436.001953125 83.001953125 c 0
 430.668945312 83.001953125 425.668945312 81.6689453125 421.001953125 79.001953125 c 0
 410.334960938 73.001953125 327.66796875 48.001953125 173.000976562 4.001953125 c 0
 144.333984375 -4.6650390625 118.333984375 -8.998046875 95.0009765625 -8.998046875 c 0
 89.66796875 -8.998046875 81.0009765625 -8.3310546875 69.0009765625 -6.998046875 c 0
 50.333984375 -4.998046875 35.0009765625 2.001953125 23.0009765625 14.001953125 c 0
 6.333984375 32.6689453125 -1.9990234375 53.001953125 -1.9990234375 75.001953125 c 0
 -1.9990234375 83.6689453125 -0.9990234375 93.001953125 1.0009765625 103.001953125 c 0
 5.0009765625 126.334960938 13.66796875 147.66796875 27.0009765625 167.000976562 c 0
 40.333984375 186.333984375 68.0009765625 217.000976562 110.000976562 259.000976562 c 2
 187.000976562 336.000976562 l 1
 184.000976562 360.000976562 l 2
 181.333984375 376.66796875 176.666992188 392.334960938 170 407.001953125 c 0
 164.666992188 419.668945312 162 432.668945312 162 446.001953125 c 0
 162 461.334960938 165.666992188 476.334960938 173 491.001953125 c 0
 178.333007812 501.668945312 191 516.001953125 211 534.001953125 c 0
 231 552.001953125 247.666992188 564.334960938 261 571.001953125 c 0
EndSplineSet
Validated: 1
EndChar

StartChar: quotesingle
Encoding: 39 39 10
AltUni2: 002018.ffffffff.0 002019.ffffffff.0 00201a.ffffffff.0
Width: 206
GlyphClass: 2
Flags: W
LayerCount: 2
Fore
SplineSet
118.709960938 737.879882812 m 0
 127.203125 740.259765625 134.485351562 741.451171875 140.551757812 741.451171875 c 0
 150.258789062 741.451171875 158.44921875 738.4765625 165.122070312 732.526367188 c 0
 170.58203125 728.163085938 173.311523438 724.196289062 173.311523438 720.625976562 c 0
 173.311523438 718.24609375 171.794921875 712.494140625 168.76171875 703.37109375 c 0
 165.122070312 691.470703125 162.6953125 676.397460938 161.482421875 658.151367188 c 0
 160.268554688 627.2109375 150.865234375 605.196289062 133.271484375 592.106445312 c 0
 125.385742188 586.94921875 121.442382812 581.59375 121.442382812 576.040039062 c 0
 121.442382812 569.693359375 120.228515625 565.131835938 117.801757812 562.35546875 c 0
 115.982421875 560.372070312 110.826171875 550.653320312 102.333007812 533.200195312 c 0
 97.4794921875 521.697265625 93.6875 514.854492188 90.9580078125 512.672851562 c 0
 88.228515625 510.491210938 83.2236328125 509.400390625 75.943359375 509.400390625 c 0
 66.8427734375 509.400390625 60.6240234375 510.7890625 57.287109375 513.565429688 c 0
 53.9501953125 516.341796875 52.2822265625 521.498046875 52.2822265625 529.034179688 c 0
 52.2822265625 531.810546875 52.888671875 538.35546875 54.1015625 548.668945312 c 0
 57.1357421875 564.53515625 58.65234375 584.169921875 58.65234375 607.573242188 c 0
 58.65234375 621.853515625 59.41015625 631.96875 60.9267578125 637.918945312 c 0
 62.443359375 643.869140625 66.5380859375 652.19921875 73.2109375 662.909179688 c 0
 82.3115234375 676.79296875 89.89453125 692.4609375 95.9609375 709.9140625 c 0
 99.6005859375 720.624023438 102.633789062 727.466796875 105.060546875 730.44140625 c 0
 107.487304688 733.416992188 112.037109375 735.896484375 118.709960938 737.879882812 c 0
EndSplineSet
Validated: 1
EndChar

StartChar: parenleft
Encoding: 40 40 11
Width: 217
GlyphClass: 2
Flags: W
VStem: -14.5684 79.4414<39.7849 325.592> 3.0791 57.3584<30.7198 339.888> 7.87988 67.2314<191.664 383.886> 41.6152 54.7432<347.786 472.492> 135.535 67.2275<580.903 622.509>
LayerCount: 2
Fore
SplineSet
175.630859375 734.665039062 m 4x18
 178.513671875 736.119140625 183.875976562 736.880859375 191.71875 736.951171875 c 4
 199.561523438 737.020507812 207.165039062 734.124023438 214.528320312 728.262695312 c 4
 229.89453125 716.028320312 238.284179688 704.44140625 239.697265625 693.5 c 4
 241.166015625 682.13671875 245.260742188 675.318359375 251.984375 673.044921875 c 4
 254.384765625 672.231445312 255.345703125 666.775390625 254.865234375 656.67578125 c 6
 254.143554688 641.526367188 l 5
 237.45703125 631.53125 l 6
 226.333007812 624.869140625 219.41015625 618.732421875 216.689453125 613.12109375 c 4
 213.967773438 607.509765625 210.966796875 603.79296875 207.684570312 601.96875 c 4
 204.403320312 600.145507812 202.762695312 598.041015625 202.762695312 595.657226562 c 4
 202.762695312 593.2734375 199.881835938 589.662109375 194.12109375 584.822265625 c 4
 188.517578125 580.1171875 184.916015625 577.08984375 183.314453125 575.741210938 c 4
 176.43359375 569.942382812 170.536132812 562.34375 165.623046875 552.943359375 c 4
 162.693359375 547.3359375 158.146484375 541.26953125 151.982421875 534.7421875 c 4
 145.818359375 528.219726562 142.737304688 524.256835938 142.737304688 522.85546875 c 4
 142.737304688 521.452148438 141.537109375 519.908203125 139.13671875 518.2265625 c 4
 136.735351562 516.54296875 135.53515625 514.052734375 135.53515625 510.755859375 c 4
 135.53515625 507.4609375 134.735351562 505.391601562 133.134765625 504.548828125 c 4
 131.533203125 503.70703125 130.732421875 502.0234375 130.732421875 499.499023438 c 4
 130.732421875 496.974609375 130.408203125 494.573242188 125.7578125 486.297851562 c 0
 109.759765625 457.822265625 101.704101562 439.236328125 101.588867188 430.538085938 c 0
 101.543945312 427.032226562 100.560546875 424.436523438 98.6396484375 422.752929688 c 0
 96.71875 421.069335938 95.9580078125 415.388671875 96.3583984375 405.708984375 c 0x18
 96.7578125 396.029296875 95.7177734375 388.594726562 93.2373046875 383.405273438 c 0
 90.7568359375 378.21484375 89.5166015625 371.83203125 89.5166015625 364.2578125 c 0
 89.5166015625 356.68359375 87.99609375 350.40625 84.955078125 345.426757812 c 0
 81.9140625 340.447265625 80.7939453125 335.256835938 81.59375 329.854492188 c 0
 82.39453125 324.455078125 81.5146484375 319.474609375 78.953125 314.916015625 c 0
 76.3916015625 310.35546875 75.111328125 306.918945312 75.111328125 304.60546875 c 0x28
 75.111328125 302.290039062 74.396484375 300.430664062 72.966796875 299.029296875 c 0
 71.466796875 297.555664062 69.4482421875 293.084960938 66.9111328125 285.616210938 c 0
 64.3740234375 278.146484375 63.10546875 272.9375 63.10546875 269.9921875 c 0
 63.10546875 266.625 61.865234375 262.311523438 59.384765625 257.052734375 c 0
 56.9033203125 251.791992188 56.0634765625 247.654296875 56.86328125 244.638671875 c 0
 57.6630859375 241.620117188 58.1826171875 231.029296875 58.4228515625 212.866210938 c 0
 58.6640625 194.697265625 59.5048828125 183.125 60.9443359375 178.1484375 c 0
 62.3857421875 173.166992188 61.9052734375 166.643554688 59.5048828125 158.580078125 c 0
 57.1025390625 150.513671875 57.5830078125 143.60546875 60.9443359375 137.854492188 c 0
 64.3046875 132.103515625 65.4658203125 124.598632812 64.4267578125 115.338867188 c 0
 63.3857421875 106.080078125 62.056640625 99.626953125 60.4375 95.98046875 c 0x48
 58.6953125 92.052734375 60.173828125 80.55078125 64.873046875 61.4736328125 c 0x88
 66.25390625 55.8662109375 68.2255859375 51.3076171875 70.7880859375 47.7958984375 c 0
 73.349609375 44.2880859375 75.1103515625 40.60546875 76.0703125 36.748046875 c 0
 77.0302734375 32.890625 78.5908203125 30.962890625 80.7509765625 30.962890625 c 0
 82.912109375 30.962890625 87.1142578125 28.9990234375 93.3564453125 25.0712890625 c 0
 99.5986328125 21.14453125 104.321289062 18.748046875 107.5234375 17.884765625 c 0
 120.96875 14.2587890625 129.612304688 11.0576171875 133.454101562 8.28125 c 0
 136.014648438 6.4296875 138.896484375 6.2607421875 142.096679688 7.775390625 c 0
 148.979492188 11.0302734375 158.583007812 10.984375 170.909179688 7.6376953125 c 0
 176.709960938 6.064453125 182.791992188 4.4052734375 189.154296875 2.662109375 c 0
 195.556640625 0.908203125 199.798828125 -1.7919921875 201.879882812 -5.439453125 c 0
 203.9609375 -9.0869140625 206.442382812 -11.306640625 209.323242188 -12.1005859375 c 0
 217.646484375 -14.3916015625 219.69921875 -32.2998046875 215.479492188 -65.826171875 c 0
 212.49609375 -89.533203125 196.91796875 -99.4375 168.745117188 -95.5390625 c 0
 149.057617188 -92.8134765625 135.665039062 -89.673828125 128.568359375 -86.12109375 c 0
 121.469726562 -82.5654296875 113.68359375 -75.099609375 105.209960938 -63.7216796875 c 0
 98.1064453125 -54.18359375 92.154296875 -48.6796875 87.3515625 -47.20703125 c 0
 83.8662109375 -46.1396484375 75.7861328125 -40.41015625 63.1103515625 -30.0185546875 c 0
 50.435546875 -19.6279296875 42.8154296875 -12.486328125 40.25 -8.59375 c 0
 38.6806640625 -6.208984375 33.29296875 -0.52734375 24.087890625 8.4501953125 c 0
 14.8837890625 17.4287109375 10.2822265625 24.7578125 10.2822265625 30.4375 c 0
 10.2822265625 36.119140625 9.08203125 39.345703125 6.6796875 40.1162109375 c 0
 4.279296875 40.888671875 3.0791015625 43.6591796875 3.0791015625 48.427734375 c 0x48
 3.0791015625 53.1962890625 1.3984375 57.474609375 -1.962890625 61.2626953125 c 0
 -5.3251953125 65.0498046875 -7.6455078125 75.60546875 -8.92578125 92.9296875 c 0
 -10.20703125 110.254882812 -12.087890625 120.565429688 -14.568359375 123.860351562 c 0x88
 -17.048828125 127.157226562 -18.4501953125 137.643554688 -18.76953125 155.319335938 c 0
 -19.0908203125 172.991210938 -18.6513671875 182.669921875 -17.44921875 184.354492188 c 0
 -13.84765625 189.407226562 -10.3056640625 202.453125 -6.8251953125 223.491210938 c 0
 -5.6640625 230.504882812 -4.3642578125 235.064453125 -2.923828125 237.16796875 c 0
 -1.4833984375 239.272460938 -1.0029296875 250.494140625 -1.4833984375 270.833984375 c 0
 -1.962890625 291.174804688 -0.5224609375 305.0625 2.8388671875 312.49609375 c 0
 6.19921875 319.930664062 7.8798828125 325.787109375 7.8798828125 330.065429688 c 0x28
 7.8798828125 334.34375 10.6015625 338.8671875 16.0439453125 343.63671875 c 0
 21.486328125 348.407226562 25.1689453125 356.227539062 27.0888671875 367.098632812 c 0
 29.009765625 377.969726562 30.25 386.0703125 30.8115234375 391.401367188 c 0
 31.3720703125 396.73046875 33.2919921875 401.7109375 36.5732421875 406.340820312 c 0
 39.85546875 410.96875 41.5361328125 414.965820312 41.615234375 418.333007812 c 0
 41.6953125 421.69921875 43.6953125 426.888671875 47.6171875 433.903320312 c 0
 51.5400390625 440.916015625 53.541015625 445.826171875 53.62109375 448.631835938 c 0
 53.701171875 451.4375 54.9013671875 454.208007812 57.22265625 456.942382812 c 0
 59.54296875 459.678710938 60.7041015625 463.326171875 60.7041015625 467.884765625 c 0
 60.7041015625 472.443359375 62.423828125 477.248046875 65.865234375 482.299804688 c 0
 69.306640625 487.346679688 71.16015625 491.063476562 71.42578125 493.450195312 c 0
 71.8349609375 497.1328125 73.2705078125 501.756835938 75.732421875 507.321289062 c 0
 78.1953125 512.88671875 80.1484375 515.921875 81.5927734375 516.427734375 c 0
 83.5126953125 517.1015625 84.98828125 520.172851562 86.01953125 525.643554688 c 0
 87.7109375 534.62109375 92.1845703125 544.31640625 103.442382812 560.728515625 c 4
 108.830078125 568.581054688 111.524414062 573.876953125 111.524414062 576.614257812 c 4
 111.524414062 579.350585938 113.525390625 581.525390625 117.526367188 583.137695312 c 4
 121.529296875 584.751953125 123.530273438 587.380859375 123.530273438 591.02734375 c 4
 123.530273438 594.674804688 125.530273438 598.603515625 129.532226562 602.811523438 c 4
 133.534179688 607.020507812 135.53515625 611.123046875 135.53515625 615.120117188 c 4
 135.53515625 619.118164062 136.3359375 621.538085938 137.936523438 622.379882812 c 4
 139.536132812 623.220703125 140.336914062 624.694335938 140.336914062 626.798828125 c 4
 140.336914062 628.90234375 142.737304688 634.198242188 147.540039062 642.685546875 c 4
 152.341796875 651.171875 154.743164062 656.327148438 154.743164062 658.150390625 c 4
 154.743164062 659.974609375 155.86328125 661.692382812 158.104492188 663.305664062 c 4
 160.344726562 664.919921875 162.025390625 668.322265625 163.145507812 673.51171875 c 4
 164.267578125 678.703125 165.467773438 682 166.747070312 683.401367188 c 4
 168.02734375 684.803710938 168.040039062 691.466796875 166.786132812 703.390625 c 4
 165 720.364257812 167.948242188 730.7890625 175.630859375 734.665039062 c 4x18
171.549804688 671.723632812 m 4
 171.549804688 674.599609375 170.75 676.03515625 169.149414062 676.03515625 c 4
 167.547851562 676.03515625 166.747070312 675.018554688 166.747070312 672.984375 c 4
 166.747070312 670.950195312 167.547851562 669.512695312 169.149414062 668.670898438 c 4
 169.79296875 668.333007812 170.354492188 668.467773438 170.833007812 669.076171875 c 4
 171.311523438 669.68359375 171.549804688 670.56640625 171.549804688 671.723632812 c 4
35.97265625 108.396484375 m 1
 36.7734375 110.219726562 36.6943359375 111.551757812 35.7333984375 112.39453125 c 1
 34.533203125 109.659179688 l 1
 35.97265625 108.396484375 l 1
EndSplineSet
Validated: 524321
EndChar

StartChar: parenright
Encoding: 41 41 12
Width: 383
GlyphClass: 2
Flags: W
VStem: 211.157 75.8516<137.173 236.112>
LayerCount: 2
Fore
SplineSet
44.43359375 692.479492188 m 4
 41.9619140625 685.708007812 43.30859375 679.8203125 48.486328125 674.821289062 c 4
 56.041015625 663.875 61.6416015625 656.860351562 65.2890625 653.779296875 c 4
 69.150390625 650.955078125 71.7998046875 647.461914062 73.2353515625 643.299804688 c 4
 76.3798828125 635.137695312 90.8291015625 625.52734375 116.580078125 614.470703125 c 4
 124.963867188 610.889648438 131.901367188 607.732421875 137.395507812 604.998046875 c 4
 142.639648438 602.611328125 148.09765625 601.45703125 153.774414062 601.534179688 c 4
 165.057617188 602.2890625 179.473632812 591.8359375 197.018554688 570.171875 c 4
 206.747070312 558.663085938 214.686523438 550.706054688 220.834960938 546.301757812 c 4
 226.928710938 541.895507812 230.056640625 538.811523438 230.220703125 537.049804688 c 4
 230.256835938 535.056640625 233.000976562 531.997070312 238.453125 527.872070312 c 4
 256.178710938 514.311523438 266.223632812 495.86328125 268.586914062 472.53125 c 4
 268.96484375 469.016601562 270.64453125 465.330078125 273.625976562 461.47265625 c 4
 282.567382812 450.229492188 284.206054688 439.758789062 278.541015625 430.059570312 c 4
 275.189453125 424.883789062 274.36328125 418.96484375 276.063476562 412.302734375 c 4
 277.672851562 405.94921875 277.40234375 402.111328125 275.251953125 400.78515625 c 4
 265.961914062 395.90234375 262.236328125 386.95703125 264.073242188 373.94921875 c 4
 264.340820312 372 261.65234375 364.35546875 256.001953125 351.016601562 c 4
 254.692382812 347.700195312 253.624023438 343.91796875 252.802734375 339.672851562 c 4
 251.55078125 333.776367188 251.7734375 328.547851562 253.466796875 323.98828125 c 4
 256.287109375 317.475585938 256.487304688 309.825195312 254.067382812 301.038085938 c 4
 251.551757812 292.012695312 250.916015625 286.173828125 252.158203125 283.516601562 c 4
 253.172851562 280.63671875 250.083007812 273.01953125 242.891601562 260.665039062 c 4
 235.698242188 248.46875 231.662109375 234.833984375 230.783203125 219.764648438 c 4
 229.969726562 205.258789062 226.560546875 191.966796875 220.5546875 179.885742188 c 4
 214.749023438 168.168945312 211.616210938 158.397460938 211.157226562 150.568359375 c 4
 211.147460938 142.686523438 210.958984375 138.204101562 210.59375 137.120117188 c 4
 210.44140625 135.66796875 205.971679688 131.229492188 197.189453125 123.80078125 c 4
 188.4765625 115.9375 182.26171875 109.504882812 178.543945312 104.502929688 c 4
 174.967773438 99.107421875 174.646484375 93.318359375 177.576171875 87.1337890625 c 4
 180.565429688 80.431640625 182.1015625 75.3046875 182.185546875 71.751953125 c 4
 182.3515625 58.3740234375 179.461914062 52.080078125 173.517578125 52.8701171875 c 4
 172.220703125 52.9794921875 170.33984375 50.8876953125 167.874023438 46.5947265625 c 4
 155.401367188 24.4267578125 135.862304688 11.5029296875 109.26171875 7.82421875 c 4
 86.5234375 4.6884765625 71.826171875 0.470703125 65.1728515625 -4.8251953125 c 4
 59.900390625 -8.8984375 53.1875 -11.9208984375 45.0322265625 -13.890625 c 4
 10.6044921875 -22.7958984375 -5.779296875 -41.017578125 -4.12109375 -68.552734375 c 4
 -3.576171875 -82.3232421875 3.513671875 -90.2529296875 17.1494140625 -92.3427734375 c 4
 21.978515625 -93.111328125 26.7333984375 -94.9111328125 31.4150390625 -97.7412109375 c 4
 36.19921875 -100.719726562 43.4287109375 -102.334960938 53.1044921875 -102.583984375 c 4
 62.4453125 -103.284179688 73.1103515625 -100.946289062 85.1025390625 -95.572265625 c 4
 96.7451171875 -90.3740234375 104.646484375 -85.6328125 108.809570312 -81.3486328125 c 4
 112.693359375 -77.080078125 116.056640625 -74.8076171875 118.900390625 -74.53125 c 4
 121.276367188 -74.5498046875 125.91015625 -70.3173828125 132.803710938 -61.8291015625 c 4
 143.658203125 -47.4833984375 158.568359375 -36.2724609375 177.532226562 -28.1953125 c 4
 186.701171875 -24.2236328125 199.0859375 -16.345703125 214.685546875 -4.5634765625 c 4
 224.860351562 3.1171875 229.895507812 7.8232421875 229.791992188 9.5546875 c 4
 229.728515625 10.951171875 232.999023438 14.6962890625 239.604492188 20.791015625 c 4
 243.236328125 24.224609375 249.056640625 34.9765625 257.065429688 53.044921875 c 6
 259.26953125 58.0185546875 l 6
 267.640625 76.802734375 271.84765625 86.703125 271.889648438 87.71875 c 4
 272.717773438 94.9033203125 275.634765625 101.205078125 280.639648438 106.622070312 c 4
 285.504882812 112.356445312 287.625976562 119.237304688 287.008789062 127.266601562 c 4
 286.758789062 135.509765625 288.604492188 144.454101562 292.544921875 154.1015625 c 4
 296.734375 163.678710938 299.08203125 176.26171875 299.586914062 191.854492188 c 4
 300.055664062 207.056640625 301.836914062 219.306640625 304.93359375 228.603515625 c 4
 308.043945312 237.807617188 309.466796875 243.7734375 309.198242188 246.499023438 c 4
 309.165039062 249.40625 311.604492188 253.251953125 316.515625 258.036132812 c 4
 321.541015625 263.151367188 323.944335938 267.891601562 323.7265625 272.255859375 c 4
 323.41015625 277.90625 327.536132812 288.653320312 336.107421875 304.500976562 c 4
 338.862304688 309.290039062 339.943359375 316.696289062 339.34765625 326.720703125 c 4
 338.874023438 336.723632812 340.146484375 344.633789062 343.165039062 350.455078125 c 4
 346.068359375 356.219726562 347.467773438 360.71484375 347.362304688 363.9375 c 4
 347.1328125 366.973632812 348.947265625 370.758789062 352.802734375 375.294921875 c 4
 356.306640625 379.90625 358.564453125 388.1796875 359.577148438 400.116210938 c 4
 360.55859375 412.12109375 362.200195312 420.284179688 364.506835938 424.603515625 c 4
 367.018554688 428.05078125 367.447265625 437.529296875 365.79296875 453.0390625 c 4
 364.774414062 463.124023438 361.702148438 473.376953125 356.572265625 483.798828125 c 4
 349.895507812 498.524414062 344.700195312 508.509765625 340.983398438 513.754882812 c 4
 336.990234375 518.170898438 334.171875 521.415039062 332.528320312 523.486328125 c 4
 331.395507812 524.416992188 329.540039062 528.249023438 326.96484375 534.983398438 c 4
 323.48828125 543.638671875 320.908203125 549.477539062 319.221679688 552.502929688 c 4
 316.424804688 559.92578125 314.7578125 563.50390625 314.217773438 563.239257812 c 4
 301.8125 560.986328125 292.66015625 567.234375 286.760742188 581.983398438 c 4
 285.103515625 586.315429688 280.455078125 591.78515625 272.815429688 598.39453125 c 4
 265.3359375 605.474609375 261.443359375 610.129882812 261.134765625 612.357421875 c 4
 261.209960938 614.509765625 258.66796875 616.462890625 253.510742188 618.215820312 c 4
 248.682617188 619.737304688 244.448242188 622.8046875 240.8046875 627.420898438 c 4
 237.424804688 631.872070312 234.081054688 636.359375 230.775390625 640.879882812 c 4
 224.900390625 649.086914062 214.135742188 656.247070312 198.478515625 662.360351562 c 4
 192.109375 664.577148438 184.924804688 669.318359375 176.922851562 676.586914062 c 4
 160.224609375 692.138671875 151.694335938 700.1875 151.330078125 700.732421875 c 4
 97.576171875 745.030273438 61.943359375 742.279296875 44.43359375 692.479492188 c 4
EndSplineSet
Validated: 524329
EndChar

StartChar: plus
Encoding: 43 43 13
Width: 471
GlyphClass: 2
Flags: W
LayerCount: 2
Fore
SplineSet
205 164 m 1
 202.999023438 133 l 1
 208.33203125 148.333007812 210.999023438 167.333007812 210.999023438 190 c 0
 210.999023438 192 210.83203125 195.166992188 210.499023438 199.5 c 0
 210.166015625 203.833007812 209.999023438 207 209.999023438 209 c 0
 209.999023438 213 211.166015625 218.666992188 213.499023438 226 c 0
 215.83203125 233.333007812 216.999023438 238.666015625 216.999023438 241.999023438 c 0
 216.999023438 265.999023438 209.166015625 290.33203125 193.499023438 314.999023438 c 0
 177.83203125 339.666015625 162.165039062 363.499023438 146.498046875 386.499023438 c 0
 130.831054688 409.499023438 122.998046875 430.999023438 122.998046875 450.999023438 c 0
 122.998046875 468.33203125 124.665039062 476.999023438 127.998046875 476.999023438 c 0
 129.331054688 476.999023438 130.998046875 476.499023438 132.998046875 475.499023438 c 0
 134.998046875 474.499023438 136.665039062 473.999023438 137.998046875 473.999023438 c 0
 142.665039062 473.999023438 149.83203125 475.666015625 159.499023438 478.999023438 c 0
 169.166015625 482.33203125 175.666015625 483.999023438 178.999023438 483.999023438 c 0
 186.33203125 483.999023438 204.33203125 481.83203125 232.999023438 477.499023438 c 0
 261.666015625 473.166015625 275.999023438 469.666015625 275.999023438 466.999023438 c 0
 275.999023438 460.999023438 272.83203125 449.83203125 266.499023438 433.499023438 c 0
 260.166015625 417.166015625 256.999023438 404.999023438 256.999023438 396.999023438 c 0
 256.999023438 374.999023438 267.166015625 338.999023438 287.499023438 288.999023438 c 0
 307.83203125 238.999023438 317.999023438 200.33203125 317.999023438 172.999023438 c 0
 317.999023438 117.666015625 305.666015625 89.9990234375 280.999023438 89.9990234375 c 1
 277.999023438 91.9990234375 l 2
 275.999023438 93.33203125 274.33203125 93.9990234375 272.999023438 93.9990234375 c 0
 266.33203125 93.9990234375 257.499023438 90.83203125 246.499023438 84.4990234375 c 0
 235.499023438 78.166015625 227.33203125 74.9990234375 221.999023438 74.9990234375 c 0
 214.666015625 74.9990234375 208.833007812 79.9990234375 204.5 89.9990234375 c 0
 200.166992188 99.9990234375 198 108.999023438 198 116.999023438 c 0
 198 123.666015625 200.833007812 128.499023438 206.5 131.499023438 c 0
 212.166992188 134.499023438 215 137.33203125 215 139.999023438 c 0
 214.333007812 141.999023438 212.833007812 144.33203125 210.5 146.999023438 c 0
 208.166992188 149.666015625 206.5 152.333007812 205.5 155 c 0
 204.5 157.666992188 204.333007812 160.666992188 205 164 c 1
126.999023438 227 m 2
 222.001953125 83.0009765625 l 1
 212.001953125 98.333984375 206.668945312 118.000976562 206.001953125 142.000976562 c 0
 206.001953125 142.66796875 208.501953125 147.500976562 213.501953125 156.500976562 c 0
 218.501953125 165.500976562 220.668945312 173.333984375 220.001953125 180.000976562 c 0
 219.334960938 183.333984375 220.334960938 188.833984375 223.001953125 196.500976562 c 0
 225.668945312 204.16796875 227.001953125 209.66796875 227.001953125 213.000976562 c 0
 227.001953125 213.66796875 225.668945312 219.66796875 223.001953125 231.000976562 c 0
 220.334960938 242.333984375 219.334960938 251.333984375 220.001953125 258.000976562 c 2
 220.001953125 266.500976562 l 1
 220.001953125 276.500976562 l 1
 220.001953125 283.000976562 l 1
 220.001953125 277.000976562 217.834960938 271.833984375 213.501953125 267.500976562 c 0
 209.168945312 263.16796875 203.668945312 261.000976562 197.001953125 261.000976562 c 2
 189.001953125 261.000976562 l 2
 185.668945312 261.000976562 181.001953125 262.66796875 175.001953125 266.000976562 c 0
 169.001953125 269.333984375 164.334960938 271.000976562 161.001953125 271.000976562 c 0
 158.334960938 271.000976562 155.501953125 268.833984375 152.501953125 264.500976562 c 0
 149.501953125 260.16796875 148.001953125 257.000976562 148.001953125 255.000976562 c 2
 148.001953125 245.000976562 l 2
 148.001953125 235.66796875 136.668945312 225.66796875 114.001953125 215.000976562 c 0
 91.3349609375 204.333984375 75.001953125 199.000976562 65.001953125 199.000976562 c 0
 51.6689453125 199.000976562 41.6689453125 206.16796875 35.001953125 220.500976562 c 0
 28.3349609375 234.833984375 25.001953125 249.666992188 25.001953125 265 c 0
 25.001953125 285 35.6689453125 303.166992188 57.001953125 319.5 c 0
 78.3349609375 335.833007812 104.16796875 348.333007812 134.500976562 357 c 0
 164.833984375 365.666992188 193.666992188 372.166992188 221 376.5 c 0
 248.333007812 380.833007812 271 383 289 383 c 0
 305 383 333.666992188 373.666992188 375 355 c 0
 416.333007812 336.333007812 437 319.333007812 437 304 c 1
 431 303.333007812 427.166992188 299.833007812 425.5 293.5 c 0
 423.833007812 287.166992188 423.5 280.666992188 424.5 274 c 0
 425.5 267.333007812 424.666992188 261.333007812 422 256 c 0
 418 248 412.333007812 244 405 244 c 0
 395.666992188 244 382.5 249.833007812 365.5 261.5 c 0
 348.5 273.166992188 332 279 316 279 c 2
 303 279 l 2
 299.666992188 279 294.5 280 287.5 282 c 0
 280.5 284 275 285 271 285 c 0
 266.333007812 284.333007812 259.833007812 283.833007812 251.5 283.5 c 0
 243.166992188 283.166992188 235.666992188 282.666992188 229 282 c 0
 222.333007812 281.333007812 216 280.333007812 210 279 c 0
 203.333007812 277 192 268.166992188 176 252.5 c 0
 160 236.833007812 147.333007812 229 138 229 c 2
 129 229 l 2
 128.333007812 229 127.666015625 228.333007812 126.999023438 227 c 2
304.435546875 200.526367188 m 0
 315.516601562 197.880859375 314.728515625 190.725585938 302.077148438 179.06640625 c 0
 294.138671875 172.69921875 290.70703125 165.215820312 291.782226562 156.616210938 c 0
 293.022460938 146.693359375 291.493164062 134.745117188 287.193359375 120.770507812 c 0
 282.893554688 106.795898438 277.725585938 97.080078125 271.689453125 91.6220703125 c 0
 263.750976562 85.2548828125 255.8125 81.5751953125 247.874023438 80.5830078125 c 0
 231.3359375 78.515625 219.056640625 85.37890625 211.036132812 101.172851562 c 0
 208.47265625 105.555664062 206.860351562 110.392578125 206.19921875 115.684570312 c 0
 204.793945312 126.930664062 209.258789062 142.26953125 219.594726562 161.702148438 c 0
 229.1875 181.712890625 232.08203125 206.93359375 228.278320312 237.364257812 c 0
 226.541992188 251.255859375 223.689453125 263.328125 219.719726562 273.581054688 c 0
 211.78125 294.087890625 206.696289062 305.209960938 204.463867188 306.946289062 c 0
 201.322265625 310.584960938 199.420898438 315.049804688 198.759765625 320.341796875 c 0
 197.849609375 327.618164062 194.583007812 334.936523438 188.9609375 342.295898438 c 0
 177.383789062 359.661132812 167.916015625 373.594726562 160.556640625 384.095703125 c 0
 136.411132812 421.389648438 123.59375 445.990234375 122.104492188 457.897460938 c 0
 121.7734375 460.543945312 121.897460938 462.239257812 122.4765625 462.983398438 c 0
 125.040039062 474.724609375 134.259765625 481.587890625 150.135742188 483.573242188 c 0
 160.719726562 484.896484375 174.983398438 483.65625 192.927734375 479.852539062 c 0
 211.616210938 475.470703125 223.73046875 471.274414062 229.270507812 467.263671875 c 0
 234.810546875 463.252929688 239.358398438 455.086914062 242.9140625 442.766601562 c 0
 247.37890625 428.543945312 252.463867188 417.421875 258.169921875 409.401367188 c 0
 263.875976562 401.380859375 270.904296875 381.431640625 279.255859375 349.5546875 c 0
 287.607421875 317.677734375 293.189453125 290.493164062 296.000976562 268.000976562 c 0
 297.737304688 254.109375 297.737304688 246.046875 296.000976562 243.813476562 c 0
 292.94140625 241.416015625 291.990234375 235.586914062 293.147460938 226.326171875 c 0
 295.1328125 210.44921875 298.895507812 201.849609375 304.435546875 200.526367188 c 0
327.999023438 353.998046875 m 0
 331.999023438 364.665039062 338.99609375 362.997070312 348.99609375 348.997070312 c 0
 354.329101562 340.330078125 361.329101562 335.997070312 369.99609375 335.997070312 c 0
 379.99609375 335.997070312 391.663085938 332.997070312 404.99609375 326.997070312 c 0
 418.329101562 320.997070312 427.329101562 314.6640625 431.99609375 307.997070312 c 0
 437.329101562 299.330078125 439.99609375 290.997070312 439.99609375 282.997070312 c 0
 439.99609375 266.330078125 431.663085938 254.997070312 414.99609375 248.997070312 c 0
 410.329101562 246.997070312 405.329101562 245.997070312 399.99609375 245.997070312 c 0
 388.663085938 245.997070312 373.99609375 252.330078125 355.99609375 264.997070312 c 0
 337.329101562 276.997070312 312.662109375 282.997070312 281.995117188 282.997070312 c 0
 267.995117188 282.997070312 255.662109375 281.6640625 244.995117188 278.997070312 c 0
 223.662109375 273.6640625 211.995117188 269.997070312 209.995117188 267.997070312 c 0
 205.995117188 265.330078125 201.328125 263.997070312 195.995117188 263.997070312 c 0
 188.662109375 263.997070312 180.995117188 261.6640625 172.995117188 256.997070312 c 0
 154.328125 247.6640625 139.328125 239.997070312 127.995117188 233.997070312 c 0
 87.9951171875 214.6640625 61.9951171875 204.997070312 49.9951171875 204.997070312 c 0
 47.328125 204.997070312 45.6611328125 205.330078125 44.994140625 205.997070312 c 0
 33.6611328125 209.997070312 27.994140625 219.997070312 27.994140625 235.997070312 c 0
 27.994140625 246.6640625 30.994140625 260.6640625 36.994140625 277.997070312 c 0
 43.6611328125 295.997070312 49.328125 307.497070312 53.9951171875 312.497070312 c 0
 58.662109375 317.497070312 67.3291015625 320.997070312 79.99609375 322.997070312 c 0
 94.6630859375 325.6640625 106.330078125 329.331054688 114.997070312 333.998046875 c 0
 123.6640625 338.665039062 144.331054688 343.165039062 176.998046875 347.498046875 c 0
 209.665039062 351.831054688 237.33203125 353.998046875 259.999023438 353.998046875 c 0
 273.999023438 353.998046875 281.999023438 352.998046875 283.999023438 350.998046875 c 0
 285.999023438 347.665039062 291.666015625 345.998046875 300.999023438 345.998046875 c 0
 316.999023438 345.998046875 325.999023438 348.665039062 327.999023438 353.998046875 c 0
EndSplineSet
Validated: 37
EndChar

StartChar: comma
Encoding: 44 44 14
Width: 132
GlyphClass: 2
Flags: W
HStem: -91.9961 66<-45.4277 27.652>
VStem: 52 75.001<0.221067 115.085>
LayerCount: 2
Fore
SplineSet
46 173 m 4
 54 176.333007812 61.66796875 178.002929688 69.0009765625 178.002929688 c 4
 79.66796875 178.002929688 89.66796875 175.169921875 99.0009765625 169.502929688 c 4
 108.333984375 163.8359375 114.666992188 156.002929688 118 146.002929688 c 4
 120.666992188 138.002929688 123.333984375 118.3359375 126.000976562 87.0029296875 c 4
 126.66796875 79.0029296875 127.000976562 70.0029296875 127.000976562 60.0029296875 c 4
 127.000976562 47.3359375 123.000976562 32.0029296875 115.000976562 14.0029296875 c 4
 105.000976562 -6.6640625 98.333984375 -16.9970703125 95.0009765625 -16.9970703125 c 4
 92.333984375 -16.9970703125 91.0009765625 -18.6640625 91.0009765625 -21.9970703125 c 4
 91.0009765625 -25.330078125 86.66796875 -32.6630859375 78.0009765625 -43.99609375 c 4
 70.0009765625 -53.99609375 66.0009765625 -62.6630859375 66.0009765625 -69.99609375 c 4
 66.0009765625 -75.99609375 62.333984375 -81.1630859375 55.0009765625 -85.49609375 c 4
 47.66796875 -89.8291015625 39.66796875 -91.99609375 31.0009765625 -91.99609375 c 6
 26.0009765625 -91.99609375 l 5
 -9.9990234375 -81.99609375 -33.9990234375 -74.6630859375 -45.9990234375 -69.99609375 c 4
 -50.666015625 -68.6630859375 -52.9990234375 -63.6630859375 -52.9990234375 -54.99609375 c 4
 -52.9990234375 -49.6630859375 -51.4990234375 -45.49609375 -48.4990234375 -42.49609375 c 4
 -45.4990234375 -39.49609375 -38.9990234375 -35.99609375 -28.9990234375 -31.99609375 c 4
 -12.9990234375 -24.6630859375 -3.666015625 -21.99609375 -0.9990234375 -23.99609375 c 4
 1.66796875 -25.3291015625 3.66796875 -25.99609375 5.0009765625 -25.99609375 c 4
 8.333984375 -25.99609375 11.6669921875 -24.3291015625 15 -20.99609375 c 4
 18.3330078125 -17.6630859375 21.8330078125 -13.1630859375 25.5 -7.49609375 c 4
 29.1669921875 -1.8291015625 32.1669921875 3.50390625 34.5 8.50390625 c 4
 36.8330078125 13.50390625 39.5 19.1708984375 42.5 25.50390625 c 4
 45.5 31.8369140625 47.3330078125 35.669921875 48 37.0029296875 c 4
 50.6669921875 43.0029296875 52 50.3359375 52 59.0029296875 c 4
 52 76.3359375 45.6669921875 93.6689453125 33 111.001953125 c 4
 24.3330078125 123.668945312 20 131.668945312 20 135.001953125 c 4
 20 138.334960938 22 143.66796875 26 151.000976562 c 4
 32 162.333984375 38.6669921875 169.666992188 46 173 c 4
EndSplineSet
Validated: 524289
EndChar

StartChar: hyphen
Encoding: 45 45 15
Width: 392
GlyphClass: 2
Flags: W
LayerCount: 2
Fore
SplineSet
288 354 m 0
 292 364.666992188 298.997070312 362.999023438 308.997070312 348.999023438 c 0
 314.330078125 340.33203125 321.330078125 335.999023438 329.997070312 335.999023438 c 0
 339.997070312 335.999023438 351.6640625 332.999023438 364.997070312 326.999023438 c 0
 378.330078125 320.999023438 387.330078125 314.666015625 391.997070312 307.999023438 c 0
 397.330078125 299.33203125 399.997070312 290.999023438 399.997070312 282.999023438 c 0
 399.997070312 266.33203125 391.6640625 254.999023438 374.997070312 248.999023438 c 0
 370.330078125 246.999023438 365.330078125 245.999023438 359.997070312 245.999023438 c 0
 348.6640625 245.999023438 333.997070312 252.33203125 315.997070312 264.999023438 c 0
 297.330078125 276.999023438 272.663085938 282.999023438 241.99609375 282.999023438 c 0
 227.99609375 282.999023438 215.663085938 281.666015625 204.99609375 278.999023438 c 0
 183.663085938 273.666015625 171.99609375 269.999023438 169.99609375 267.999023438 c 0
 165.99609375 265.33203125 161.329101562 263.999023438 155.99609375 263.999023438 c 0
 148.663085938 263.999023438 140.99609375 261.666015625 132.99609375 256.999023438 c 0
 114.329101562 247.666015625 99.3291015625 239.999023438 87.99609375 233.999023438 c 0
 47.99609375 214.666015625 21.99609375 204.999023438 9.99609375 204.999023438 c 0
 7.3291015625 204.999023438 5.662109375 205.33203125 4.9951171875 205.999023438 c 0
 -6.337890625 209.999023438 -12.0048828125 219.999023438 -12.0048828125 235.999023438 c 0
 -12.0048828125 246.666015625 -9.0048828125 260.666015625 -3.0048828125 277.999023438 c 0
 3.662109375 295.999023438 9.3291015625 307.499023438 13.99609375 312.499023438 c 0
 18.6630859375 317.499023438 27.330078125 320.999023438 39.9970703125 322.999023438 c 0
 54.6640625 325.666015625 66.3310546875 329.333007812 74.998046875 334 c 0
 83.6650390625 338.666992188 104.33203125 343.166992188 136.999023438 347.5 c 0
 169.666015625 351.833007812 197.333007812 354 220 354 c 0
 234 354 242 353 244 351 c 0
 246 347.666992188 251.666992188 346 261 346 c 0
 277 346 286 348.666992188 288 354 c 0
EndSplineSet
Validated: 1
EndChar

StartChar: period
Encoding: 46 46 16
Width: 63
GlyphClass: 2
Flags: W
LayerCount: 2
Fore
SplineSet
17 16 m 0
 23.6669921875 19.3330078125 27.6669921875 21.0009765625 29 21.0009765625 c 0
 31 21.0009765625 36.3330078125 17.66796875 45 11.0009765625 c 0
 57 1.0009765625 63 -10.33203125 63 -22.9990234375 c 0
 63 -30.33203125 60.6669921875 -35.33203125 56 -37.9990234375 c 0
 50.6669921875 -42.666015625 44.6669921875 -44.9990234375 38 -44.9990234375 c 0
 29.3330078125 -44.9990234375 20.3330078125 -40.33203125 11 -30.9990234375 c 0
 3.6669921875 -23.666015625 0 -17.3330078125 0 -12 c 0
 0 -11.3330078125 0.6669921875 -8.3330078125 2 -3 c 0
 6 5.6669921875 11 12 17 16 c 0
EndSplineSet
Validated: 1
EndChar

StartChar: slash
Encoding: 47 47 17
Width: 412
GlyphClass: 2
Flags: W
LayerCount: 2
Fore
SplineSet
106.197265625 -93.5078125 m 0
 99.3994140625 -109.168945312 90.1376953125 -119.341796875 78.4150390625 -124.028320312 c 0
 66.1376953125 -129.341796875 53.7294921875 -129.096679688 41.1904296875 -123.29296875 c 0
 18.396484375 -113.762695312 4.4833984375 -95.462890625 -0.5478515625 -68.392578125 c 0
 -2.849609375 -56.7958984375 -2.6279296875 -47.82421875 0.1171875 -41.4765625 c 0
 3.3720703125 -33.82421875 13.6181640625 -20.083984375 30.85546875 -0.255859375 c 0
 65.6181640625 41.2490234375 85.8466796875 79.69921875 91.541015625 115.094726562 c 0
 96.513671875 149.032226562 118.116210938 203.099609375 156.34765625 277.297851562 c 0
 174.782226562 313.766601562 191.44921875 341.099609375 206.34765625 359.297851562 c 1
 255 482.000976562 l 1
 293 587.000976562 l 1
 307 627.000976562 l 1
 329 667.000976562 l 1
 366 711.000976562 l 2
 370 716.333984375 381.451171875 712.506835938 400.353515625 699.518554688 c 0
 407.451171875 694.506835938 411.827148438 691.178710938 413.481445312 689.534179688 c 0
 414.494140625 688.51171875 415.673828125 681.114257812 417.020507812 667.341796875 c 0
 418.340820312 647.780273438 415.884765625 633.599609375 409.653320312 624.799804688 c 0
 396.551757812 605.599609375 389.939453125 596.104492188 389.817382812 596.314453125 c 1
 390.606445312 563.438476562 373.8359375 515.22265625 339.505859375 451.66796875 c 0
 337.8359375 448.555664062 314.66796875 403 270.000976562 315 c 0
 246.000976562 267.666992188 232.490234375 240.818359375 229.467773438 234.455078125 c 0
 219.15625 216.151367188 206.32421875 190.462890625 190.970703125 157.389648438 c 0
 175.657226562 125.12890625 165.05859375 104.6484375 159.174804688 95.9482421875 c 0
 153.725585938 87.982421875 149.958984375 80.8935546875 147.875976562 74.681640625 c 0
 134.625976562 43.560546875 125.5546875 7.19140625 120.661132812 -34.42578125 c 0
 118.220703125 -56.80859375 113.399414062 -76.5029296875 106.197265625 -93.5078125 c 0
EndSplineSet
Validated: 33
EndChar

StartChar: zero
Encoding: 48 48 18
Width: 478
GlyphClass: 2
Flags: HMW
VStem: -27.999 72<65.001 127.002 76.001 127.002> 410 124.999<429.333 430.334 423.001 433.333>
LayerCount: 2
Fore
SplineSet
346.75 539.459960938 m 4
 336.436523438 543.70703125 324.000976562 545.829101562 309.440429688 545.829101562 c 4
 280.321289062 545.829101562 254.840820312 540.671875 233.000976562 530.359375 c 4
 220.868164062 524.899414062 206.004882812 512.461914062 188.412109375 493.048828125 c 4
 170.818359375 473.635742188 159.8984375 457.86328125 155.651367188 445.73046875 c 4
 149.584960938 428.13671875 145.337890625 417.82421875 142.911132812 414.791015625 c 4
 129.563476562 392.34375 117.734375 360.190429688 107.420898438 318.331054688 c 4
 99.5341796875 287.998046875 94.07421875 269.495117188 91.041015625 262.822265625 c 4
 88.0078125 256.754882812 84.8232421875 242.346679688 81.486328125 219.596679688 c 4
 78.1484375 196.846679688 76.48046875 178.19140625 76.48046875 163.631835938 c 6
 76.48046875 156.3515625 l 6
 77.087890625 146.0390625 79.36328125 138.303710938 83.3056640625 133.146484375 c 4
 87.2490234375 127.990234375 98.0166015625 117.221679688 115.610351562 100.841796875 c 4
 136.237304688 80.822265625 154.133789062 67.171875 169.30078125 59.8916015625 c 6
 186.590820312 53.521484375 l 5
 222.081054688 87.19140625 l 6
 274.25390625 136.33203125 307.317382812 170.001953125 321.26953125 188.202148438 c 4
 335.830078125 207.615234375 347.962890625 221.567382812 357.669921875 230.060546875 c 4
 366.76953125 238.553710938 372.381835938 245.076171875 374.504882812 249.625976562 c 4
 376.627929688 254.17578125 377.690429688 261.000976562 377.690429688 270.100585938 c 4
 377.690429688 283.448242188 381.330078125 293.760742188 388.610351562 301.041015625 c 4
 393.462890625 305.893554688 395.889648438 310.444335938 395.889648438 314.690429688 c 4
 395.889648438 318.331054688 394.676757812 323.48828125 392.25 330.161132812 c 4
 389.823242188 336.833984375 388.610351562 342.596679688 388.610351562 347.450195312 c 4
 388.610351562 352.302734375 390.4296875 360.190429688 394.0703125 371.110351562 c 4
 398.922851562 383.849609375 401.349609375 395.376953125 401.349609375 405.690429688 c 4
 401.349609375 413.577148438 403.169921875 421.766601562 406.809570312 430.259765625 c 4
 408.629882812 433.900390625 409.540039062 437.237304688 409.540039062 440.26953125 c 4
 409.540039062 444.516601562 406.203125 455.740234375 399.530273438 473.940429688 c 4
 386.182617188 508.51953125 368.58984375 530.360351562 346.75 539.459960938 c 4
421 633 m 24
 446.999023438 583.998046875 433.325195312 605.615234375 454.999023438 580.001953125 c 0
 469.666015625 562.668945312 490.999023438 509.501953125 494.999023438 502.501953125 c 0
 498.999023438 495.501953125 501.666015625 486.001953125 502.999023438 474.001953125 c 0
 504.33203125 463.334960938 504.999023438 454.66796875 504.999023438 448.000976562 c 0
 504.999023438 440.000976562 504.33203125 433.333984375 502.999023438 428.000976562 c 0
 501.666015625 422.66796875 499.166015625 398.16796875 495.499023438 354.500976562 c 0
 491.83203125 310.833984375 501 299.000976562 472 222 c 24
 463 197.000976562 406.797851562 105.458984375 401 95.9990234375 c 0
 388.333007812 75.33203125 365.333007812 46.33203125 332 8.9990234375 c 0
 320 -4.333984375 309.666992188 -19.6669921875 301 -37 c 0
 285.666992188 -69 261.666992188 -92.3330078125 229 -107 c 0
 215 -112.333007812 202.666992188 -115 192 -115 c 0
 171.333007812 -115 145.333007812 -106 114 -88 c 0
 88.6669921875 -73.3330078125 67.833984375 -58.166015625 51.5009765625 -42.4990234375 c 0
 35.16796875 -26.83203125 18.0009765625 -5.33203125 0.0009765625 22.0009765625 c 0
 -12.666015625 40.66796875 -20.4990234375 53.5009765625 -23.4990234375 60.5009765625 c 0
 -26.4990234375 67.5009765625 -27.9990234375 76.0009765625 -27.9990234375 86.0009765625 c 2
 -27.9990234375 97.0009765625 l 2
 -26.666015625 123.000976562 -22.166015625 156.333984375 -14.4990234375 197.000976562 c 0
 -6.83203125 237.66796875 0.3349609375 266.000976562 7.001953125 282.000976562 c 0
 15.6689453125 303.333984375 20.001953125 316.666992188 20.001953125 322 c 0
 20.001953125 327.333007812 23.1689453125 338.666015625 29.501953125 355.999023438 c 0
 35.8349609375 373.33203125 43.001953125 391.165039062 51.001953125 409.498046875 c 0
 59.001953125 427.831054688 63.3349609375 438.331054688 64.001953125 440.998046875 c 0
 77.3349609375 477.665039062 93.66796875 507.665039062 113.000976562 530.998046875 c 0
 133.000976562 557.665039062 145.66796875 575.33203125 151.000976562 583.999023438 c 0
 164.333984375 604.666015625 172.333984375 614.999023438 175.000976562 614.999023438 c 0
 179.000976562 614.999023438 189.000976562 622.33203125 205.000976562 636.999023438 c 0
 215.000976562 646.33203125 227.500976562 655.499023438 242.500976562 664.499023438 c 0
 257.500976562 673.499023438 267.333984375 679.666015625 272.000976562 682.999023438 c 0
 279.333984375 688.33203125 293.000976562 692.999023438 313.000976562 696.999023438 c 0
 334.333984375 700.33203125 349 702.002929688 357 702.002929688 c 0
 369.666992188 702.002929688 379.333984375 699.669921875 386.000976562 695.002929688 c 0
 392.66796875 690.3359375 414.999023438 644.998046875 421 633 c 24
EndSplineSet
Validated: 524289
EndChar

StartChar: one
Encoding: 49 49 19
Width: 171
GlyphClass: 2
Flags: W
LayerCount: 2
Fore
SplineSet
-1 675 m 0
 6.3330078125 689.666992188 12.3359375 696.99609375 17.0029296875 696.99609375 c 0
 22.3359375 696.99609375 31.0029296875 694.163085938 43.0029296875 688.49609375 c 0
 55.0029296875 682.829101562 62.669921875 677.99609375 66.0029296875 673.99609375 c 0
 70.0029296875 669.329101562 74.669921875 666.99609375 80.0029296875 666.99609375 c 0
 86.669921875 666.99609375 98.3369140625 670.99609375 115.00390625 678.99609375 c 0
 127.670898438 684.99609375 137.00390625 687.99609375 143.00390625 687.99609375 c 0
 149.670898438 687.99609375 155.00390625 682.99609375 159.00390625 672.99609375 c 0
 162.336914062 666.329101562 164.00390625 652.99609375 164.00390625 632.99609375 c 0
 164.00390625 613.663085938 162.336914062 603.330078125 159.00390625 601.997070312 c 0
 157.00390625 600.6640625 155.670898438 601.997070312 155.00390625 605.997070312 c 0
 154.336914062 608.6640625 154.00390625 611.997070312 154.00390625 615.997070312 c 0
 154.00390625 631.997070312 146.670898438 639.997070312 132.00390625 639.997070312 c 0
 130.00390625 639.997070312 129.00390625 635.997070312 129.00390625 627.997070312 c 0
 129.00390625 613.997070312 131.670898438 594.6640625 137.00390625 569.997070312 c 0
 138.336914062 565.997070312 139.00390625 557.997070312 139.00390625 545.997070312 c 0
 139.00390625 531.997070312 138.336914062 521.6640625 137.00390625 514.997070312 c 0
 135.670898438 505.6640625 135.00390625 497.331054688 135.00390625 489.998046875 c 0
 135.00390625 456.665039062 141.00390625 417.33203125 153.00390625 371.999023438 c 0
 153.00390625 371.33203125 154.336914062 363.665039062 157.00390625 348.998046875 c 0
 157.00390625 346.331054688 157.836914062 341.6640625 159.50390625 334.997070312 c 0
 161.170898438 328.330078125 162.00390625 323.330078125 162.00390625 319.997070312 c 0
 162.00390625 315.997070312 161.00390625 312.6640625 159.00390625 309.997070312 c 0
 157.00390625 307.330078125 155.00390625 305.997070312 153.00390625 305.997070312 c 0
 145.00390625 305.997070312 141.00390625 314.6640625 141.00390625 331.997070312 c 0
 141.00390625 336.6640625 141.336914062 339.997070312 142.00390625 341.997070312 c 0
 144.670898438 355.330078125 143.00390625 361.997070312 137.00390625 361.997070312 c 0
 132.336914062 361.997070312 128.169921875 357.6640625 124.502929688 348.997070312 c 0
 120.8359375 340.330078125 119.002929688 329.997070312 119.002929688 317.997070312 c 0
 119.002929688 309.330078125 120.002929688 300.997070312 122.002929688 292.997070312 c 0
 124.002929688 286.330078125 126.3359375 273.330078125 129.002929688 253.997070312 c 0
 129.669921875 243.997070312 132.336914062 238.997070312 137.00390625 238.997070312 c 0
 141.00390625 238.997070312 143.670898438 244.330078125 145.00390625 254.997070312 c 0
 146.336914062 266.330078125 149.669921875 272.330078125 155.002929688 272.997070312 c 2
 157.002929688 272.997070312 l 2
 161.669921875 272.997070312 164.002929688 261.330078125 164.002929688 237.997070312 c 0
 164.002929688 216.6640625 163.669921875 197.331054688 163.002929688 179.998046875 c 0
 162.3359375 162.665039062 162.002929688 140.998046875 162.002929688 114.998046875 c 0
 162.002929688 82.3310546875 163.669921875 56.998046875 167.002929688 38.998046875 c 0
 172.3359375 5.6650390625 175.002929688 -23.001953125 175.002929688 -47.001953125 c 0
 175.002929688 -66.3349609375 174.169921875 -78.66796875 172.502929688 -84.0009765625 c 0
 170.8359375 -89.333984375 166.3359375 -95.6669921875 159.002929688 -103 c 0
 147.669921875 -113 138.669921875 -118 132.002929688 -118 c 0
 125.3359375 -118 114.502929688 -111.5 99.5029296875 -98.5 c 0
 84.5029296875 -85.5 76.0029296875 -75.3330078125 74.0029296875 -68 c 0
 71.3359375 -59.3330078125 64.6689453125 -51.3330078125 54.001953125 -44 c 0
 43.3349609375 -37.3330078125 36.66796875 -31.666015625 34.0009765625 -26.9990234375 c 0
 31.333984375 -23.666015625 30.0009765625 -14.9990234375 30.0009765625 -0.9990234375 c 0
 30.0009765625 17.0009765625 31.66796875 27.0009765625 35.0009765625 29.0009765625 c 0
 39.0009765625 31.66796875 41.0009765625 37.3349609375 41.0009765625 46.001953125 c 0
 41.0009765625 53.3349609375 39.66796875 56.66796875 37.0009765625 56.0009765625 c 0
 36.333984375 56.0009765625 35.333984375 55.333984375 34.0009765625 54.0009765625 c 0
 29.333984375 49.333984375 24.0009765625 47.0009765625 18.0009765625 47.0009765625 c 0
 14.0009765625 47.0009765625 11.5009765625 48.16796875 10.5009765625 50.5009765625 c 0
 9.5009765625 52.833984375 9.66796875 57.333984375 11.0009765625 64.0009765625 c 0
 12.333984375 72.0009765625 13.833984375 76.66796875 15.5009765625 78.0009765625 c 0
 17.16796875 79.333984375 21.66796875 79.6669921875 29.0009765625 79 c 2
 45.0009765625 78 l 1
 43.0009765625 121 l 2
 42.333984375 127 41.6669921875 135 41 145 c 0
 40.3330078125 155 39.8330078125 163.5 39.5 170.5 c 0
 39.1669921875 177.5 38.6669921875 183 38 187 c 0
 36 201.666992188 36.6669921875 211.333984375 40 216.000976562 c 0
 42.6669921875 220.000976562 46 222.000976562 50 222.000976562 c 0
 58.6669921875 222.000976562 63.6669921875 217.333984375 65 208.000976562 c 0
 66.3330078125 200.66796875 69.666015625 197.000976562 74.9990234375 197.000976562 c 0
 79.666015625 197.000976562 80.9990234375 204.333984375 78.9990234375 219.000976562 c 0
 78.33203125 223.66796875 77.4990234375 232.500976562 76.4990234375 245.500976562 c 0
 75.4990234375 258.500976562 74.666015625 267.333984375 73.9990234375 272.000976562 c 0
 72.666015625 286.000976562 66.3330078125 307.000976562 55 335.000976562 c 0
 43.6669921875 363.000976562 37 381.66796875 35 391.000976562 c 0
 34.3330078125 394.333984375 33.3330078125 399.000976562 32 405.000976562 c 0
 30.6669921875 411.000976562 29.5 416.16796875 28.5 420.500976562 c 0
 27.5 424.833984375 26.6669921875 428.333984375 26 431.000976562 c 0
 24.6669921875 434.333984375 24 441.666992188 24 453 c 0
 24 463 24.3330078125 470.333007812 25 475 c 0
 26.3330078125 484.333007812 27 490.333007812 27 493 c 0
 27 504.333007812 21.6669921875 522.333007812 11 547 c 0
 -3 581 -10 610 -10 634 c 0
 -10 650 -7 663.666992188 -1 675 c 0
EndSplineSet
Validated: 1
EndChar

StartChar: two
Encoding: 50 50 20
Width: 478
GlyphClass: 2
Flags: W
VStem: 322.313 17.6514<94.2085 120.709>
LayerCount: 2
Fore
SplineSet
324.299804688 744.594726562 m 0
 332.509765625 746.522460938 342.59765625 746.931640625 354.547851562 745.840820312 c 0
 369.817382812 744.446289062 386.171875 740.275390625 403.612304688 733.327148438 c 0
 419.786132812 727.1640625 430.783203125 721.138671875 436.60546875 715.251953125 c 0
 442.427734375 709.365234375 447.41796875 699.87109375 451.577148438 686.772460938 c 0
 460.376953125 658.521484375 464.291015625 639.084960938 463.321289062 628.461914062 c 0
 462.533203125 619.831054688 459.1484375 608.424804688 453.166992188 594.244140625 c 0
 444.466796875 572.27734375 434.984375 556.408203125 424.71875 546.633789062 c 0
 415.178710938 537.463867188 410.256835938 531.21875 409.954101562 527.900390625 c 0
 409.58984375 523.916992188 397.029296875 511.004882812 372.2734375 489.166015625 c 0
 347.517578125 467.327148438 330.21875 450.163085938 320.375 437.672851562 c 0
 310.470703125 424.51953125 302.139648438 417.58203125 295.37890625 416.861328125 c 0
 287.893554688 415.536132812 268.356445312 388.534179688 236.767578125 335.856445312 c 0
 206.870117188 287.040039062 186.876953125 251.376953125 176.788085938 228.868164062 c 0
 166.698242188 206.358398438 160.653320312 184.1484375 158.65234375 162.239257812 c 0
 157.37890625 148.297851562 157.193359375 138.943359375 158.096679688 134.173828125 c 0
 159 129.40625 161.956054688 125.120117188 166.963867188 121.315429688 c 0
 185.91015625 108.874023438 202.923828125 102.86328125 264.002929688 97.2841796875 c 2
 278.940429688 95.919921875 l 1
 320.948242188 94.091796875 l 1
 322.313476562 109.029296875 l 2
 322.858398438 115.004882812 323.885742188 118.927734375 325.396484375 120.797851562 c 0
 326.905273438 122.66796875 329.290039062 123.120117188 332.548828125 122.153320312 c 0
 338.403320312 120.279296875 340.875 114.36328125 339.96484375 104.405273438 c 0
 339.962890625 97.041015625 340.880859375 92.4384765625 342.720703125 90.59765625 c 0
 344.560546875 88.7568359375 350.701171875 86.35546875 361.141601562 83.3935546875 c 0
 388.418945312 74.20703125 418.443359375 65.775390625 451.213867188 58.0966796875 c 0
 459.663085938 55.31640625 470.5234375 45.9560546875 483.794921875 30.015625 c 0
 497.067382812 14.076171875 506.748046875 -0.8662109375 512.836914062 -14.810546875 c 0
 517.720703125 -27.306640625 519.678710938 -38.8662109375 518.708007812 -49.48828125 c 0
 517.434570312 -63.4306640625 511.181640625 -76.91796875 499.94921875 -89.9501953125 c 0
 493.91015625 -97.431640625 484.974609375 -103.64453125 473.141601562 -108.588867188 c 0
 461.309570312 -113.534179688 450.74609375 -115.581054688 441.451171875 -114.732421875 c 0
 430.165039062 -113.701171875 411.702148438 -99.6298828125 386.061523438 -72.5185546875 c 0
 367.118164062 -52.712890625 339.056640625 -41.11328125 301.877929688 -37.7177734375 c 0
 294.575195312 -37.0498046875 278.912109375 -36.2890625 254.890625 -35.4345703125 c 0
 205.51953125 -33.6025390625 196.047851562 -36.6494140625 180.474609375 -38.5732421875 c 0
 164.901367188 -40.498046875 143.260742188 -46.5546875 115.552734375 -56.7421875 c 0
 79.4521484375 -70.8515625 54.431640625 -77.26953125 40.490234375 -75.99609375 c 0
 21.2373046875 -74.23828125 3.0751953125 -60.529296875 -13.9951171875 -34.8701171875 c 0
 -25.7578125 -17.0595703125 -31.123046875 -2.51171875 -30.091796875 8.7744140625 c 0
 -29.2431640625 18.0693359375 -24.19921875 29.3232421875 -14.958984375 42.537109375 c 0
 -6.564453125 53.8212890625 4.1884765625 76.2685546875 17.30078125 109.8828125 c 0
 46.7890625 190.869140625 79.322265625 264.8828125 114.901367188 331.92578125 c 0
 125.350585938 351.0546875 130.727539062 362.279296875 131.030273438 365.599609375 c 0
 131.333007812 368.918945312 137.040039062 376.431640625 148.150390625 388.135742188 c 0
 157.811523438 398.634765625 174.479492188 421.71484375 198.155273438 457.375976562 c 0
 221.830078125 493.037109375 236.32421875 514.306640625 241.637695312 521.185546875 c 0
 270.201171875 555.396484375 285.240234375 580.799804688 286.755859375 597.3984375 c 0
 288.029296875 611.33984375 281.6953125 618.947265625 267.75390625 620.220703125 c 0
 249.1640625 621.918945312 233.739257812 614.290039062 221.479492188 597.334960938 c 0
 214.594726562 587.921875 201.189453125 573.080078125 181.263671875 552.80859375 c 0
 162.061523438 533.140625 150.572265625 519.126953125 146.796875 510.768554688 c 0
 143.020507812 502.411132812 137.624023438 478.133789062 130.606445312 437.939453125 c 0
 124.91796875 404.986328125 110.635742188 384.19921875 87.755859375 375.578125 c 0
 74.53515625 370.090820312 61.94921875 367.893554688 49.9990234375 368.985351562 c 0
 24.7705078125 371.2890625 6.580078125 388.34765625 -4.572265625 420.161132812 c 0
 -7.767578125 429.155273438 -9.001953125 437.635742188 -8.2744140625 445.602539062 c 0
 -7.0615234375 458.880859375 3.84375 482.989257812 24.4404296875 517.926757812 c 0
 41.7138671875 545.8046875 50.501953125 561.403320312 50.8056640625 564.723632812 c 0
 51.3505859375 570.698242188 58.2509765625 580.276367188 71.505859375 593.459960938 c 0
 84.7587890625 606.642578125 97 616.068359375 108.228515625 621.736328125 c 0
 122.295898438 629.155273438 139.622070312 635.606445312 160.206054688 641.090820312 c 0
 184.23046875 647.598632812 206.823242188 656.748046875 227.983398438 668.5390625 c 0
 249.143554688 680.331054688 261.868164062 691.385742188 266.158203125 701.704101562 c 0
 269.662109375 710.756835938 277.33203125 719.595703125 289.165039062 728.221679688 c 0
 300.999023438 736.84765625 312.7109375 742.305664062 324.299804688 744.594726562 c 0
EndSplineSet
Validated: 524321
EndChar

StartChar: three
Encoding: 51 51 21
Width: 603
GlyphClass: 2
Flags: W
HStem: -47.6768 88.6846<102.374 382.276>
LayerCount: 2
Fore
SplineSet
469 565 m 0
 458.490234375 570.73046875 435.99609375 578.09765625 432 581 c 0
 428.486328125 583.551757812 406.302734375 591.376953125 397.833007812 591.588867188 c 0
 389.36328125 591.80078125 381.965820312 594.418945312 375.638671875 599.44140625 c 0
 369.3125 604.465820312 363.634765625 607.495117188 358.606445312 608.528320312 c 0
 353.577148438 609.5625 349.018554688 611.126953125 344.931640625 613.223632812 c 0
 340.842773438 615.319335938 335.143554688 616.826171875 327.833007812 617.741210938 c 0
 320.521484375 618.66015625 314.44921875 620.655273438 309.616210938 623.7265625 c 0
 304.783203125 626.797851562 292.984375 628.869140625 274.219726562 629.940429688 c 0
 255.45703125 631.010742188 243.84765625 633.275390625 239.392578125 636.735351562 c 0
 234.936523438 640.194335938 226.409179688 643.4921875 213.810546875 646.62890625 c 0
 201.212890625 649.764648438 192.14453125 652.930664062 186.60546875 656.126953125 c 0
 182.608398438 658.434570312 176.453125 660.657226562 168.139648438 662.793945312 c 0
 159.827148438 664.930664062 154.185546875 665.7421875 151.212890625 665.2265625 c 0
 149.232421875 664.8828125 139.256835938 663.567382812 121.270507812 661.268554688 c 0
 103.275390625 658.966796875 91.134765625 657.014648438 84.8486328125 655.415039062 c 0
 77.4560546875 653.532226562 69.216796875 648.493164062 60.130859375 640.297851562 c 0
 51.0458984375 632.102539062 44.44140625 623.750976562 40.3173828125 615.244140625 c 0
 35.46484375 605.234375 31.15625 597.087890625 27.392578125 590.805664062 c 0
 23.6318359375 584.528320312 20.3369140625 575.00390625 17.5068359375 562.234375 c 0
 14.673828125 549.4609375 12.3154296875 541.275390625 10.4306640625 537.677734375 c 0
 -0.3798828125 517.030273438 -2.181640625 499.610351562 5.0244140625 485.416015625 c 0
 8.2197265625 479.126953125 12.1474609375 475.1328125 16.8095703125 473.435546875 c 0
 21.4814453125 471.735351562 26.2587890625 469.760742188 31.142578125 467.512695312 c 0
 36.0263671875 465.265625 45.2138671875 464.831054688 58.705078125 466.209960938 c 0
 72.1982421875 467.58984375 81.32421875 469.897460938 86.0849609375 473.129882812 c 0
 90.89453125 476.396484375 107.103515625 478.584960938 134.711914062 479.697265625 c 0
 141.465820312 479.969726562 147.936523438 477.958984375 154.125976562 473.665039062 c 0
 160.31640625 469.374023438 172.501953125 467.506835938 190.68359375 468.065429688 c 0
 208.865234375 468.625 221.076171875 469.202148438 227.317382812 469.796875 c 0
 233.555664062 470.391601562 237.290039062 469.383789062 238.517578125 466.772460938 c 0
 239.74609375 464.163085938 243.188476562 463.002929688 248.845703125 463.291992188 c 0
 254.502929688 463.580078125 258.26171875 463.041992188 260.122070312 461.674804688 c 0
 262.79296875 459.715820312 268.908203125 457.541015625 278.466796875 455.150390625 c 0
 288.026367188 452.76171875 294.208984375 451.86328125 297.014648438 452.456054688 c 0
 300.560546875 453.203125 304.846679688 452.091796875 309.872070312 449.122070312 c 0
 314.900390625 446.15234375 320.043945312 444.801757812 325.3046875 445.0703125 c 0
 330.565429688 445.338867188 335.596679688 443.291015625 340.396484375 438.927734375 c 0
 345.196289062 434.564453125 348.88671875 432.44921875 351.467773438 432.580078125 c 0
 353.80078125 432.69921875 358.1953125 430.538085938 364.65234375 426.096679688 c 0
 371.109375 421.657226562 375.325195312 417.897460938 377.297851562 414.81640625 c 0
 379.35546875 411.603515625 379.415039062 401.38671875 363.475585938 384.166992188 c 0
 347.537109375 366.946289062 339.606445312 357.553710938 339.686523438 355.9921875 c 0
 339.765625 354.430664062 336.377929688 350.442382812 333.520507812 344.02734375 c 0
 331.510742188 339.518554688 329.586914062 336.751953125 327.748046875 335.727539062 c 0
 325.909179688 334.704101562 316.640625 334.020507812 309.942382812 333.678710938 c 0
 300.413085938 333.192382812 294.388671875 334.221679688 291.870117188 336.765625 c 0
 289.352539062 339.309570312 284.456054688 340.673828125 277.182617188 340.85546875 c 0
 269.908203125 341.037109375 265.810546875 343.31640625 264.892578125 347.694335938 c 0
 263.970703125 352.07421875 261.162109375 356.401367188 256.466796875 360.676757812 c 0
 253.08984375 363.752929688 250.573242188 365.365234375 248.916992188 365.513671875 c 0
 247.259765625 365.661132812 243.877929688 364.577148438 238.771484375 362.262695312 c 0
 231.670898438 359.041992188 228.275390625 354.3984375 228.584960938 348.331054688 c 0
 228.841796875 343.298828125 226.908203125 338.043945312 222.784179688 332.56640625 c 0
 218.66015625 327.08984375 213.883789062 323.430664062 208.454101562 321.591796875 c 0
 203.954101562 320.068359375 199.803710938 317.55078125 196.001953125 314.0390625 c 0
 192.201171875 310.52734375 185.169921875 306.942382812 174.90625 303.28515625 c 0
 164.64453125 299.627929688 159.004882812 296.943359375 157.986328125 295.231445312 c 0
 155.154296875 290.478515625 143.369140625 290.4453125 122.631835938 295.1328125 c 0
 104.106445312 299.318359375 84.2265625 296.905273438 62.9931640625 287.893554688 c 0
 48.1875 281.610351562 39.5439453125 278.405273438 37.0625 278.278320312 c 0
 34.58203125 278.15234375 30.466796875 274.946289062 24.7158203125 268.661132812 c 0
 18.970703125 262.3828125 11.662109375 255.419921875 2.7919921875 247.771484375 c 0
 -6.072265625 240.130859375 -10.396484375 234.1953125 -10.181640625 229.965820312 c 0
 -9.9658203125 225.73828125 -10.8212890625 223.000976562 -12.7490234375 221.756835938 c 0
 -14.90625 220.36328125 -15.66796875 216.577148438 -15.0341796875 210.3984375 c 0
 -14.400390625 204.21875 -12.845703125 200.280273438 -10.3701171875 198.58203125 c 0
 -7.484375 196.602539062 -6.451171875 193.88671875 -7.26953125 190.432617188 c 0
 -8.0869140625 186.981445312 -7.06640625 184.52734375 -4.20703125 183.0703125 c 0
 -1.140625 181.510742188 2.6884765625 180.590820312 7.2802734375 180.310546875 c 0
 9.275390625 180.188476562 10.37109375 178.198242188 10.568359375 174.337890625 c 0
 10.7646484375 170.4765625 12.3740234375 169.17578125 15.396484375 170.435546875 c 0
 18.4169921875 171.697265625 22.0537109375 170.638671875 26.306640625 167.259765625 c 0
 30.55859375 163.881835938 36.833984375 161.805664062 45.1337890625 161.03125 c 0
 53.4306640625 160.256835938 60.1728515625 158.803710938 65.3583984375 156.670898438 c 0
 70.54296875 154.5390625 79.3271484375 154.018554688 91.7109375 155.111328125 c 0
 104.09375 156.203125 111.55859375 155.248046875 114.104492188 152.244140625 c 0
 115.602539062 150.4765625 118.58203125 148.951171875 123.041015625 147.666015625 c 0
 127.5 146.380859375 131.368164062 145.801757812 134.646484375 145.927734375 c 0
 137.924804688 146.053710938 139.799804688 146.853515625 140.271484375 148.326171875 c 0
 140.159179688 150.532226562 142.016601562 150.211914062 145.84375 147.365234375 c 0
 149.670898438 144.518554688 153.8671875 143.2109375 158.43359375 143.444335938 c 0
 162.999023438 143.676757812 167.14453125 142.392578125 170.869140625 139.591796875 c 0
 175.828125 135.859375 194.15625 133.533203125 225.852539062 132.609375 c 0
 257.549804688 131.685546875 277.192382812 132.905273438 284.783203125 136.270507812 c 0
 291.013671875 139.032226562 300.588867188 140.557617188 313.5078125 140.848632812 c 0
 326.4296875 141.138671875 334.791015625 143.059570312 338.590820312 146.609375 c 0
 347.994140625 155.395507812 357.728515625 161.709960938 367.794921875 165.551757812 c 0
 377.862304688 169.39453125 383.954101562 169.123046875 386.071289062 164.736328125 c 0
 387.374023438 162.037109375 389.712890625 160.7734375 393.087890625 160.946289062 c 0
 396.859375 161.138671875 404.982421875 149.109375 417.455078125 124.860351562 c 0
 420.227539062 119.470703125 420.940429688 115.358398438 419.591796875 112.525390625 c 0
 418.239257812 109.680664062 416.525390625 105.905273438 414.452148438 101.201171875 c 0
 407.967773438 86.4912109375 401.541992188 77.1689453125 395.173828125 73.2353515625 c 0
 390.159179688 70.1376953125 385.036132812 65.13671875 379.802734375 58.2314453125 c 0
 375.119140625 52.05078125 368.939453125 48.3017578125 361.260742188 46.9814453125 c 0
 353.583007812 45.6630859375 323.859375 43.2451171875 272.091796875 39.728515625 c 0
 217.943359375 36.0517578125 188.61328125 35.5263671875 184.1015625 38.15234375 c 0
 179.58984375 40.7802734375 170.237304688 41.7314453125 156.04296875 41.0078125 c 0
 141.849609375 40.283203125 132.23828125 42.189453125 127.208007812 46.7255859375 c 0
 121.186523438 52.1572265625 112.939453125 57.494140625 102.46875 62.736328125 c 0
 91.998046875 67.9794921875 83.6103515625 70.9716796875 77.3037109375 71.712890625 c 0
 70.6962890625 72.4921875 61.7373046875 71.5458984375 50.427734375 68.875 c 0
 39.119140625 66.205078125 31.65625 63.2734375 28.0390625 60.08203125 c 0
 24.8017578125 57.2255859375 18.9736328125 53.4609375 10.552734375 48.791015625 c 0
 2.1337890625 44.1220703125 -2.6083984375 40.5166015625 -3.671875 37.97265625 c 0
 -4.7353515625 35.43359375 -6.1669921875 32.2734375 -7.9658203125 28.4912109375 c 0
 -9.7626953125 24.7119140625 -10.22265625 20.080078125 -9.345703125 14.5947265625 c 0
 -8.462890625 9.07421875 -7.5205078125 3.26953125 -6.517578125 -2.818359375 c 0
 -5.5068359375 -8.9423828125 -3.2705078125 -12.7919921875 0.1923828125 -14.3681640625 c 0
 3.6572265625 -15.94140625 5.48046875 -18.5205078125 5.6630859375 -22.107421875 c 0
 5.845703125 -25.693359375 6.6865234375 -27.5390625 8.1845703125 -27.646484375 c 0
 9.6826171875 -27.7548828125 12.443359375 -28.2138671875 16.46484375 -29.0224609375 c 0
 20.484375 -29.8310546875 26.11328125 -29.958984375 33.3525390625 -29.4052734375 c 0
 40.587890625 -28.8515625 45.4658203125 -29.84765625 47.984375 -32.3916015625 c 0
 50.501953125 -34.935546875 53.74609375 -36.1064453125 57.716796875 -35.904296875 c 0
 61.6845703125 -35.7021484375 66.7646484375 -37.74609375 72.95703125 -42.0390625 c 0
 79.1474609375 -46.333984375 89.890625 -48.212890625 105.188476562 -47.6767578125 c 0
 147.50390625 -46.193359375 170.483398438 -46.0126953125 174.124023438 -47.1337890625 c 0
 177.157226562 -48.0673828125 186.09765625 -48.7548828125 200.947265625 -49.1962890625 c 0
 215.796875 -49.63671875 225.315429688 -50.90234375 229.501953125 -52.994140625 c 0
 233.689453125 -55.083984375 248.543945312 -55.615234375 274.067382812 -54.58984375 c 0
 299.588867188 -53.5634765625 313.845703125 -54.080078125 316.838867188 -56.140625 c 0
 319.829101562 -58.2001953125 325.939453125 -58.0263671875 335.170898438 -55.619140625 c 0
 344.405273438 -53.212890625 358.942382812 -51.4404296875 378.78515625 -50.3017578125 c 0
 416.491210938 -48.134765625 438.974609375 -44.111328125 446.237304688 -38.228515625 c 0
 450.6328125 -34.6669921875 458.455078125 -31.9541015625 469.704101562 -30.0908203125 c 0
 480.955078125 -28.2265625 488.873046875 -25.42578125 493.458007812 -21.689453125 c 0
 498.043945312 -17.9541015625 503.811523438 -15.908203125 510.760742188 -15.5537109375 c 0
 515.672851562 -15.3037109375 521.134765625 -13.3759765625 527.145507812 -9.771484375 c 0
 533.15625 -6.166015625 536.094726562 -3.056640625 535.9609375 -0.44140625 c 0
 535.875976562 1.212890625 543.259765625 9.609375 558.111328125 24.74609375 c 0
 572.962890625 39.8837890625 583.6015625 54.529296875 590.02734375 68.6826171875 c 0
 598.205078125 86.693359375 603.077148438 100.07421875 604.640625 108.82421875 c 0
 606.206054688 117.572265625 606.41015625 132.5625 605.251953125 153.795898438 c 0
 603.848632812 179.533203125 605.41015625 197.770507812 609.9375 208.5078125 c 0
 614.462890625 219.24609375 602.112304688 228.475585938 608.884765625 236.197265625 c 0
 615.655273438 243.916015625 619.458984375 251.299804688 620.294921875 258.348632812 c 0
 621.129882812 265.395507812 623.306640625 272.46484375 626.825195312 279.556640625 c 0
 630.344726562 286.650390625 631.459960938 292.099609375 630.171875 295.904296875 c 0
 628.8828125 299.708007812 629.215820312 308.205078125 631.170898438 321.39453125 c 0
 633.421875 336.580078125 633.704101562 353.016601562 632.015625 370.702148438 c 0
 630.329101562 388.388671875 627.318359375 400.571289062 622.981445312 407.250976562 c 0
 618.349609375 414.385742188 615.962890625 419.333007812 615.821289062 422.09375 c 0
 615.692382812 424.627929688 611.642578125 432.53515625 603.673828125 445.8125 c 0
 595.703125 459.090820312 588.748046875 469.518554688 582.80859375 477.095703125 c 0
 573.845703125 488.530273438 540.484375 509.8515625 524 524 c 0
 504.434570312 540.79296875 500.963867188 547.572265625 469 565 c 0
302.2734375 -42.783203125 m 0
 302.1796875 -40.9443359375 301.141601562 -40.0751953125 299.157226562 -40.1767578125 c 0
 297.171875 -40.2783203125 296.225585938 -41.248046875 296.319335938 -43.0869140625 c 0
 296.413085938 -44.9248046875 297.453125 -45.7939453125 299.438476562 -45.693359375 c 0
 301.422851562 -45.591796875 302.3671875 -44.62109375 302.2734375 -42.783203125 c 0
EndSplineSet
Validated: 524329
EndChar

StartChar: four
Encoding: 52 52 22
Width: 533
GlyphClass: 2
Flags: W
LayerCount: 2
Fore
SplineSet
240 376 m 0
 234 399.333007812 227.999023438 411 221.999023438 411 c 0
 218.666015625 411 213.999023438 408 207.999023438 402 c 0
 200.666015625 394.666992188 192.166015625 379 182.499023438 355 c 0
 172.83203125 331 167.999023438 314.333007812 167.999023438 305 c 0
 167.999023438 295 164.666015625 285 157.999023438 275 c 0
 153.33203125 267.666992188 150.83203125 263.166992188 150.499023438 261.5 c 0
 150.166015625 259.833007812 151.666015625 258 154.999023438 256 c 2
 156.999023438 256 l 2
 165.666015625 256 182.833007812 261.5 208.5 272.5 c 0
 234.166992188 283.5 248.333984375 291.333007812 251.000976562 296 c 0
 252.333984375 297.333007812 253.000976562 301.333007812 253.000976562 308 c 0
 253.000976562 316 252.333984375 322.666992188 251.000976562 328 c 0
 244.333984375 356.666992188 240.666992188 372.666992188 240 376 c 0
215.999023438 697 m 0
 223.999023438 702.333007812 232.661132812 704.99609375 241.994140625 704.99609375 c 0
 256.661132812 704.99609375 274.328125 694.329101562 294.995117188 672.99609375 c 0
 312.328125 654.329101562 332.328125 639.99609375 354.995117188 629.99609375 c 0
 372.995117188 621.329101562 384.328125 613.99609375 388.995117188 607.99609375 c 0
 393.662109375 601.99609375 395.995117188 590.329101562 395.995117188 572.99609375 c 2
 395.995117188 549.99609375 l 2
 395.995117188 519.99609375 401.495117188 485.663085938 412.495117188 446.99609375 c 0
 423.495117188 408.329101562 437.328125 388.99609375 453.995117188 388.99609375 c 0
 460.662109375 388.99609375 466.995117188 391.99609375 472.995117188 397.99609375 c 0
 479.662109375 404.663085938 487.329101562 407.99609375 495.99609375 407.99609375 c 0
 496.663085938 407.99609375 498.330078125 407.829101562 500.997070312 407.49609375 c 0
 503.6640625 407.163085938 505.997070312 406.99609375 507.997070312 406.99609375 c 0
 542.6640625 403.663085938 567.331054688 391.663085938 581.998046875 370.99609375 c 0
 587.998046875 364.329101562 592.331054688 350.99609375 594.998046875 330.99609375 c 0
 594.998046875 328.99609375 595.165039062 326.663085938 595.498046875 323.99609375 c 0
 595.831054688 321.329101562 595.998046875 319.329101562 595.998046875 317.99609375 c 0
 595.998046875 308.663085938 590.331054688 298.330078125 578.998046875 286.997070312 c 0
 566.998046875 274.997070312 552.998046875 268.997070312 536.998046875 268.997070312 c 0
 522.331054688 268.997070312 508.831054688 266.6640625 496.498046875 261.997070312 c 0
 484.165039062 257.330078125 476.998046875 251.663085938 474.998046875 244.99609375 c 0
 456.331054688 183.663085938 443.998046875 89.99609375 437.998046875 -36.00390625 c 0
 435.331054688 -79.3369140625 430.998046875 -104.669921875 424.998046875 -112.002929688 c 0
 418.331054688 -118.669921875 413.998046875 -122.002929688 411.998046875 -122.002929688 c 0
 407.998046875 -122.002929688 400.665039062 -116.3359375 389.998046875 -105.002929688 c 2
 372.998046875 -88.0029296875 l 1
 379.998046875 -16.0029296875 l 2
 383.331054688 20.6640625 384.998046875 52.6640625 384.998046875 79.9970703125 c 2
 384.998046875 92.9970703125 l 1
 384.998046875 103.997070312 l 2
 384.998046875 123.997070312 386.665039062 137.997070312 389.998046875 145.997070312 c 0
 391.998046875 151.997070312 392.998046875 158.997070312 392.998046875 166.997070312 c 0
 392.998046875 184.997070312 389.331054688 195.6640625 381.998046875 198.997070312 c 0
 377.998046875 200.997070312 367.998046875 199.330078125 351.998046875 193.997070312 c 0
 337.998046875 189.330078125 318.665039062 186.997070312 293.998046875 186.997070312 c 0
 275.998046875 186.997070312 264.165039062 185.997070312 258.498046875 183.997070312 c 0
 252.831054688 181.997070312 243.998046875 175.330078125 231.998046875 163.997070312 c 0
 216.665039062 149.997070312 203.83203125 140.330078125 193.499023438 134.997070312 c 0
 183.166015625 129.6640625 160.333007812 120.997070312 125 108.997070312 c 0
 89.6669921875 96.330078125 66 89.9970703125 54 89.9970703125 c 0
 42.6669921875 89.9970703125 30 97.330078125 16 111.997070312 c 0
 2 125.997070312 -5 137.6640625 -5 146.997070312 c 0
 -5 157.6640625 6.3330078125 175.331054688 29 199.998046875 c 0
 32.3330078125 203.998046875 50.3330078125 224.998046875 83 262.998046875 c 0
 103.666992188 286.998046875 117 300.331054688 123 302.998046875 c 0
 130.333007812 305.665039062 136.666015625 312.998046875 141.999023438 324.998046875 c 0
 147.33203125 335.665039062 149.999023438 344.33203125 149.999023438 350.999023438 c 0
 149.999023438 353.666015625 149.33203125 358.333007812 147.999023438 365 c 0
 145.33203125 378.333007812 143.999023438 386 143.999023438 388 c 0
 143.999023438 395.333007812 146.499023438 402.333007812 151.499023438 409 c 0
 156.499023438 415.666992188 166.999023438 427 182.999023438 443 c 0
 202.999023438 463 215.166015625 476.166992188 219.499023438 482.5 c 0
 223.83203125 488.833007812 227.33203125 500 229.999023438 516 c 2
 235.999023438 550 l 1
 214.999023438 589 l 2
 198.33203125 618.333007812 189.999023438 641 189.999023438 657 c 0
 189.999023438 673 198.666015625 686.333007812 215.999023438 697 c 0
462.994140625 426.99609375 m 0
 460.994140625 424.99609375 458.66015625 423.99609375 455.993164062 423.99609375 c 0
 450.66015625 423.99609375 447.993164062 428.329101562 447.993164062 436.99609375 c 0
 447.993164062 444.99609375 450.993164062 448.99609375 456.993164062 448.99609375 c 0
 460.993164062 448.99609375 463.826171875 446.163085938 465.493164062 440.49609375 c 0
 467.16015625 434.829101562 466.327148438 430.329101562 462.994140625 426.99609375 c 0
EndSplineSet
Validated: 1
EndChar

StartChar: five
Encoding: 53 53 23
Width: 417
GlyphClass: 2
Flags: W
LayerCount: 2
Fore
SplineSet
403.868164062 671.341796875 m 0
 399.96875 675.440429688 399.770507812 680.780273438 403.26953125 687.361328125 c 0
 405.368164062 691.309570312 408.041992188 691.576171875 411.291015625 688.161132812 c 0
 415.189453125 684.0625 415.389648438 678.72265625 411.890625 672.141601562 c 0
 409.791015625 668.192382812 407.1171875 667.92578125 403.868164062 671.341796875 c 0
129.780273438 671.19140625 m 0
 142.66015625 679.5390625 164.762695312 683.322265625 196.0859375 682.5390625 c 0
 220.745117188 681.922851562 239.35546875 679.45703125 251.91796875 675.141601562 c 0
 264.481445312 670.826171875 283.55078125 660.012695312 309.125976562 642.701171875 c 0
 320.922851562 634.403320312 330.465820312 629.330078125 337.754882812 627.481445312 c 0
 345.044921875 625.631835938 360.344726562 624.08203125 383.654296875 622.833007812 c 0
 418.959960938 621.283203125 439.765625 619.9296875 446.072265625 618.771484375 c 0
 452.377929688 617.61328125 456.780273438 613.668945312 459.279296875 606.9375 c 0
 459.928710938 606.254882812 460.245117188 605.580078125 460.228515625 604.913085938 c 0
 462.694335938 596.849609375 463.885742188 591.151367188 463.802734375 587.818359375 c 0
 463.536132812 577.155273438 450.365234375 557.14453125 424.290039062 527.787109375 c 0
 412.626953125 514.741210938 379.12890625 508.576171875 323.795898438 509.291992188 c 2
 315.797851562 509.4921875 l 2
 283.141601562 510.30859375 255.025390625 519.34765625 231.44921875 536.608398438 c 0
 217.053710938 547.638671875 203.858398438 553.303710938 191.862304688 553.603515625 c 0
 183.198242188 553.819335938 172.467773438 551.419921875 159.671875 546.405273438 c 0
 151.590820312 543.2734375 146.192382812 540.741210938 143.4765625 538.80859375 c 0
 140.760742188 536.875976562 139.3359375 533.244140625 139.202148438 527.912109375 c 0
 139.03515625 521.247070312 140.743164062 509.534179688 144.326171875 492.7734375 c 0
 154.323242188 439.172851562 164.711914062 401.234375 175.4921875 378.958007812 c 2
 187.763671875 349.641601562 l 1
 247.744140625 348.142578125 l 2
 282.383789062 346.609375 305.993164062 344.018554688 318.572265625 340.370117188 c 0
 331.151367188 336.720703125 340.623046875 328.814453125 346.987304688 316.651367188 c 0
 350.802734375 309.220703125 362.423828125 293.92578125 381.850585938 270.766601562 c 0
 392.86328125 257.8203125 400.282226562 247.798828125 404.106445312 240.701171875 c 0
 407.9296875 233.603515625 410.375 224.706054688 411.44140625 214.009765625 c 0
 412.024414062 210.661132812 412.232421875 205.654296875 412.065429688 198.989257812 c 0
 411.881835938 191.658203125 410.140625 182.032226562 406.841796875 170.111328125 c 0
 403.54296875 158.190429688 401.78515625 147.897460938 401.568359375 139.233398438 c 0
 401.185546875 123.905273438 397.89453125 112.317382812 391.696289062 104.469726562 c 0
 383.432617188 94.005859375 375.443359375 81.201171875 367.729492188 66.0556640625 c 0
 358.6484375 49.611328125 347.693359375 38.21484375 334.864257812 31.8662109375 c 0
 322.068359375 26.8515625 312.129882812 16.0966796875 305.048828125 -0.3984375 c 0
 303.6328125 -3.697265625 301.862304688 -7.8212890625 299.73828125 -12.76953125 c 0
 297.614257812 -17.7177734375 295.676757812 -21.837890625 293.926757812 -25.12890625 c 0
 292.177734375 -28.4189453125 290.953125 -30.72265625 290.252929688 -32.0390625 c 0
 280.490234375 -49.1337890625 253.890625 -59.4716796875 210.454101562 -63.0537109375 c 0
 185.728515625 -65.103515625 166.634765625 -68.6279296875 153.171875 -73.626953125 c 0
 133.627929688 -81.8076171875 114.859375 -85.6728515625 96.865234375 -85.2236328125 c 0
 77.5380859375 -84.740234375 63.333984375 -79.3837890625 54.2529296875 -69.154296875 c 0
 45.7890625 -60.9404296875 41.7490234375 -49.1689453125 42.1328125 -33.83984375 c 0
 42.8330078125 -5.8486328125 53.99609375 13.87890625 75.6220703125 25.3427734375 c 0
 82.38671875 29.1748046875 99.65234375 32.9111328125 127.418945312 36.5517578125 c 0
 155.185546875 40.19140625 170.41015625 42.3115234375 173.092773438 42.912109375 c 0
 188.504882812 45.8603515625 205.57421875 48.4345703125 224.301757812 50.634765625 c 0
 237.681640625 52.30078125 246.579101562 54.74609375 250.994140625 57.9697265625 c 0
 255.409179688 61.193359375 261.798828125 70.0361328125 270.163085938 84.498046875 c 0
 281.993164062 104.208007812 287.94140625 115.396484375 288.0078125 118.0625 c 0
 288.075195312 120.728515625 278.936523438 128.625976562 260.591796875 141.754882812 c 0
 242.897460938 154.201171875 223.719726562 160.682617188 203.059570312 161.19921875 c 0
 183.06640625 161.698242188 161.581054688 169.237304688 138.604492188 183.81640625 c 0
 115.611328125 197.729492188 101.116210938 204.760742188 95.1181640625 204.91015625 c 0
 89.1201171875 205.059570312 80.7724609375 211.270507812 70.076171875 223.541992188 c 0
 59.3798828125 235.8125 53.78125 245.2890625 53.28125 251.970703125 c 0
 53.314453125 253.303710938 53.2314453125 256.639648438 53.03125 261.979492188 c 0
 52.8310546875 267.3203125 52.6767578125 274.493164062 52.568359375 283.498046875 c 0
 52.4599609375 292.50390625 52.4892578125 300.338867188 52.65625 307.002929688 c 0
 52.4404296875 378.364257812 42.3349609375 427.6328125 22.3408203125 454.807617188 c 0
 9.427734375 471.801757812 3.0380859375 482.96484375 3.171875 488.296875 c 0
 3.2724609375 492.295898438 -0.8095703125 502.401367188 -9.07421875 518.61328125 c 0
 -15.4052734375 532.108398438 -18.49609375 541.85546875 -18.3466796875 547.854492188 c 0
 -18.24609375 551.853515625 -17.080078125 558.493164062 -14.84765625 567.7734375 c 0
 -7.5166015625 594.265625 5.4794921875 607.278320312 24.140625 606.811523438 c 0
 28.1396484375 606.711914062 31.1298828125 606.303710938 33.1123046875 605.586914062 c 0
 35.76171875 604.853515625 39.4189453125 604.428710938 44.083984375 604.3125 c 0
 48.0830078125 604.211914062 50.9404296875 605.140625 52.65625 607.098632812 c 0
 54.3720703125 609.056640625 56.646484375 613.334960938 59.4794921875 619.93359375 c 0
 63.744140625 630.497070312 69.275390625 638.361328125 76.0732421875 643.526367188 c 0
 82.87109375 648.69140625 91.9931640625 653.46484375 103.439453125 657.846679688 c 0
 114.885742188 662.228515625 123.666015625 666.676757812 129.780273438 671.19140625 c 0
228.275390625 409.649414062 m 0
 228.42578125 415.647460938 231.833984375 418.563476562 238.498046875 418.396484375 c 0
 242.497070312 418.295898438 245.291992188 416.725585938 246.8828125 413.685546875 c 0
 248.473632812 410.64453125 248.723632812 407.303710938 247.631835938 403.663085938 c 0
 246.541015625 400.0234375 244.3125 397.578125 240.946289062 396.328125 c 0
 236.231445312 394.4453125 232.903320312 394.6953125 230.961914062 397.078125 c 0
 229.021484375 399.4609375 228.125976562 403.651367188 228.275390625 409.649414062 c 0
EndSplineSet
Validated: 33
EndChar

StartChar: six
Encoding: 54 54 24
Width: 398
GlyphClass: 2
Flags: W
HStem: -68.999 100.999<176.143 339.888> 165.999 94.002<154.528 266.915> 175.999 84.002<169.063 298.112> 582 116<252.264 328.375>
VStem: -29.001 144.002<52.3345 126.884> -13.001 91.001<220.003 308.685> 381 54.998<58.462 141.445>
LayerCount: 2
Fore
SplineSet
300 169 m 0xda
 296.666992188 174.333007812 292.000976562 175.999023438 268.000976562 175.999023438 c 0xba
 244.66796875 175.999023438 232.000976562 174.33203125 230.000976562 170.999023438 c 0
 228.000976562 167.666015625 221.000976562 165.999023438 209.000976562 165.999023438 c 0
 196.333984375 165.999023438 183.000976562 161.999023438 169.000976562 153.999023438 c 0
 155.000976562 145.999023438 143.333984375 135.999023438 134.000976562 123.999023438 c 0
 121.333984375 107.33203125 115.000976562 95.33203125 115.000976562 87.9990234375 c 0
 115.000976562 81.33203125 119.333984375 75.83203125 128.000976562 71.4990234375 c 0
 136.66796875 67.166015625 152.66796875 61.3330078125 176.000976562 54 c 0
 206.000976562 45.3330078125 222.66796875 39.3330078125 226.000976562 36 c 0
 229.333984375 33.3330078125 244.666992188 32 272 32 c 0
 315.333007812 32 332.333007812 35.3330078125 341 40 c 0
 349 44.6669921875 358.333007812 55.6669921875 369 73 c 0
 377 89 381 99 381 103 c 0
 381 105.666992188 380 109.666992188 378 115 c 0
 371.333007812 127.666992188 361.666015625 140 348.999023438 152 c 0
 337.666015625 163.333007812 329.333007812 169 324 169 c 0
 321.333007812 169 318.666015625 168 315.999023438 166 c 0
 308.666015625 161.333007812 303.333007812 162.333007812 300 169 c 0xda
121 514 m 0
 131.333007812 532.333007812 189.997070312 614.985351562 247 672 c 0
 256.999023438 682.000976562 291.999023438 698 303.999023438 698 c 0
 316.666015625 698 327.999023438 692.333007812 337.999023438 681 c 0
 347.999023438 669.666992188 354.33203125 656 356.999023438 640 c 0
 357.666015625 636 357.999023438 630.666992188 357.999023438 624 c 0
 357.999023438 606 350.999023438 591.333007812 336.999023438 580 c 0
 327.666015625 572.666992188 320.333007812 569 315 569 c 0
 309.666992188 569 303.333984375 571.666992188 296.000976562 577 c 0
 290.66796875 580.333007812 286.66796875 582 284.000976562 582 c 0
 280.000976562 582 272.000976562 577 260.000976562 567 c 0
 243.333984375 554.333007812 232.666992188 548 232 548 c 0
 228 548 207 520 190 495 c 0
 174.826171875 472.684570312 164.670898438 444.670898438 154.999023438 434.999023438 c 0
 137.666015625 417.666015625 127.333007812 392.333007812 110 347 c 0
 92.6669921875 301.666992188 78 266.666992188 78 242 c 0xd6
 78 236.666992188 78.3330078125 233 79 231 c 0
 80.3330078125 223.666992188 85.666015625 220 94.9990234375 220 c 0
 111.666015625 220 138.666015625 230.333007812 175.999023438 251 c 0
 180.666015625 253.666992188 192.333007812 256.333984375 211 259.000976562 c 0
 211.666992188 259.000976562 213.166992188 259.16796875 215.5 259.500976562 c 0
 217.833007812 259.833984375 219.666015625 260.000976562 220.999023438 260.000976562 c 0
 256.999023438 260.000976562 275.999023438 248.000976562 323.999023438 226.000976562 c 0
 334.666015625 220.66796875 346.999023438 215.66796875 360.999023438 211.000976562 c 0
 370.33203125 208.333984375 385.165039062 194.833984375 405.498046875 170.500976562 c 0
 425.831054688 146.16796875 435.998046875 130.000976562 435.998046875 122.000976562 c 0
 435.331054688 104.66796875 432.498046875 84.5009765625 427.498046875 61.5009765625 c 0
 422.498046875 38.5009765625 417.665039062 23.333984375 412.998046875 16.0009765625 c 0
 397.665039062 -5.9990234375 377.33203125 -24.666015625 351.999023438 -39.9990234375 c 0
 326.666015625 -55.33203125 309.999023438 -65.33203125 283.999023438 -67.9990234375 c 0
 279.33203125 -68.666015625 272.665039062 -68.9990234375 263.998046875 -68.9990234375 c 0
 249.998046875 -68.9990234375 230.665039062 -65.666015625 205.998046875 -58.9990234375 c 0
 173.998046875 -49.666015625 154.331054688 -44.9990234375 146.998046875 -44.9990234375 c 0
 134.331054688 -44.9990234375 118.998046875 -39.9990234375 100.998046875 -29.9990234375 c 0
 79.6650390625 -19.33203125 62.33203125 -13.9990234375 48.9990234375 -13.9990234375 c 0
 14.33203125 -13.9990234375 -7.66796875 -4.33203125 -17.0009765625 15.0009765625 c 0
 -25.0009765625 31.0009765625 -29.0009765625 45.66796875 -29.0009765625 59.0009765625 c 0xda
 -29.0009765625 67.66796875 -27.0009765625 75.0009765625 -23.0009765625 81.0009765625 c 0
 -17.0009765625 90.333984375 -13.66796875 119.333984375 -13.0009765625 168.000976562 c 0xd6
 -11.66796875 217.333984375 -9.0009765625 246.666992188 -5.0009765625 256 c 0
 -2.333984375 262 1.3330078125 276.666992188 6 300 c 0
 9.3330078125 314.666992188 29.3330078125 356.333984375 40 381.000976562 c 0
 50.6669921875 405.66796875 118.333007812 506.666992188 121 514 c 0
EndSplineSet
Validated: 524289
EndChar

StartChar: seven
Encoding: 55 55 25
Width: 268
GlyphClass: 2
Flags: W
HStem: 279.943 85.7119<165.727 255.873>
VStem: 5.50195 74.3467<-87.7707 -19.0019> 45.0986 64.9297<61.1365 211.289>
LayerCount: 2
Fore
SplineSet
166 613 m 0xa0
 165.291015625 637.103515625 102.338867188 623.241210938 89 616 c 0
 82.8046875 612.63671875 61.4638671875 597.965820312 55.845703125 589.150390625 c 0
 49.2685546875 578.829101562 43.7734375 573.7109375 39.361328125 573.796875 c 2
 8 579.174804688 l 2
 -4.7431640625 577.602539062 -13.791015625 581.41796875 -18.28125 585.146484375 c 0
 -22.7724609375 588.874023438 -24.9287109375 595.287109375 -24.751953125 604.384765625 c 0
 -24.4814453125 618.334960938 -20.341796875 630.086914062 -12.3349609375 639.640625 c 0
 3.2421875 658.227539062 37.82421875 694.512695312 77 698 c 0
 86.7734375 697.810546875 159.11328125 705.010742188 176.206054688 712.567382812 c 0
 189.353515625 718.379882812 203.461914062 723.264648438 218.529296875 727.219726562 c 0
 222.451171875 727.75 227.51953125 728.5625 233.732421875 729.655273438 c 0
 239.9453125 730.748046875 243.703125 731.282226562 245.005859375 731.256835938 c 2
 245.983398438 731.23828125 l 2
 251.84765625 731.124023438 259.583007812 726.7265625 269.19140625 718.044921875 c 0
 278.798828125 709.36328125 283.55078125 702.293945312 283.444335938 696.834960938 c 0
 283.349609375 691.981445312 279.012695312 678.4140625 270.432617188 656.12890625 c 0
 261.853515625 633.844726562 255.893554688 620.611328125 252.553710938 616.427734375 c 0
 251.890625 615.833984375 250.009765625 611.319335938 246.913085938 602.885742188 c 0
 243.81640625 594.451171875 240.565429688 586.474609375 237.161132812 578.956054688 c 0
 233.756835938 571.4375 231.403320312 567.690429688 230.099609375 567.715820312 c 0
 222.932617188 567.85546875 219.873046875 544.552734375 201.374023438 498.190429688 c 0
 184.866210938 453.609375 174.21484375 423.049804688 165.344726562 402.591796875 c 0
 158.546875 388.161132812 155.123046875 379.732421875 155.076171875 377.306640625 c 0
 154.994140625 373.060546875 155.807617188 366.919921875 161.671875 366.806640625 c 0
 162.323242188 366.793945312 162.822265625 362.389648438 169.361328125 363.4765625 c 0
 178.517578125 365.118164062 187.984375 365.844726562 197.756835938 365.655273438 c 0
 219.909179688 365.225585938 236.46484375 361.870117188 247.422851562 355.58984375 c 0
 260.3359375 349.270507812 266.663085938 339.438476562 266.403320312 326.094726562 c 0
 266.19140625 315.176757812 264.365234375 309.897460938 254.729492188 300.375976562 c 0
 245.092773438 290.854492188 234.712890625 282.684570312 219.669921875 279.943359375 c 0
 208.546875 277.732421875 199.481445312 272.446289062 180.748046875 264.31640625 c 0
 162.013671875 256.185546875 152.390625 253.393554688 147.724609375 248.0234375 c 0
 143.068359375 243.260742188 137.275390625 232.57421875 134.421875 219.88671875 c 0
 131.579101562 207.806640625 126.830078125 198.190429688 120.172851562 191.038085938 c 0
 113.515625 183.885742188 110.134765625 177.580078125 110.028320312 172.12109375 c 0xa0
 109.922851562 166.662109375 107.5078125 159.73046875 102.78125 151.328125 c 0
 99.40625 145.326171875 97.3349609375 122.612304688 96.5693359375 83.185546875 c 2
 95.73828125 40.423828125 l 2
 95.62890625 -32.3876953125 79.9072265625 -70.0068359375 79.8486328125 -73.0390625 c 0
 79.4482421875 -93.662109375 56.14453125 -101.6015625 39.85546875 -101.286132812 c 0
 30.734375 -101.108398438 22.0205078125 -96.69140625 13.7158203125 -88.03515625 c 0
 7.95703125 -82.462890625 5.21875 -72.4755859375 5.501953125 -57.91796875 c 0xc0
 5.537109375 -56.0986328125 3.34765625 -47.8994140625 5.23828125 -17.59765625 c 0
 8.740234375 28.4501953125 23.6044921875 61.837890625 31.8359375 82.9140625 c 0
 45.525390625 116.62890625 44.6748046875 144.556640625 45.0986328125 166.393554688 c 0
 45.287109375 176.09765625 45.1025390625 183.3828125 44.544921875 188.248046875 c 0
 43.9765625 192.506835938 43.767578125 198.579101562 43.9208984375 206.463867188 c 0
 44.15625 218.595703125 45.625 227.061523438 48.3251953125 231.862304688 c 0
 52.3994140625 240.278320312 51.8828125 247.266601562 46.7763671875 252.826171875 c 0
 37.2041015625 263.328125 13.076171875 287.6640625 13.48828125 308.892578125 c 0
 13.5595703125 312.532226562 14.2822265625 316.158203125 15.6552734375 319.772460938 c 0
 19.0185546875 325.16796875 37.3505859375 329.36328125 45.205078125 331.03125 c 0
 58.2939453125 333.810546875 67.2158203125 340.161132812 71.97265625 350.080078125 c 0
 76.7275390625 360 101.010742188 375.181640625 102.90234375 405.483398438 c 0
 104.680664062 433.971679688 127.092773438 503.127929688 135 524 c 0
 152.553710938 570.3359375 167 579 166 613 c 0xa0
EndSplineSet
Validated: 524321
EndChar

StartChar: eight
Encoding: 56 56 26
Width: 540
GlyphClass: 2
Flags: W
HStem: -126.566 65.9971<220.081 451.12> 599.41 87.5742<120.296 225.156> 679.143 20G<98.9883 140.643>
VStem: -5.95508 87.2949<406.314 554.39> 279.665 139.022<461.356 542.497> 515.165 61.9297<14.7164 184.036>
LayerCount: 2
Fore
SplineSet
326.844726562 275.166015625 m 0x9c
 322.28515625 277.3984375 305.422851562 280.583007812 276.26171875 284.7265625 c 2
 236.463867188 289.741210938 l 1
 204.342773438 268.334960938 l 2
 192.586914062 260.250976562 169.875 246.712890625 136.20703125 227.720703125 c 0
 121.122070312 219.805664062 110.598632812 212.995117188 104.63671875 207.2890625 c 0
 98.6748046875 201.583007812 92.3779296875 192.555664062 85.74609375 180.20703125 c 2
 70.30078125 151.951171875 l 1
 78.0791015625 127.52734375 l 2
 92.5380859375 83.408203125 103.176757812 56.169921875 109.99609375 45.8125 c 0
 117.979492188 32.0595703125 121.903320312 23.8515625 121.768554688 21.1884765625 c 0
 121.600585938 17.859375 133.864257812 9.5634765625 158.559570312 -3.69921875 c 0
 187.115234375 -19.8271484375 203.97265625 -29.6904296875 209.131835938 -33.2890625 c 0
 233.060546875 -48.515625 274.321289062 -57.609375 332.9140625 -60.5693359375 c 0
 390.173828125 -63.4619140625 425.145507812 -58.37109375 443.829101562 -45.2978515625 c 0
 452.787109375 -39.7421875 465.87890625 -25.05078125 483.103515625 -1.22265625 c 0
 499.560546875 20.6416015625 509.026367188 42.8583984375 511.501953125 65.4287109375 c 0
 513.641601562 81.341796875 514.862304688 92.2939453125 515.165039062 98.2861328125 c 0
 516.9140625 132.908203125 510.935546875 159.911132812 497.229492188 179.293945312 c 0
 488.546875 192.416015625 473.888671875 206.172851562 453.254882812 220.565429688 c 0
 432.62109375 234.958007812 414.099609375 244.905273438 397.689453125 250.407226562 c 0
 353.01953125 264.6796875 331.404296875 272.932617188 326.844726562 275.166015625 c 0x9c
225.380859375 585.677734375 m 0
 220.821289062 587.911132812 201.629882812 591.217773438 167.807617188 595.595703125 c 0
 145.237304688 598.071289062 133.286132812 599.342773438 131.954101562 599.41015625 c 0xdc
 120.635742188 599.981445312 112.4609375 596.72265625 107.4296875 589.633789062 c 0
 102.432617188 583.2109375 95.73046875 562.856445312 87.3232421875 528.5703125 c 0
 82.1513671875 505.46875 79.3466796875 489.58984375 78.9091796875 480.934570312 c 0
 78.404296875 470.947265625 79.21484375 460.559570312 81.33984375 449.772460938 c 0
 85.6240234375 428.86328125 90.8935546875 414.245117188 97.1484375 405.918945312 c 0
 104.701171875 396.859375 115.135742188 391.993164062 128.452148438 391.3203125 c 2
 138.439453125 390.81640625 l 2
 157.78125 390.506835938 175.727539062 395.607421875 192.279296875 406.119140625 c 0
 210.196289062 417.229492188 229.1640625 432.625 249.182617188 452.306640625 c 0
 269.201171875 471.98828125 279.362304688 484.825195312 279.665039062 490.817382812 c 0
 280.1015625 499.47265625 273.259765625 516.005859375 259.139648438 540.416015625 c 0
 245.020507812 564.827148438 233.767578125 579.9140625 225.380859375 585.677734375 c 0
190.62890625 690.565429688 m 0
 212.204101562 694.815429688 225.319335938 696.821289062 229.98046875 696.5859375 c 0
 234.641601562 696.350585938 243.545898438 694.231445312 256.694335938 690.229492188 c 0
 267.178710938 686.362304688 285.91015625 680.576171875 312.889648438 672.872070312 c 0
 339.869140625 665.16796875 363.203125 657.981445312 382.891601562 651.3125 c 0
 402.580078125 644.643554688 415.020507812 639.842773438 420.212890625 636.91015625 c 0
 437.651367188 625.348632812 445.71484375 606.584960938 444.403320312 580.618164062 c 0
 443.6640625 565.970703125 439.645507812 552.489257812 432.34765625 540.174804688 c 0
 424.284179688 525.896484375 419.73046875 508.4375 418.6875 487.797851562 c 0
 417.846679688 471.15234375 414.384765625 455.473632812 408.301757812 440.76171875 c 0
 402.21875 426.049804688 395.397460938 416.548828125 387.837890625 412.2578125 c 0
 382.376953125 409.864257812 375.6484375 402.194335938 367.651367188 389.248046875 c 2
 354.708007812 370.877929688 l 1
 366.036132812 357.2890625 l 2
 373.623046875 348.895507812 380.408203125 344.395507812 392.392578125 343.790039062 c 0
 405.708984375 343.1171875 418.140625 338.150390625 429.688476562 328.889648438 c 0
 441.901367188 319.594726562 453.670898438 314.8125 458.998046875 314.543945312 c 0
 464.325195312 314.275390625 464.903320312 312.42578125 466.732421875 308.995117188 c 0
 469.194335938 304.865234375 478.212890625 298.40234375 493.7890625 289.60546875 c 0
 506.768554688 282.274414062 516.086914062 275.12890625 521.743164062 268.16796875 c 0
 527.3984375 261.20703125 537.577148438 244.671875 552.279296875 218.563476562 c 0
 570.639648438 185.595703125 578.911132812 151.134765625 577.094726562 115.180664062 c 0
 576.455078125 102.530273438 575.600585938 92.2265625 574.53125 84.2705078125 c 0
 569.984375 47.119140625 562.77734375 16.77734375 552.911132812 -6.7548828125 c 0
 543.044921875 -30.287109375 528.268554688 -51.90234375 508.583007812 -71.6005859375 c 0
 466.379882812 -114.19140625 430.634765625 -134.595703125 395.346679688 -132.813476562 c 0
 388.022460938 -132.443359375 382.712890625 -131.840820312 379.416992188 -131.005859375 c 0
 374.158203125 -129.405273438 363.206054688 -128.184570312 346.560546875 -127.34375 c 0
 331.247070312 -126.5703125 320.577148438 -126.365234375 314.551757812 -126.727539062 c 0
 309.857421875 -127.158203125 302.18359375 -127.104492188 291.530273438 -126.56640625 c 0
 252.912109375 -124.615234375 216.543945312 -117.771484375 182.42578125 -106.03515625 c 0
 158.126953125 -98.1318359375 133.342773438 -80.025390625 108.072265625 -51.71484375 c 0
 82.8017578125 -23.4033203125 61.4541015625 9.8828125 44.029296875 48.14453125 c 0
 27.2705078125 86.3720703125 16.3623046875 108.283203125 11.3046875 113.87890625 c 0
 7.51171875 118.075195312 1.7587890625 129.713867188 -5.955078125 148.793945312 c 0
 -10.642578125 161.713867188 -12.767578125 172.501953125 -12.330078125 181.157226562 c 0
 -11.69140625 193.807617188 -4.92578125 208.818359375 7.9677734375 226.190429688 c 0
 15.1640625 236.506835938 22.3115234375 249.162109375 29.41015625 264.157226562 c 0
 36.5087890625 279.151367188 40.2431640625 290.310546875 40.61328125 297.633789062 c 0
 40.7138671875 299.631835938 40.4482421875 300.98046875 39.81640625 301.6796875 c 0
 36.1240234375 307.874023438 30.53515625 316.166992188 23.0498046875 326.55859375 c 0
 7.447265625 348.040039062 -1.630859375 399.563476562 -4.1845703125 481.12890625 c 2
 -7.4931640625 554.389648438 l 1
 12.3515625 590.434570312 l 2
 25.6142578125 615.129882812 39.8720703125 633.099609375 55.125 644.344726562 c 0
 71.77734375 656.853515625 86.3984375 668.797851562 98.98828125 680.176757812 c 2
 119.97265625 699.142578125 l 1xbc
 140.642578125 692.090820312 l 2
 148.498046875 689.0234375 155.754882812 687.321289062 162.413085938 686.984375 c 0
 170.40234375 686.581054688 179.807617188 687.774414062 190.62890625 690.565429688 c 0
EndSplineSet
Validated: 524321
EndChar

StartChar: nine
Encoding: 57 57 27
Width: 291
GlyphClass: 2
Flags: W
HStem: -169 21G<229.002 244.668> 640.002 122.998<89.3673 163.651>
VStem: -20.998 74.499<455.839 616.882> 159.002 83.999<-32.0663 276.845> 174 159.001<468.668 614.999> 182.002 79.999<-120.313 121.1> 193.002 90.999<-156.653 -34.1805>
LayerCount: 2
Fore
SplineSet
152 634 m 0xe8
 143.333007812 638 134.66796875 640.001953125 126.000976562 640.001953125 c 0
 112.000976562 640.001953125 97.0009765625 634.001953125 81.0009765625 622.001953125 c 0
 70.333984375 614.001953125 63.5009765625 607.834960938 60.5009765625 603.501953125 c 0
 57.5009765625 599.168945312 55.66796875 593.001953125 55.0009765625 585.001953125 c 0
 54.333984375 581.001953125 53.833984375 573.001953125 53.5009765625 561.001953125 c 0
 53.16796875 549.001953125 53.0009765625 540.334960938 53.0009765625 535.001953125 c 2
 53.0009765625 521.001953125 l 2
 53.0009765625 497.668945312 60.66796875 475.001953125 76.0009765625 453.001953125 c 0
 90.66796875 431.001953125 106.66796875 420.001953125 124.000976562 420.001953125 c 0
 137.333984375 420.001953125 148.666992188 425.668945312 158 437.001953125 c 0
 168.666992188 448.334960938 174 461.334960938 174 476.001953125 c 0
 174 488.668945312 171.666992188 505.668945312 167 527.001953125 c 0
 163 545.001953125 161 562.334960938 161 579.001953125 c 0
 161 587.001953125 161.333007812 592.668945312 162 596.001953125 c 0
 163.333007812 609.334960938 164 616.66796875 164 618.000976562 c 0
 164 625.333984375 160 630.666992188 152 634 c 0xe8
120.001953125 760.001953125 m 0
 126.001953125 762.001953125 133.000976562 763 141.000976562 763 c 0
 165.000976562 763 188.333984375 756 211.000976562 742 c 0
 229.000976562 730 244.66796875 721 258.000976562 715 c 0
 270.66796875 709 284.000976562 697.833007812 298.000976562 681.5 c 0
 312.000976562 665.166992188 321.66796875 649.333984375 327.000976562 634.000976562 c 0
 331.000976562 622.000976562 333.000976562 609.333984375 333.000976562 596.000976562 c 0xe8
 333.000976562 573.333984375 328.000976562 554.000976562 318.000976562 538.000976562 c 0
 310.000976562 524.66796875 304.66796875 498.66796875 302.000976562 460.000976562 c 0
 297.333984375 384.66796875 287.000976562 329.000976562 271.000976562 293.000976562 c 0
 252.333984375 251.000976562 243.000976562 200.333984375 243.000976562 141.000976562 c 0xf0
 243.000976562 107.000976562 245.66796875 75.66796875 251.000976562 47.0009765625 c 0
 258.333984375 7.66796875 262.000976562 -19.33203125 262.000976562 -33.9990234375 c 0xe4
 262.000976562 -50.666015625 265.66796875 -65.3330078125 273.000976562 -78 c 0
 280.333984375 -92 284.000976562 -106.333007812 284.000976562 -121 c 0
 284.000976562 -137.666992188 279.333984375 -149.666992188 270.000976562 -157 c 0
 260.66796875 -165 250.334960938 -169 239.001953125 -169 c 0
 219.001953125 -169 203.668945312 -159 193.001953125 -139 c 0xe2
 189.001953125 -131 185.334960938 -102.666992188 182.001953125 -54 c 0xe4
 180.001953125 -5.3330078125 175.668945312 31.333984375 169.001953125 56.0009765625 c 0
 162.334960938 78.66796875 159.001953125 115.66796875 159.001953125 167.000976562 c 2
 159.001953125 204.000976562 l 1
 159.001953125 301.000976562 l 1
 159.001953125 319.000976562 l 2xf0
 159.001953125 321.66796875 149.668945312 324.334960938 131.001953125 327.001953125 c 0
 111.668945312 329.668945312 94.001953125 335.001953125 78.001953125 343.001953125 c 0
 59.3349609375 352.334960938 48.001953125 357.001953125 44.001953125 357.001953125 c 0
 27.3349609375 357.001953125 8.001953125 391.001953125 -13.998046875 459.001953125 c 0
 -18.6650390625 473.001953125 -20.998046875 488.334960938 -20.998046875 505.001953125 c 0
 -20.998046875 509.668945312 -20.3310546875 526.001953125 -18.998046875 554.001953125 c 0
 -16.3310546875 597.334960938 -12.3310546875 626.001953125 -6.998046875 640.001953125 c 0
 -1.6650390625 654.001953125 14.001953125 675.668945312 40.001953125 705.001953125 c 0
 42.001953125 707.001953125 60.6689453125 720.668945312 96.001953125 746.001953125 c 0
 105.334960938 753.334960938 113.334960938 758.001953125 120.001953125 760.001953125 c 0
EndSplineSet
Validated: 524289
EndChar

StartChar: colon
Encoding: 58 58 28
Width: 228
GlyphClass: 2
Flags: W
LayerCount: 2
Fore
SplineSet
71 538 m 0
 76.3330078125 540.666992188 81 542 85 542 c 0
 89.6669921875 542 98.333984375 540 111.000976562 536 c 0
 126.333984375 530.666992188 138.666992188 522.666992188 148 512 c 0
 160 500 166 487 166 473 c 0
 166 459.666992188 159.333007812 445.333984375 146 430.000976562 c 0
 132 416.000976562 119.333007812 409.000976562 108 409.000976562 c 0
 98 409.000976562 85.3330078125 413.66796875 70 423.000976562 c 0
 54.6669921875 432.333984375 44.6669921875 444.666992188 40 460 c 0
 38 466.666992188 37 474 37 482 c 0
 37 509.333007812 48.3330078125 528 71 538 c 0
72 217 m 1
 84 216 l 1
 80 212.666992188 76 213 72 217 c 1
107 217 m 0
 114.333007812 219 121.668945312 220 129.001953125 220 c 0
 146.334960938 220 159.66796875 216.666992188 169.000976562 210 c 0
 183.66796875 200 191.000976562 183.666992188 191.000976562 161 c 0
 191.000976562 157.666992188 190.66796875 155 190.000976562 153 c 0
 187.333984375 143.666992188 181.166992188 133.666992188 171.5 123 c 0
 161.833007812 112.333007812 152 105 142 101 c 0
 132 96.3330078125 122 94 112 94 c 0
 86 94 73 113.333007812 73 152 c 0
 73 187.333007812 84.3330078125 209 107 217 c 0
EndSplineSet
Validated: 1
EndChar

StartChar: semicolon
Encoding: 59 59 29
Width: 242
GlyphClass: 2
Flags: W
LayerCount: 2
Fore
SplineSet
96 524 m 0
 107.333007812 533.333007812 121.336914062 538 138.00390625 538 c 0
 152.00390625 538 163.670898438 534.333007812 173.00390625 527 c 0
 181.670898438 519.666992188 187.670898438 516 191.00390625 516 c 0
 197.00390625 516 200.00390625 509.666992188 200.00390625 497 c 0
 200.00390625 478.333007812 195.336914062 461.333007812 186.00390625 446 c 0
 173.336914062 424 158.669921875 413 142.002929688 413 c 0
 131.3359375 413 120.168945312 416.5 108.501953125 423.5 c 0
 96.8349609375 430.5 87.66796875 439 81.0009765625 449 c 0
 74.333984375 459.666992188 71.0009765625 467.666992188 71.0009765625 473 c 0
 71.0009765625 477.666992188 72.0009765625 483.333984375 74.0009765625 490.000976562 c 0
 77.333984375 503.333984375 84.6669921875 514.666992188 96 524 c 0
60.00390625 438 m 2
 60.00390625 439.000976562 l 2
 58.6708984375 442.333984375 58.1708984375 444.166992188 58.50390625 444.5 c 0
 58.8369140625 444.833007812 60.3369140625 443.333007812 63.00390625 440 c 2
 67.00390625 437 l 2
 74.3369140625 431 78.00390625 425 78.00390625 419 c 0
 78.00390625 415 75.6708984375 413 71.00390625 413 c 0
 65.6708984375 413 63.00390625 415.666992188 63.00390625 421 c 0
 63.00390625 427 62.00390625 432.666992188 60.00390625 438 c 2
188.00390625 426.000976562 m 0
 192.00390625 434.66796875 195.336914062 439.001953125 198.00390625 439.001953125 c 0
 204.00390625 439.001953125 204.336914062 434.334960938 199.00390625 425.001953125 c 2
 192.00390625 416.001953125 l 2
 186.00390625 410.668945312 182.670898438 408.668945312 182.00390625 410.001953125 c 0
 181.336914062 411.334960938 183.336914062 416.66796875 188.00390625 426.000976562 c 0
40.00390625 393.001953125 m 0
 40.6708984375 394.334960938 41.3349609375 397.666992188 42.001953125 403 c 0
 42.6689453125 409.666992188 43.3359375 413.333984375 44.0029296875 414.000976562 c 1
 46.0029296875 406.000976562 l 2
 48.669921875 396.66796875 47.3369140625 390.000976562 42.00390625 386.000976562 c 0
 39.3369140625 384.000976562 38.00390625 383.66796875 38.00390625 385.000976562 c 0
 38.00390625 385.66796875 38.6708984375 388.334960938 40.00390625 393.001953125 c 0
164.000976562 398.000976562 m 0
 166.000976562 401.333984375 169 403.000976562 173 403.000976562 c 0
 175.666992188 403.000976562 174.333984375 399.66796875 169.000976562 393.000976562 c 0
 163.000976562 386.333984375 156.000976562 383.000976562 148.000976562 383.000976562 c 0
 143.333984375 383.000976562 141.000976562 384.66796875 141.000976562 388.000976562 c 0
 141.000976562 391.333984375 144.000976562 393.000976562 150.000976562 393.000976562 c 0
 157.333984375 393.000976562 162.000976562 394.66796875 164.000976562 398.000976562 c 0
121 361.000976562 m 0
 119.666992188 365.000976562 120.333007812 367 123 367 c 0
 127 367 130 364.333007812 132 359 c 0
 133.333007812 355 133 353 131 353 c 0
 127 353.666992188 123.666992188 356.333984375 121 361.000976562 c 0
98.9990234375 315 m 0
 108.999023438 318.333007812 116.331054688 320 120.998046875 320 c 0
 130.998046875 320 141.998046875 314.333007812 153.998046875 303 c 0
 165.331054688 292.333007812 170.998046875 282.666015625 170.998046875 273.999023438 c 0
 170.998046875 272.666015625 170.331054688 265.333007812 168.998046875 252 c 0
 166.998046875 234 162.831054688 212.666992188 156.498046875 188 c 0
 150.165039062 163.333007812 144.998046875 148.666015625 140.998046875 143.999023438 c 0
 138.331054688 140.666015625 135.6640625 132.333007812 132.997070312 119 c 0
 130.997070312 107 127.330078125 98.3330078125 121.997070312 93 c 0
 117.330078125 89.6669921875 114.997070312 84 114.997070312 76 c 0
 114.997070312 68.6669921875 111.497070312 59.5 104.497070312 48.5 c 0
 97.4970703125 37.5 90.6640625 31 83.9970703125 29 c 0
 76.6640625 26.3330078125 68.6640625 26.3330078125 59.9970703125 29 c 0
 54.6640625 30.3330078125 51.3310546875 32.3330078125 49.998046875 35 c 0
 48.6650390625 37.6669921875 48.33203125 43.333984375 48.9990234375 52.0009765625 c 0
 52.9990234375 72.0009765625 58.33203125 90.0009765625 64.9990234375 106.000976562 c 0
 73.666015625 128.000976562 77.9990234375 151.333984375 77.9990234375 176.000976562 c 0
 77.9990234375 194.000976562 75.33203125 213.000976562 69.9990234375 233.000976562 c 0
 65.9990234375 245.000976562 63.9990234375 256.000976562 63.9990234375 266.000976562 c 0
 63.9990234375 289.333984375 75.666015625 305.666992188 98.9990234375 315 c 0
179.998046875 290 m 0
 178.665039062 295.333007812 178.997070312 298.333007812 180.997070312 299 c 0
 181.6640625 299 182.331054688 298.666992188 182.998046875 298 c 0
 189.665039062 295.333007812 192.665039062 290.333007812 191.998046875 283 c 0
 190.665039062 281 189.33203125 279.666992188 187.999023438 279 c 0
 185.33203125 279 182.665039062 282.666992188 179.998046875 290 c 0
173.997070312 187 m 0
 175.997070312 190.333007812 179.665039062 192 184.998046875 192 c 0
 192.331054688 192 192.6640625 189.333007812 185.997070312 184 c 0
 183.330078125 182 180.997070312 181 178.997070312 181 c 0
 172.997070312 181 171.330078125 183 173.997070312 187 c 0
EndSplineSet
Validated: 1
EndChar

StartChar: less
Encoding: 60 60 30
Width: 459
GlyphClass: 2
Flags: W
LayerCount: 2
Fore
SplineSet
126.872070312 294.501953125 m 1
 137.868164062 281.735351562 162.38671875 265.403320312 200.428710938 245.499023438 c 0
 218.052734375 236.252929688 232.283203125 230.985351562 243.120117188 229.697265625 c 1
 298.645507812 192.431640625 l 1
 344.999023438 158.65234375 l 1
 362.506835938 145.536132812 l 1
 382.567382812 136.583007812 l 1
 408.72265625 133.3984375 l 2
 411.291015625 132.811523438 413.701171875 140.723632812 415.953125 157.135742188 c 0
 416.743164062 163.55859375 417.055664062 167.533203125 416.891601562 169.060546875 c 0
 416.751953125 169.961914062 414.717773438 174.349609375 410.7890625 182.22265625 c 0
 405.590820312 192.811523438 400.185546875 198.766601562 394.573242188 200.086914062 c 0
 384.368164062 202.653320312 379.162109375 204.055664062 378.955078125 204.29296875 c 0
 359.084960938 227.375976562 338.015625 243.240234375 315.747070312 251.88671875 c 0
 314.2890625 252.470703125 292.043945312 263.649414062 249.01171875 285.422851562 c 0
 226.034179688 297.172851562 212.969726562 303.834960938 209.818359375 305.41015625 c 0
 204.452148438 307.721679688 191.982421875 314.145507812 172.409179688 324.681640625 c 0
 155.478515625 334.065429688 145.419921875 338.99609375 142.232421875 339.473632812 c 0
 134.165039062 340.939453125 130.651367188 342.594726562 131.69140625 344.439453125 c 2
 159.7890625 383.940429688 l 1
 207.596679688 430.922851562 l 1
 218.311523438 432.15234375 232.610351562 436.922851562 250.494140625 445.234375 c 0
 290.711914062 463.643554688 318.142578125 481.3125 332.786132812 498.241210938 c 0
 342.478515625 509.491210938 358.89453125 515.720703125 382.034179688 516.928710938 c 0
 393.876953125 517.663085938 401.6484375 519.068359375 405.348632812 521.14453125 c 0
 408.340820312 522.956054688 411.395507812 527.311523438 414.512695312 534.211914062 c 0
 421.73828125 549.66015625 423.484375 566.178710938 419.751953125 583.768554688 c 0
 417.705078125 593.38671875 413.913085938 600.104492188 408.375 603.921875 c 0
 403.265625 607.877929688 396.989257812 607.7265625 389.544921875 603.467773438 c 2
 363.331054688 588.974609375 l 1
 339.580078125 563.541992188 324.645507812 550.228515625 318.526367188 549.034179688 c 0
 317.344726562 548.771484375 312.608398438 546.932617188 304.317382812 543.517578125 c 0
 291.315429688 538.672851562 281.19140625 534.094726562 273.944335938 529.782226562 c 0
 255.333984375 519.033203125 242.180664062 511.049804688 234.483398438 505.831054688 c 0
 212.978515625 491.130859375 190.094726562 482.157226562 165.83203125 478.911132812 c 1
 131.814453125 459.422851562 l 2
 119.7421875 451.369140625 98.4150390625 438.563476562 67.8330078125 421.005859375 c 1
 57.9736328125 412.227539062 l 2
 53.7587890625 410.373046875 47.541015625 402.728515625 39.3212890625 389.294921875 c 0
 35.0693359375 382.323242188 32.9775390625 378.017578125 33.0458984375 376.376953125 c 0
 32.9775390625 374.616210938 33.234375 370.622070312 33.81640625 364.39453125 c 0
 35.3642578125 347.787109375 37.666015625 339.791992188 40.7216796875 340.41015625 c 2
 126.872070312 294.501953125 l 1
EndSplineSet
Validated: 41
EndChar

StartChar: equal
Encoding: 61 61 31
Width: 496
GlyphClass: 2
Flags: W
LayerCount: 2
Fore
SplineSet
34.2685546875 302.010742188 m 0
 30.572265625 308.359375 28.5419921875 315.271484375 28.1826171875 322.75390625 c 0
 27.5078125 336.784179688 34.177734375 347.963867188 48.1923828125 356.29296875 c 0
 62.205078125 364.62109375 78.9345703125 369.357421875 98.380859375 370.501953125 c 0
 129.663085938 372.342773438 150.358398438 365.119140625 160.467773438 348.831054688 c 0
 165.991210938 339.775390625 188.2890625 334.521484375 227.360351562 333.069335938 c 0
 277.466796875 331.328125 318.274414062 329.040039062 349.782226562 326.205078125 c 0
 394.060546875 322.245117188 422.43359375 314.065429688 434.900390625 301.666992188 c 0
 448.256835938 288.3828125 455.047851562 279.40234375 455.272460938 274.725585938 c 0
 455.90234375 261.630859375 443.749023438 249.89453125 418.8125 239.516601562 c 0
 393.875 229.138671875 362.806640625 222.85546875 325.606445312 220.666992188 c 0
 322.224609375 220.46875 317.140625 220.404296875 310.354492188 220.473632812 c 0
 303.568359375 220.54296875 298.484375 220.477539062 295.102539062 220.27734375 c 0
 246.73046875 221.182617188 193.926757812 230.50390625 136.690429688 248.241210938 c 0
 79.455078125 265.977539062 45.314453125 283.900390625 34.2685546875 302.010742188 c 0
40.2724609375 475.943359375 m 0
 31.4228515625 486.645507812 27.16796875 496.150390625 27.50390625 504.45703125 c 0
 27.16796875 513.483398438 32.22265625 522.690429688 42.66796875 532.078125 c 0
 49.5556640625 538.690429688 62.845703125 542.248046875 82.5380859375 542.750976562 c 0
 116.845703125 543.581054688 167.666015625 542.663085938 234.999023438 539.99609375 c 0
 327.666015625 535.99609375 388.090820312 531.7265625 416.274414062 527.188476562 c 0
 444.090820312 522.393554688 460.641601562 512.965820312 465.927734375 498.904296875 c 0
 469.975585938 487.631835938 471.752929688 479.612304688 471.259765625 474.844726562 c 0
 470.419921875 465.612304688 464.8828125 455.015625 454.647460938 443.053710938 c 0
 442.215820312 429.681640625 424.583007812 423.686523438 401.75 425.067382812 c 0
 386.583007812 426.353515625 367.616210938 428.83203125 344.849609375 432.502929688 c 0
 321.616210938 436.166015625 300.341796875 439.186523438 281.026367188 441.565429688 c 0
 259.6953125 444.119140625 237.091796875 445.776367188 213.21484375 446.538085938 c 2
 185.278320312 447.4296875 l 2
 178.42578125 447.141601562 167.623046875 447.251953125 152.869140625 447.76171875 c 0
 138.956054688 447.918945312 129.846679688 447.974609375 125.541015625 447.9296875 c 0
 97.8466796875 449.307617188 79.29296875 451.5390625 69.8798828125 454.623046875 c 0
 57.958984375 458.206054688 48.08984375 465.3125 40.2724609375 475.943359375 c 0
EndSplineSet
Validated: 33
EndChar

StartChar: greater
Encoding: 62 62 32
Width: 437
GlyphClass: 2
Flags: W
LayerCount: 2
Fore
SplineSet
316.127929688 307.501953125 m 1
 305.131835938 294.735351562 280.61328125 278.403320312 242.571289062 258.499023438 c 0
 224.947265625 249.252929688 210.716796875 243.985351562 199.879882812 242.697265625 c 1
 144.354492188 205.431640625 l 1
 98.0009765625 171.65234375 l 1
 80.4931640625 158.536132812 l 1
 60.4326171875 149.583007812 l 1
 34.27734375 146.3984375 l 2
 31.708984375 145.811523438 29.298828125 153.723632812 27.046875 170.135742188 c 0
 26.2568359375 176.55859375 25.9443359375 180.533203125 26.1083984375 182.060546875 c 0
 26.248046875 182.961914062 28.2822265625 187.349609375 32.2109375 195.22265625 c 0
 37.4091796875 205.811523438 42.814453125 211.766601562 48.4267578125 213.086914062 c 0
 58.6318359375 215.653320312 63.837890625 217.055664062 64.044921875 217.29296875 c 0
 83.9150390625 240.375976562 104.984375 256.240234375 127.252929688 264.88671875 c 0
 128.7109375 265.470703125 150.956054688 276.649414062 193.98828125 298.422851562 c 0
 216.965820312 310.172851562 230.030273438 316.834960938 233.181640625 318.41015625 c 0
 238.547851562 320.721679688 251.017578125 327.145507812 270.590820312 337.681640625 c 0
 287.521484375 347.065429688 297.580078125 351.99609375 300.767578125 352.473632812 c 0
 308.834960938 353.939453125 312.348632812 355.594726562 311.30859375 357.439453125 c 2
 283.2109375 396.940429688 l 1
 235.403320312 443.922851562 l 1
 224.688476562 445.15234375 210.389648438 449.922851562 192.505859375 458.234375 c 0
 152.288085938 476.643554688 124.857421875 494.3125 110.213867188 511.241210938 c 0
 100.521484375 522.491210938 84.10546875 528.720703125 60.9658203125 529.928710938 c 0
 49.123046875 530.663085938 41.3515625 532.068359375 37.6513671875 534.14453125 c 0
 34.6591796875 535.956054688 31.6044921875 540.311523438 28.4873046875 547.211914062 c 0
 21.26171875 562.66015625 19.515625 579.178710938 23.248046875 596.768554688 c 0
 25.294921875 606.38671875 29.0869140625 613.104492188 34.625 616.921875 c 0
 39.734375 620.877929688 46.0107421875 620.7265625 53.455078125 616.467773438 c 2
 79.6689453125 601.974609375 l 1
 103.419921875 576.541992188 118.354492188 563.228515625 124.473632812 562.034179688 c 0
 125.655273438 561.771484375 130.391601562 559.932617188 138.682617188 556.517578125 c 0
 151.684570312 551.672851562 161.80859375 547.094726562 169.055664062 542.782226562 c 0
 187.666015625 532.033203125 200.819335938 524.049804688 208.516601562 518.831054688 c 0
 230.021484375 504.130859375 252.905273438 495.157226562 277.16796875 491.911132812 c 1
 311.185546875 472.422851562 l 2
 323.2578125 464.369140625 344.584960938 451.563476562 375.166992188 434.005859375 c 1
 385.026367188 425.227539062 l 2
 389.241210938 423.373046875 395.458984375 415.728515625 403.678710938 402.294921875 c 0
 407.930664062 395.323242188 410.022460938 391.017578125 409.954101562 389.376953125 c 0
 410.022460938 387.616210938 409.765625 383.622070312 409.18359375 377.39453125 c 0
 407.635742188 360.787109375 405.333984375 352.791992188 402.278320312 353.41015625 c 2
 316.127929688 307.501953125 l 1
EndSplineSet
Validated: 33
EndChar

StartChar: question
Encoding: 63 63 33
Width: 327
GlyphClass: 2
Flags: W
HStem: -106.002 91.999<38.5809 110.106> 630 124.998<-62.9197 2.71463>
VStem: 29.999 93<-97.6669 -26.8956> 231 90.998<227.218 384.905>
LayerCount: 2
Fore
SplineSet
-108 705 m 0
 -102 717 -81.333984375 728.331054688 -46.0009765625 738.998046875 c 0
 -10.66796875 749.665039062 21.33203125 754.998046875 49.9990234375 754.998046875 c 2
 58.9990234375 754.998046875 l 2
 74.9990234375 754.998046875 87.666015625 750.665039062 96.9990234375 741.998046875 c 0
 106.999023438 733.998046875 126.666015625 712.998046875 155.999023438 678.998046875 c 0
 185.33203125 644.998046875 173.665039062 643.665039062 184.998046875 626.998046875 c 0
 196.998046875 609.665039062 213.665039062 581.83203125 234.998046875 543.499023438 c 0
 256.331054688 505.166015625 270.331054688 477.999023438 276.998046875 461.999023438 c 0
 283.665039062 446.666015625 289.33203125 434.999023438 293.999023438 426.999023438 c 0
 309.33203125 398.33203125 318.665039062 346.33203125 321.998046875 270.999023438 c 0
 322.665039062 255.666015625 322.998046875 238.666015625 322.998046875 219.999023438 c 0
 322.998046875 199.999023438 319.665039062 184.666015625 312.998046875 173.999023438 c 0
 297.665039062 149.33203125 256.33203125 120.33203125 188.999023438 86.9990234375 c 0
 152.33203125 68.9990234375 130.33203125 59.9990234375 122.999023438 59.9990234375 c 0
 119.666015625 59.9990234375 115.333007812 60.9990234375 110 62.9990234375 c 0
 100.666992188 66.33203125 92.6669921875 72.33203125 86 80.9990234375 c 0
 79.3330078125 89.666015625 76 98.9990234375 76 108.999023438 c 0
 76 126.33203125 102.666992188 148.665039062 156 175.998046875 c 0
 176 186.665039062 189 193.665039062 195 196.998046875 c 0
 201 200.331054688 208 204.998046875 216 210.998046875 c 0
 224 216.998046875 228.5 222.331054688 229.5 226.998046875 c 0
 230.5 231.665039062 231 238.33203125 231 246.999023438 c 0
 231 250.33203125 230.333007812 260.665039062 229 277.998046875 c 0
 227 311.998046875 221.333007812 344.665039062 212 375.998046875 c 0
 201.333007812 414.665039062 175.5 462.83203125 146.5 512.499023438 c 0
 117.5 562.166015625 113.752733282 566.901808417 86 612 c 2
 62 651 l 1
 29 656 l 2
 14.2393265696 658.236465671 -6.6669921875 648 -30 640 c 0
 -50 633.333007812 -65 630 -75 630 c 2
 -78 630 l 1
 -80 631 l 2
 -90 633.666992188 -98 639.666992188 -104 649 c 0
 -110 658.333007812 -113 672.333007812 -113 683 c 0
 -113 691.666992188 -111.333007812 699 -108 705 c 0
42.9990234375 -27.001953125 m 0
 50.9990234375 -18.3349609375 61.9990234375 -14.0029296875 75.9990234375 -14.0029296875 c 0
 90.666015625 -14.0029296875 102.166015625 -18.169921875 110.499023438 -26.5029296875 c 0
 118.83203125 -34.8359375 122.999023438 -46.0029296875 122.999023438 -60.0029296875 c 0
 122.999023438 -81.3359375 112.999023438 -95.6689453125 92.9990234375 -103.001953125 c 0
 88.33203125 -105.001953125 82.9990234375 -106.001953125 76.9990234375 -106.001953125 c 0
 64.33203125 -106.001953125 53.33203125 -101.001953125 43.9990234375 -91.001953125 c 0
 34.666015625 -81.001953125 29.9990234375 -69.6689453125 29.9990234375 -57.001953125 c 0
 29.9990234375 -45.6689453125 34.33203125 -35.6689453125 42.9990234375 -27.001953125 c 0
EndSplineSet
Validated: 524321
EndChar

StartChar: at
Encoding: 64 64 34
Width: 500
GlyphClass: 2
Flags: W
HStem: 5.99707 53.001<180.198 367.799> 141.996 69.0039<192.034 256.224> 503.995 23<479.042 497.784> 556.999 112.996<191.133 295.573>
VStem: 108.002 82.999<213.381 264.914> 293.001 62.001<255.585 288.853> 349.002 120.001<440.601 511.869> 438.002 76.001<211.232 406.224> 479.003 23<508.214 526.956>
LayerCount: 2
Fore
SplineSet
274 260 m 0xfc
 286.666992188 280.666992188 293.000976562 292.998046875 293.000976562 296.998046875 c 0
 293.000976562 299.665039062 288.000976562 297.998046875 278.000976562 291.998046875 c 0
 272.000976562 288.665039062 260.66796875 284.665039062 244.000976562 279.998046875 c 0
 232.66796875 276.665039062 221.000976562 270.83203125 209.000976562 262.499023438 c 0
 197.000976562 254.166015625 191.000976562 245.333007812 191.000976562 236 c 0
 191.000976562 235.333007812 191.16796875 234.5 191.500976562 233.5 c 0
 191.833984375 232.5 192.000976562 231.666992188 192.000976562 231 c 0
 193.333984375 223 200.666992188 217 214 213 c 0
 217.333007812 211.666992188 222 211 228 211 c 0
 234.666992188 211 241 214.333007812 247 221 c 0
 253 227.666992188 262 240.666992188 274 260 c 0xfc
175.000976562 636.998046875 m 0
 195.66796875 658.998046875 215.669921875 669.995117188 235.002929688 669.995117188 c 0
 242.3359375 669.995117188 249.002929688 667.995117188 255.002929688 663.995117188 c 0
 261.002929688 659.995117188 269.3359375 656.662109375 280.002929688 653.995117188 c 0
 300.002929688 648.662109375 321.669921875 634.329101562 345.002929688 610.99609375 c 0
 368.3359375 587.663085938 383.002929688 565.330078125 389.002929688 543.997070312 c 2
 397.002929688 515.997070312 l 1
 425.002929688 515.997070312 l 2
 444.3359375 515.997070312 456.502929688 514.6640625 461.502929688 511.997070312 c 0
 466.502929688 509.330078125 469.002929688 502.997070312 469.002929688 492.997070312 c 0xfa
 469.002929688 480.997070312 472.669921875 469.6640625 480.002929688 458.997070312 c 0
 502.669921875 423.6640625 514.002929688 386.331054688 514.002929688 346.998046875 c 0
 514.002929688 330.331054688 512.002929688 313.6640625 508.002929688 296.997070312 c 0
 502.669921875 275.6640625 498.002929688 251.6640625 494.002929688 224.997070312 c 0
 490.002929688 194.330078125 486.002929688 171.997070312 482.002929688 157.997070312 c 0
 478.002929688 143.997070312 471.002929688 126.997070312 461.002929688 106.997070312 c 0
 443.002929688 70.9970703125 421.502929688 45.1640625 396.502929688 29.4970703125 c 0
 371.502929688 13.830078125 339.3359375 5.9970703125 300.002929688 5.9970703125 c 0
 238.669921875 5.9970703125 196.336914062 14.6640625 173.00390625 31.9970703125 c 0
 156.336914062 43.330078125 142.336914062 51.9970703125 131.00390625 57.9970703125 c 0
 117.00390625 65.9970703125 108.336914062 71.9970703125 105.00390625 75.9970703125 c 0
 104.336914062 76.6640625 101.836914062 79.8310546875 97.50390625 85.498046875 c 0
 93.1708984375 91.1650390625 87.6708984375 98.33203125 81.00390625 106.999023438 c 0
 74.3369140625 115.666015625 68.00390625 123.999023438 62.00390625 131.999023438 c 0
 54.00390625 141.999023438 47.6708984375 150.499023438 43.00390625 157.499023438 c 0
 38.3369140625 164.499023438 34.50390625 170.33203125 31.50390625 174.999023438 c 0
 28.50390625 179.666015625 26.1708984375 185.166015625 24.50390625 191.499023438 c 0
 22.8369140625 197.83203125 21.669921875 202.499023438 21.0029296875 205.499023438 c 0
 20.3359375 208.499023438 19.1689453125 215.166015625 17.501953125 225.499023438 c 0
 15.8349609375 235.83203125 14.3349609375 244.33203125 13.001953125 250.999023438 c 0
 9.6689453125 267.666015625 5.001953125 286.999023438 -0.998046875 308.999023438 c 0
 -6.3310546875 325.666015625 -8.998046875 337.666015625 -8.998046875 344.999023438 c 0
 -8.998046875 348.33203125 -7.998046875 351.33203125 -5.998046875 353.999023438 c 0
 -2.6650390625 357.33203125 0.001953125 358.999023438 2.001953125 358.999023438 c 0
 8.6689453125 358.999023438 14.3359375 342.999023438 19.0029296875 310.999023438 c 0
 25.669921875 272.33203125 30.0029296875 249.165039062 32.0029296875 241.498046875 c 0
 34.0029296875 233.831054688 37.3359375 229.998046875 42.0029296875 229.998046875 c 0
 56.0029296875 229.998046875 59.0029296875 224.998046875 51.0029296875 214.998046875 c 0
 49.0029296875 212.998046875 48.0029296875 209.998046875 48.0029296875 205.998046875 c 0
 48.0029296875 189.998046875 57.0029296875 170.331054688 75.0029296875 146.998046875 c 0
 81.0029296875 138.998046875 85.169921875 134.665039062 87.5029296875 133.998046875 c 0
 89.8359375 133.331054688 92.3359375 134.998046875 95.0029296875 138.998046875 c 0
 99.0029296875 145.665039062 104.3359375 145.665039062 111.002929688 138.998046875 c 0
 117.002929688 132.998046875 118.002929688 127.665039062 114.002929688 122.998046875 c 0
 112.669921875 121.665039062 112.002929688 119.665039062 112.002929688 116.998046875 c 0
 112.002929688 105.665039062 130.169921875 93.6650390625 166.502929688 80.998046875 c 0
 202.8359375 68.3310546875 240.668945312 60.998046875 280.001953125 58.998046875 c 0
 283.334960938 58.998046875 288.001953125 58.8310546875 294.001953125 58.498046875 c 0
 300.001953125 58.1650390625 304.001953125 57.998046875 306.001953125 57.998046875 c 0
 322.001953125 57.998046875 337.668945312 62.3310546875 353.001953125 70.998046875 c 0
 371.001953125 80.998046875 384.334960938 93.3310546875 393.001953125 107.998046875 c 0
 399.668945312 119.331054688 406.168945312 134.831054688 412.501953125 154.498046875 c 0
 418.834960938 174.165039062 422.001953125 188.998046875 422.001953125 198.998046875 c 0
 422.001953125 208.331054688 425.334960938 224.6640625 432.001953125 247.997070312 c 0
 436.001953125 267.330078125 438.001953125 281.663085938 438.001953125 290.99609375 c 0
 438.001953125 299.663085938 437.001953125 311.99609375 435.001953125 327.99609375 c 0
 430.334960938 362.663085938 425.834960938 385.49609375 421.501953125 396.49609375 c 0
 417.168945312 407.49609375 411.3359375 412.99609375 404.002929688 412.99609375 c 0
 395.3359375 412.99609375 387.668945312 393.329101562 381.001953125 353.99609375 c 0
 377.001953125 328.663085938 372.001953125 310.99609375 366.001953125 300.99609375 c 0
 358.668945312 288.99609375 355.001953125 280.329101562 355.001953125 274.99609375 c 0xfd
 355.001953125 270.329101562 348.334960938 253.99609375 335.001953125 225.99609375 c 0
 325.668945312 205.99609375 318.501953125 193.163085938 313.501953125 187.49609375 c 0
 308.501953125 181.829101562 299.001953125 175.329101562 285.001953125 167.99609375 c 0
 266.334960938 157.99609375 246.66796875 150.329101562 226.000976562 144.99609375 c 0
 216.000976562 142.99609375 208.66796875 141.99609375 204.000976562 141.99609375 c 0
 198.000976562 141.99609375 188.000976562 144.99609375 174.000976562 150.99609375 c 0
 156.66796875 158.99609375 141.334960938 170.49609375 128.001953125 185.49609375 c 0
 114.668945312 200.49609375 108.001953125 213.329101562 108.001953125 223.99609375 c 0
 108.001953125 233.99609375 111.668945312 244.329101562 119.001953125 254.99609375 c 0
 126.334960938 265.663085938 143.334960938 285.330078125 170.001953125 313.997070312 c 0
 192.001953125 338.6640625 208.834960938 354.331054688 220.501953125 360.998046875 c 0
 232.168945312 367.665039062 251.001953125 373.33203125 277.001953125 377.999023438 c 0
 300.334960938 381.999023438 315.501953125 387.666015625 322.501953125 394.999023438 c 0
 329.501953125 402.33203125 336.001953125 419.999023438 342.001953125 447.999023438 c 0
 346.668945312 469.999023438 349.001953125 482.33203125 349.001953125 484.999023438 c 0xfa
 349.001953125 490.33203125 346.334960938 498.33203125 341.001953125 508.999023438 c 0
 331.668945312 526.999023438 310.3359375 541.33203125 277.002929688 551.999023438 c 0
 265.002929688 555.33203125 255.669921875 556.999023438 249.002929688 556.999023438 c 0
 233.669921875 556.999023438 212.669921875 548.666015625 186.002929688 531.999023438 c 0
 157.3359375 514.666015625 141.668945312 505.999023438 139.001953125 505.999023438 c 0
 134.334960938 505.999023438 122.16796875 501.166015625 102.500976562 491.499023438 c 0
 82.833984375 481.83203125 68.333984375 473.665039062 59.0009765625 466.998046875 c 0
 47.0009765625 457.665039062 39.0009765625 445.998046875 35.0009765625 431.998046875 c 0
 30.333984375 418.665039062 25.333984375 411.33203125 20.0009765625 409.999023438 c 0
 13.333984375 407.33203125 9.0009765625 400.665039062 7.0009765625 389.998046875 c 0
 5.0009765625 378.665039062 1.333984375 372.998046875 -3.9990234375 372.998046875 c 0
 -7.9990234375 372.998046875 -10.9990234375 376.998046875 -12.9990234375 384.998046875 c 0
 -13.666015625 386.998046875 -13.9990234375 389.998046875 -13.9990234375 393.998046875 c 0
 -13.9990234375 403.998046875 -6.9990234375 419.998046875 7.0009765625 441.998046875 c 0
 15.66796875 455.331054688 20.0009765625 464.998046875 20.0009765625 470.998046875 c 0
 20.0009765625 476.331054688 29.66796875 490.331054688 49.0009765625 512.998046875 c 0
 68.333984375 535.665039062 81.0009765625 547.998046875 87.0009765625 549.998046875 c 0
 97.0009765625 553.331054688 126.333984375 582.331054688 175.000976562 636.998046875 c 0
479.002929688 516.995117188 m 0xf880
 479.002929688 523.662109375 482.3359375 526.995117188 489.002929688 526.995117188 c 0
 495.669921875 526.995117188 500.002929688 524.995117188 502.002929688 520.995117188 c 0
 504.002929688 516.995117188 502.669921875 512.662109375 498.002929688 507.995117188 c 0
 493.3359375 503.328125 489.002929688 501.995117188 485.002929688 503.995117188 c 0
 481.002929688 505.995117188 479.002929688 510.328125 479.002929688 516.995117188 c 0xf880
EndSplineSet
Validated: 524289
EndChar

StartChar: A
Encoding: 65 65 35
Width: 329
GlyphClass: 2
Flags: HMW
HStem: 119.001 61.999<153.997 192>
VStem: -27.002 58 15.999 105.997 77.998 62.001<304.001 305.001 292.001 306.001 304.001 304.001> 301.714 40.7852
LayerCount: 2
Fore
SplineSet
250 136 m 0x88
 227 128 180.366210938 112.408203125 162.728515625 112.408203125 c 0
 145.893554688 112.408203125 130.046875 114.793945312 101.186523438 119.56640625 c 0
 97.1787109375 120.248046875 80.34375 121.611328125 74.7314453125 121.611328125 c 0
 69.921875 121.611328125 66.11328125 120.41796875 63.3076171875 118.032226562 c 0
 60.501953125 115.646484375 52.0693359375 107.254882812 49.48046875 99.1162109375 c 0
 9.7998046875 -25.6298828125 25.1220703125 -49.640625 13.4052734375 -61.416015625 c 0
 4.5869140625 -70.2783203125 -9.4423828125 -74.708984375 -28.6826171875 -74.708984375 c 0
 -37.5 -74.708984375 -43.5126953125 -73.345703125 -46.7197265625 -70.619140625 c 0
 -53.1328125 -65.166015625 -56.33984375 -56.986328125 -56.33984375 -46.0791015625 c 0
 -56.33984375 -29.037109375 -50.3271484375 -12.6767578125 -38.302734375 3.0009765625 c 0
 -29.484375 15.271484375 -24.0732421875 26.177734375 -22.068359375 35.720703125 c 0
 -20.064453125 45.263671875 -18.6611328125 69.4638671875 -17.8583984375 108.318359375 c 0
 -16.255859375 149.21875 -13.4501953125 177.166015625 -9.4423828125 192.163085938 c 0
 -5.4345703125 207.16015625 0.578125 214.658203125 8.5947265625 214.658203125 c 0
 19.017578125 214.658203125 32.0439453125 225.39453125 47.6767578125 246.8671875 c 0
 63.30859375 268.33984375 71.125 285.551757812 71.125 298.50390625 c 0
 71.125 299.185546875 70.724609375 300.208007812 69.9228515625 301.571289062 c 2
 69.9228515625 303.616210938 l 2
 69.1201171875 305.661132812 67.91796875 310.432617188 66.3154296875 317.930664062 c 0
 64.7119140625 325.428710938 62.5078125 336.165039062 59.7021484375 350.139648438 c 0
 56.8974609375 364.114257812 54.291015625 375.873046875 51.88671875 385.416015625 c 0
 42.2666015625 431.768554688 41.4638671875 450.173828125 27.8359375 481.53125 c 0
 6.19140625 527.203125 -4.630859375 569.465820312 -4.630859375 608.321289062 c 0
 -4.630859375 636.951171875 2.18359375 655.015625 15.8115234375 662.513671875 c 0
 23.828125 665.921875 31.8408203125 667.622070312 39.857421875 667.622070312 c 0
 54.2880859375 667.622070312 83.1474609375 663.532226562 92.767578125 655.3515625 c 0
 101.5859375 647.853515625 119.623046875 630.811523438 122.830078125 606.272460938 c 0
 129.243164062 538.787109375 136.2578125 522.426757812 141.467773438 506.067382812 c 0
 146.678710938 489.70703125 152.891601562 476.754882812 181.751953125 426.311523438 c 0
 217.826171875 364.280273438 239.471679688 331.559570312 246.686523438 328.15234375 c 0
 254.704101562 324.061523438 267.12890625 311.791992188 283.963867188 291.341796875 c 0
 298.501953125 273.682617188 306.0703125 250.60546875 316.892578125 244.129882812 c 0
 324.909179688 238.676757812 340.9375 197.775390625 340.9375 186.868164062 c 0
 340.9375 177.325195312 339.13671875 153.819335938 331.91796875 140.014648438 c 0
 318.694335938 113.942382812 334.702148438 100.137695312 338.305664062 80.708984375 c 0
 347.01953125 33.7138671875 346.604492188 1.888671875 363.5625 -32.787109375 c 0
 366.265625 -38.31640625 374.384765625 -48.125 374.985351562 -59.2294921875 c 0
 375.587890625 -66.5302734375 370.747070312 -70.6171875 363.599609375 -75.0234375 c 0
 356.453125 -79.4296875 349.279296875 -81.4443359375 342.078125 -81.06640625 c 0
 333.27734375 -80.60546875 327.897460938 -77.25 325.94140625 -71.0009765625 c 0
 319.825195312 -55.6552734375 315.739257812 -45.5380859375 313.68359375 -40.6494140625 c 0
 297.045898438 -4.2626953125 295.016601562 -4.83984375 285.396484375 65.3720703125 c 2
 282.586914062 95.0927734375 l 2
 281.784179688 100.545898438 283.587890625 95.4326171875 280.783203125 104.294921875 c 0
 277.978426707 113.157507528 276.831054688 145.33203125 250 136 c 0x88
160.125 321.682617188 m 4
 153.711914062 327.135742188 148.901367188 329.86328125 145.693359375 329.86328125 c 4
 140.883789062 329.86328125 138.478515625 323.728515625 138.478515625 311.458984375 c 4
 138.478515625 297.143554688 138.466796875 265.443359375 126.44140625 246.356445312 c 0
 113.614257812 223.178710938 107.201171875 210.2265625 107.201171875 207.5 c 0
 107.201171875 204.091796875 120.829101562 196.422851562 148.0859375 184.494140625 c 0
 175.34375 172.564453125 196.587890625 175.802734375 204.60546875 175.802734375 c 0
 209.415039062 175.802734375 220.237304688 182.278320312 237.072265625 195.23046875 c 2
 259.919921875 214.657226562 l 1
 231.059570312 241.2421875 l 2
 212.622070312 258.284179688 193.39453125 288.622070312 185.377929688 302.254882812 c 4
 174.955078125 317.251953125 164.1328125 317.592773438 160.125 321.682617188 c 4
EndSplineSet
Validated: 33
EndChar

StartChar: B
Encoding: 66 66 36
Width: 402
GlyphClass: 2
Flags: W
HStem: -15.333 21G<226 240> 340.67 107.998<83.802 208.13> 602.669 78.001<133.555 200.715>
VStem: -7.33301 77<97.1653 203.119> 28.667 43<177.348 330.463> 261.667 70.998<479.911 558.022> 370.667 65<44.5193 184.734>
LayerCount: 2
Fore
SplineSet
202.666992188 597.668945312 m 4xee
 199.333984375 601.001953125 195.000976562 602.668945312 189.66796875 602.668945312 c 4
 179.000976562 602.668945312 161.333984375 596.001953125 136.666992188 582.668945312 c 4
 106 566.001953125 88.1669921875 554.334960938 83.1669921875 547.66796875 c 4
 78.1669921875 541.000976562 75 524.000976562 73.6669921875 496.66796875 c 6
 71.6669921875 448.66796875 l 5
 128.666992188 448.66796875 l 6
 160 448.66796875 183.166992188 451.000976562 198.166992188 455.66796875 c 4
 213.166992188 460.334960938 229 470.001953125 245.666992188 484.668945312 c 4
 256.333984375 493.3359375 261.666992188 501.3359375 261.666992188 508.668945312 c 4
 261.666992188 514.001953125 257 526.001953125 247.666992188 544.668945312 c 4
 237.666992188 564.001953125 228.666992188 573.668945312 220.666992188 573.668945312 c 4
 218 573.668945312 215.666992188 573.001953125 213.666992188 571.668945312 c 4
 207 567.668945312 201.666992188 567.668945312 197.666992188 571.668945312 c 4
 195.666992188 573.668945312 194.666992188 575.668945312 194.666992188 577.668945312 c 4
 194.666992188 579.668945312 196.5 582.168945312 200.166992188 585.168945312 c 4
 203.833984375 588.168945312 205.666992188 590.668945312 205.666992188 592.668945312 c 4
 205.666992188 594.001953125 204.666992188 595.668945312 202.666992188 597.668945312 c 4xee
139.666992188 675.668945312 m 4
 141.666992188 679.001953125 145.99609375 680.669921875 152.663085938 680.669921875 c 4
 167.330078125 680.669921875 180.330078125 675.669921875 191.663085938 665.669921875 c 4
 204.330078125 655.002929688 216.997070312 648.669921875 229.6640625 646.669921875 c 4
 252.997070312 642.669921875 274.997070312 630.169921875 295.6640625 609.169921875 c 4
 316.331054688 588.169921875 327.998046875 566.669921875 330.665039062 544.669921875 c 4
 331.998046875 534.002929688 332.665039062 527.002929688 332.665039062 523.669921875 c 4
 332.665039062 510.336914062 329.498046875 498.169921875 323.165039062 487.169921875 c 4
 316.83203125 476.169921875 304.665039062 459.669921875 286.665039062 437.669921875 c 4
 258.665039062 405.002929688 244.665039062 387.002929688 244.665039062 383.669921875 c 4
 244.665039062 379.669921875 254.665039062 374.002929688 274.665039062 366.669921875 c 4
 297.33203125 358.669921875 315.499023438 348.502929688 329.166015625 336.169921875 c 4
 342.833007812 323.836914062 360 302.00390625 380.666992188 270.670898438 c 4
 402.666992188 238.670898438 417.333984375 212.337890625 424.666992188 191.670898438 c 4
 432 171.00390625 435.666992188 146.00390625 435.666992188 116.670898438 c 4
 435 86.00390625 428.5 61.6708984375 416.166992188 43.6708984375 c 4
 403.833984375 25.6708984375 387.666992188 16.6708984375 367.666992188 16.6708984375 c 6
 363.666992188 16.6708984375 l 6
 350.333984375 18.00390625 343.666992188 22.3369140625 343.666992188 29.669921875 c 4
 343.666992188 35.669921875 348 44.0029296875 356.666992188 54.669921875 c 4
 366 67.3369140625 370.666992188 82.00390625 370.666992188 98.6708984375 c 6
 370.666992188 110.670898438 l 6
 370.666992188 136.00390625 367.333984375 154.336914062 360.666992188 165.669921875 c 4
 353.333984375 179.002929688 342.166992188 195.169921875 327.166992188 214.169921875 c 4
 312.166992188 233.169921875 302.666992188 242.669921875 298.666992188 242.669921875 c 4
 294.666992188 242.669921875 277.333984375 256.669921875 246.666992188 284.669921875 c 4
 220 309.336914062 202.166992188 324.836914062 193.166992188 331.169921875 c 4
 184.166992188 337.502929688 173.666992188 340.669921875 161.666992188 340.669921875 c 4
 158.333984375 340.669921875 148.666992188 340.002929688 132.666992188 338.669921875 c 4
 102.666992188 336.002929688 86.333984375 333.3359375 83.6669921875 330.668945312 c 4
 79.6669921875 326.668945312 76 297.001953125 72.6669921875 241.668945312 c 4
 70.6669921875 211.668945312 69.6669921875 190.3359375 69.6669921875 177.668945312 c 4
 69.6669921875 161.668945312 72 147.668945312 76.6669921875 135.668945312 c 4
 79.333984375 129.668945312 82.6669921875 121.168945312 86.6669921875 110.168945312 c 4
 90.6669921875 99.1689453125 94.333984375 90.001953125 97.6669921875 82.6689453125 c 4
 101 75.3359375 105.666992188 68.6689453125 111.666992188 62.6689453125 c 4
 120.333984375 53.3359375 136.666992188 47.3359375 160.666992188 44.6689453125 c 4
 256 36.001953125 307 30.3349609375 313.666992188 27.66796875 c 4
 319.666992188 25.66796875 322.666992188 23.0009765625 322.666992188 19.66796875 c 4
 322.666992188 14.3349609375 313 11.3349609375 301.666992188 4.66796875 c 4
 290.333984375 -1.9990234375 275.666992188 -7.666015625 257.666992188 -12.3330078125 c 4
 251.666992188 -14.3330078125 244.333984375 -15.3330078125 235.666992188 -15.3330078125 c 4
 216.333984375 -15.3330078125 192 -6 117 16 c 4
 35.5654296875 39.8876953125 54.1005859375 35.0478515625 14.6669921875 71.6669921875 c 4
 5.333984375 80.333984375 -0.666015625 87.1669921875 -3.3330078125 92.1669921875 c 4
 -6 97.1669921875 -7.3330078125 104 -7.3330078125 112.666992188 c 4xf6
 -7.3330078125 127.333984375 -3.3330078125 146.000976562 4.6669921875 168.66796875 c 4
 20.6669921875 214.000976562 28.6669921875 274.66796875 28.6669921875 350.66796875 c 4
 28.6669921875 424.000976562 19.6669921875 480.000976562 1.6669921875 518.66796875 c 4
 -9.666015625 543.334960938 -15.3330078125 564.334960938 -15.3330078125 581.66796875 c 4
 -15.3330078125 596.334960938 -12 607.001953125 -5.3330078125 613.668945312 c 4
 2 621.001953125 14 627.001953125 30.6669921875 631.668945312 c 4
 40 634.3359375 58.8330078125 640.668945312 77.166015625 650.668945312 c 4
 95.4990234375 660.668945312 109.666015625 666.668945312 119.666015625 668.668945312 c 4
 130.333007812 670.668945312 137 673.001953125 139.666992188 675.668945312 c 4
EndSplineSet
Validated: 1
EndChar

StartChar: C
Encoding: 67 67 37
Width: 432
GlyphClass: 2
Flags: W
HStem: -58.001 60<160.344 325.756> 591.999 110.999<244.662 356.059>
VStem: -26 75<104.141 305.226> 398 60<57.8975 219.076>
LayerCount: 2
Fore
SplineSet
382 60 m 24
 392 68.501953125 398 117.998046875 398 133.998046875 c 0
 398 156.665039062 392.666992188 180.33203125 382 204.999023438 c 0
 372 228.33203125 367 243.999023438 367 251.999023438 c 0
 367 257.33203125 369 261.999023438 373 265.999023438 c 0
 377 269.999023438 383.333007812 271.999023438 392 271.999023438 c 0
 404.666992188 271.999023438 415 267.999023438 423 259.999023438 c 0
 433 249.33203125 441.333007812 230.499023438 448 203.499023438 c 0
 454.666992188 176.499023438 458 150.33203125 458 124.999023438 c 0
 458 104.33203125 454.920898438 57.6416015625 452 47 c 0
 438 -4 450.999023438 15.0009765625 356 -41 c 0
 328.243164062 -57.3623046875 281 -58.0009765625 263 -58.0009765625 c 2
 252 -58.0009765625 l 2
 226.666992188 -58.0009765625 200 -52.333984375 172 -41.0009765625 c 0
 156 -35.0009765625 142.666992188 -27.5009765625 122 -16.5009765625 c 0
 101.333007812 -5.5009765625 81 3.33203125 61 9.9990234375 c 0
 21 21.9990234375 0.6669921875 36.666015625 -14 53.9990234375 c 0
 -22 62.666015625 -26 78.3330078125 -26 101 c 0
 -26 113.666992188 -24.5498046875 130.702148438 -21 152 c 0
 -15 188 -27.5595703125 229.400390625 0 322 c 0
 16.6669921875 378 24.3330078125 421 29 433 c 0
 33.6669921875 445 46.12109375 474.9296875 80 533 c 0
 87.0009765625 545 124.333007812 575 129 580 c 0
 133.666992188 585 153.956054688 605.763671875 165.999023438 611 c 0
 181.33203125 617.666992188 201.33203125 635.166992188 207.999023438 641.5 c 0
 214.666015625 647.833007812 230.333007812 655.333007812 237 670 c 0
 244.333007812 683.333007812 252 692.333007812 260 697 c 0
 268 701 275.001953125 702.998046875 281.001953125 702.998046875 c 0
 288.334960938 702.998046875 303.001953125 699.665039062 325.001953125 692.998046875 c 0
 390.334960938 673.665039062 418.001953125 658.33203125 418.001953125 628.999023438 c 0
 418.001953125 628.33203125 417.834960938 626.999023438 417.501953125 624.999023438 c 0
 417.168945312 622.999023438 417.001953125 621.666015625 417.001953125 620.999023438 c 0
 414.334960938 607.666015625 411.16796875 597.999023438 407.500976562 591.999023438 c 0
 403.833984375 585.999023438 399.333984375 579.666015625 390.000976562 574.999023438 c 0
 383.333984375 570.999023438 375.666992188 568.999023438 367 568.999023438 c 0
 355 568.999023438 342.333007812 573.666015625 329 582.999023438 c 0
 319.666992188 588.999023438 310 591.999023438 300 591.999023438 c 0
 270 591.999023438 229.666992188 597.666992188 179 545 c 0
 156.333007812 521 142 499 118.5 461.999023438 c 0
 110.436523438 449.302734375 108.4453125 428.095703125 102 405.999023438 c 0
 95 382 91.5615234375 367.680664062 87 353.999023438 c 0
 83 342 81.3330078125 332.33203125 70 306.999023438 c 0
 60 282.999023438 51.3330078125 257.666015625 50 216.999023438 c 0
 50 212.33203125 49.8330078125 206.33203125 49.5 198.999023438 c 0
 49.1669921875 191.666015625 49 186.333007812 49 183 c 0
 49 156.333007812 52.1669921875 136.833007812 58.5 124.5 c 0
 64.8330078125 112.166992188 75.666015625 94 98.9990234375 70 c 0
 119.666015625 49.3330078125 133.999023438 36.166015625 141.999023438 30.4990234375 c 0
 149.999023438 24.83203125 158.999023438 19.9990234375 178.999023438 13.9990234375 c 0
 203.666015625 5.9990234375 225.333007812 1.9990234375 244 1.9990234375 c 0
 269.333007812 1.9990234375 329 14.501953125 382 60 c 24
EndSplineSet
Validated: 524321
EndChar

StartChar: D
Encoding: 68 68 38
Width: 404
GlyphClass: 2
Flags: W
HStem: -103.481 51.4453<108.265 146.439> 137.484 25.9766<273.422 289.1> 293.426 17.333<-42.9966 -30.5977>
VStem: -41.3857 81.6416<511.332 577.878> 379.525 49.9229<210.729 385.86>
LayerCount: 2
Fore
SplineSet
89.24609375 571.149414062 m 0
 70.3046875 580.642578125 58.5029296875 585.487304688 53.8408203125 585.689453125 c 0
 48.5126953125 585.919921875 45.0673828125 583.3984375 43.505859375 578.127929688 c 0
 41.943359375 572.857421875 40.859375 563.228515625 40.255859375 549.2421875 c 0
 39.2197265625 525.263671875 40.509765625 489.5078125 44.1279296875 441.974609375 c 0
 47.7470703125 394.44140625 52.2099609375 354.87890625 57.5185546875 323.287109375 c 0
 60.765625 305.796875 65.0478515625 265.908203125 70.3642578125 203.62109375 c 0
 75.7998046875 128.649414062 83.6640625 67.419921875 93.9560546875 19.9306640625 c 0
 104.249023438 -27.5576171875 115.056640625 -51.546875 126.37890625 -52.0361328125 c 0
 131.70703125 -52.265625 143.432617188 -43.4306640625 161.5546875 -25.529296875 c 0
 216.446289062 24.814453125 251.055664062 61.3544921875 265.383789062 84.0908203125 c 0
 275.427734375 100.338867188 289.453125 116.081054688 307.4609375 131.318359375 c 0
 318.578125 141.514648438 327.155273438 150.8203125 333.19140625 159.234375 c 0
 339.2265625 167.6484375 345.9921875 181.369140625 353.48828125 200.396484375 c 0
 369.78125 237.727539062 378.4609375 268.71484375 379.525390625 293.359375 c 0
 380.907226562 325.329101562 368.689453125 366.895507812 342.874023438 418.057617188 c 0
 325.084960938 454.192382812 303.735351562 481.305664062 278.826171875 499.3984375 c 0
 253.916992188 517.490234375 217.3671875 532.58203125 169.177734375 544.673828125 c 0
 131.55859375 554.306640625 104.9140625 563.1328125 89.24609375 571.149414062 c 0
-2.662109375 714.248046875 m 0
 4.228515625 719.288085938 12.0009765625 721.62890625 20.66015625 721.254882812 c 0
 27.986328125 720.938476562 42.2421875 714.984375 63.4287109375 703.391601562 c 0
 84.615234375 691.799804688 104.259765625 679.272460938 122.362304688 665.811523438 c 0
 142.405273438 650.932617188 160.956054688 640.122070312 178.013671875 633.37890625 c 0
 207.525390625 621.426757812 232.607421875 607.331054688 253.258789062 591.091796875 c 0
 273.91015625 574.8515625 284.005859375 561.403320312 283.544921875 550.74609375 c 0
 283.286132812 544.751953125 285.720703125 539.30859375 290.846679688 534.416015625 c 0
 295.973632812 529.5234375 307.66015625 522.01171875 325.907226562 511.880859375 c 0
 341.546875 503.198242188 350.698242188 498.798828125 353.362304688 498.68359375 c 0
 356.02734375 498.568359375 358.778320312 500.451171875 361.615234375 504.333007812 c 0
 364.452148438 508.213867188 366.704101562 510.118164062 368.369140625 510.046875 c 0
 370.03515625 509.974609375 372.778320312 507.854492188 376.602539062 503.685546875 c 0
 382.337890625 497.431640625 386.1484375 485.255859375 388.036132812 467.157226562 c 0
 389.923828125 449.059570312 396.170898438 423.765625 406.778320312 391.27734375 c 0
 423.84765625 338.491210938 431.405273438 289.453125 429.448242188 244.162109375 c 0
 428.901367188 231.506835938 428.13671875 221.530273438 427.154296875 214.233398438 c 0
 424.670898438 187.6484375 421.888671875 169.584960938 418.806640625 160.041992188 c 0
 415.724609375 150.499023438 407.32421875 133.678710938 393.603515625 109.58203125 c 0
 358.928710938 48.3544921875 330.038085938 12.90234375 306.931640625 3.2236328125 c 0
 298.071289062 -1.0654296875 281.936523438 -11.544921875 258.528320312 -28.2177734375 c 0
 235.120117188 -44.8896484375 218.65234375 -55.35546875 209.126953125 -59.615234375 c 0
 192.825195312 -66.25 167.930664062 -74.8505859375 134.443359375 -85.4150390625 c 0
 100.956054688 -95.9794921875 72.09375 -103.740234375 66.099609375 -103.481445312 c 0
 58.7734375 -103.165039062 51.822265625 -98.02734375 45.24609375 -88.06640625 c 0
 38.669921875 -78.1064453125 34.98828125 -66.7705078125 34.2041015625 -54.0576171875 c 0
 33.6806640625 -50.69921875 33.1435546875 -43.8359375 32.5908203125 -33.4697265625 c 0
 32.0380859375 -23.103515625 31.259765625 -10.224609375 30.2568359375 5.166015625 c 0
 29.2529296875 20.556640625 28.244140625 31.9443359375 27.4013671875 43.32421875 c 0
 10.7998046875 292.272460938 -0.0556640625 442.548828125 -15.1572265625 494.58203125 c 0
 -21.5048828125 517.543945312 -27.3466796875 544.48828125 -32.8564453125 571.418945312 c 0
 -38.916015625 601.041015625 -41.759765625 620.181640625 -41.3857421875 628.840820312 c 0
 -41.1259765625 634.834960938 -39.8251953125 641.78515625 -37.4814453125 649.69140625 c 0
 -30.0478515625 682.734375 -15.69140625 706.13671875 -2.662109375 714.248046875 c 0
271.270507812 150.904296875 m 0
 271.64453125 159.563476562 275.162109375 163.748046875 281.822265625 163.4609375 c 0
 288.483398438 163.172851562 291.625976562 158.700195312 291.251953125 150.041015625 c 0
 290.877929688 141.381835938 287.361328125 137.197265625 280.700195312 137.484375 c 0
 274.0390625 137.772460938 270.896484375 142.245117188 271.270507812 150.904296875 c 0
-43.126953125 310.625976562 m 0
 -40.34765625 313.174804688 -37.509765625 313.21875 -34.61328125 310.758789062 c 0
 -31.716796875 308.297851562 -30.369140625 304.736328125 -30.5712890625 300.07421875 c 0
 -30.7724609375 295.411132812 -33.5380859375 293.1953125 -38.8662109375 293.42578125 c 0
 -42.8623046875 293.598632812 -45.4326171875 295.87890625 -46.578125 300.264648438 c 0
 -47.72265625 304.651367188 -46.572265625 308.10546875 -43.126953125 310.625976562 c 0
EndSplineSet
Validated: 524321
EndChar

